<svg width="196" height="100" viewBox="0 0 196 100" fill="none" xmlns="http://www.w3.org/2000/svg">
<g filter="url(#filter0_i_152_713)">
<rect x="12" y="6" width="172" height="68" rx="22" fill="black" fill-opacity="0.24"/>
</g>
<g filter="url(#filter1_f_152_713)">
<rect x="16" y="40" width="164" height="44" rx="20" fill="black" fill-opacity="0.4"/>
</g>
<rect x="13" y="6" width="170" height="65" rx="20" fill="#197A34"/>
<g filter="url(#filter2_i_152_713)">
<path d="M12 20C12 8.9543 20.9543 0 32 0H164C175.046 0 184 8.95431 184 20V45C184 56.0457 175.046 65 164 65H32C20.9543 65 12 56.0457 12 45V20Z" fill="url(#paint0_linear_152_713)"/>
</g>
<g filter="url(#filter3_i_152_713)">
<path d="M65.1943 26.4517L63.0327 31.4521H67.356L65.1943 26.4517ZM65.1943 22.8799L71.373 37H69.6196L67.8569 32.8345H62.5503L60.7876 37H59.0342L65.1943 22.8799ZM74.3511 30.9048V37H72.7739V23.418H75.6221C76.6178 23.418 77.3507 23.4705 77.8208 23.5757C78.2909 23.6808 78.6991 23.854 79.0454 24.0952C79.4784 24.4045 79.8154 24.8281 80.0566 25.3662C80.304 25.9043 80.4277 26.5011 80.4277 27.1567C80.4277 27.8123 80.304 28.4092 80.0566 28.9473C79.8154 29.4854 79.4784 29.909 79.0454 30.2183C78.6991 30.4657 78.2909 30.6419 77.8208 30.7471C77.3569 30.8522 76.624 30.9048 75.6221 30.9048H75.1675H74.3511ZM74.3511 29.439H75.1675C76.5529 29.439 77.4837 29.2782 77.96 28.9565C78.4424 28.6287 78.6836 28.0597 78.6836 27.2495C78.6836 26.3836 78.4362 25.7744 77.9414 25.4219C77.4528 25.0693 76.5282 24.8931 75.1675 24.8931H74.3511V29.439ZM83.9995 30.9048V37H82.4224V23.418H85.2705C86.2663 23.418 86.9992 23.4705 87.4692 23.5757C87.9393 23.6808 88.3475 23.854 88.6938 24.0952C89.1268 24.4045 89.4639 24.8281 89.7051 25.3662C89.9525 25.9043 90.0762 26.5011 90.0762 27.1567C90.0762 27.8123 89.9525 28.4092 89.7051 28.9473C89.4639 29.4854 89.1268 29.909 88.6938 30.2183C88.3475 30.4657 87.9393 30.6419 87.4692 30.7471C87.0054 30.8522 86.2725 30.9048 85.2705 30.9048H84.8159H83.9995ZM83.9995 29.439H84.8159C86.2013 29.439 87.1322 29.2782 87.6084 28.9565C88.0908 28.6287 88.332 28.0597 88.332 27.2495C88.332 26.3836 88.0846 25.7744 87.5898 25.4219C87.1012 25.0693 86.1766 24.8931 84.8159 24.8931H83.9995V29.439ZM92.0708 37V23.418H95.2622C96.1714 23.418 96.8363 23.4705 97.2568 23.5757C97.6836 23.6746 98.0578 23.8478 98.3794 24.0952C98.7814 24.4106 99.0938 24.8343 99.3164 25.3662C99.5391 25.8919 99.6504 26.4764 99.6504 27.1196C99.6504 28.2329 99.3381 29.0802 98.7134 29.6616C98.0949 30.2368 97.1857 30.5244 95.9858 30.5244H95.6982L100.884 37H98.834L93.8799 30.5244H93.6479V37H92.0708ZM93.6479 24.7817V29.3276H94.8818C96.1436 29.3276 96.9878 29.1668 97.4146 28.8452C97.8413 28.5174 98.0547 27.9484 98.0547 27.1382C98.0547 26.2661 97.8351 25.6569 97.396 25.3105C96.9569 24.958 96.1188 24.7817 94.8818 24.7817H93.6479ZM108.872 35.8403C109.614 35.8403 110.319 35.7012 110.987 35.4229C111.661 35.1383 112.268 34.7271 112.806 34.189C113.338 33.6571 113.743 33.054 114.021 32.3799C114.299 31.7057 114.438 30.9914 114.438 30.2368C114.438 29.4761 114.296 28.7524 114.012 28.0659C113.733 27.3794 113.331 26.7733 112.806 26.2476C112.274 25.7157 111.671 25.3105 110.997 25.0322C110.329 24.7539 109.62 24.6147 108.872 24.6147C108.118 24.6147 107.403 24.7539 106.729 25.0322C106.055 25.3105 105.458 25.7157 104.938 26.2476C104.407 26.7856 104.001 27.3949 103.723 28.0752C103.445 28.7555 103.306 29.4761 103.306 30.2368C103.306 30.9914 103.442 31.7026 103.714 32.3706C103.992 33.0386 104.4 33.6447 104.938 34.189C105.483 34.7332 106.086 35.1445 106.748 35.4229C107.416 35.7012 108.124 35.8403 108.872 35.8403ZM116.127 30.2368C116.127 31.2078 115.948 32.1232 115.589 32.9829C115.23 33.8426 114.708 34.6064 114.021 35.2744C113.334 35.9424 112.543 36.4588 111.646 36.8237C110.755 37.1825 109.831 37.3618 108.872 37.3618C107.913 37.3618 106.989 37.1825 106.098 36.8237C105.214 36.4588 104.428 35.9424 103.742 35.2744C103.049 34.6003 102.52 33.8333 102.155 32.9736C101.797 32.1139 101.617 31.2017 101.617 30.2368C101.617 29.2658 101.797 28.3504 102.155 27.4907C102.52 26.6248 103.049 25.8548 103.742 25.1807C104.422 24.5189 105.208 24.0086 106.098 23.6499C106.989 23.2912 107.913 23.1118 108.872 23.1118C109.837 23.1118 110.765 23.2912 111.655 23.6499C112.552 24.0086 113.341 24.5189 114.021 25.1807C114.708 25.8486 115.23 26.6156 115.589 27.4814C115.948 28.3411 116.127 29.2596 116.127 30.2368ZM122.315 37.5288L116.572 23.418H118.326L122.315 33.8086L126.286 23.418H128.03L122.315 37.5288ZM129.458 37V23.418H136.621V24.8931H131.073V28.7896H136.621V30.2925H131.073V35.4971H136.621V37H129.458Z" fill="#1C8E42"/>
</g>
<defs>
<filter id="filter0_i_152_713" x="12" y="6" width="172" height="68" filterUnits="userSpaceOnUse" color-interpolation-filters="sRGB">
<feFlood flood-opacity="0" result="BackgroundImageFix"/>
<feBlend mode="normal" in="SourceGraphic" in2="BackgroundImageFix" result="shape"/>
<feColorMatrix in="SourceAlpha" type="matrix" values="0 0 0 0 0 0 0 0 0 0 0 0 0 0 0 0 0 0 127 0" result="hardAlpha"/>
<feMorphology radius="2" operator="erode" in="SourceAlpha" result="effect1_innerShadow_152_713"/>
<feOffset/>
<feGaussianBlur stdDeviation="1"/>
<feComposite in2="hardAlpha" operator="arithmetic" k2="-1" k3="1"/>
<feColorMatrix type="matrix" values="0 0 0 0 0 0 0 0 0 0 0 0 0 0 0 0 0 0 0.24 0"/>
<feBlend mode="normal" in2="shape" result="effect1_innerShadow_152_713"/>
</filter>
<filter id="filter1_f_152_713" x="0" y="24" width="196" height="76" filterUnits="userSpaceOnUse" color-interpolation-filters="sRGB">
<feFlood flood-opacity="0" result="BackgroundImageFix"/>
<feBlend mode="normal" in="SourceGraphic" in2="BackgroundImageFix" result="shape"/>
<feGaussianBlur stdDeviation="8" result="effect1_foregroundBlur_152_713"/>
</filter>
<filter id="filter2_i_152_713" x="12" y="-2" width="172" height="67" filterUnits="userSpaceOnUse" color-interpolation-filters="sRGB">
<feFlood flood-opacity="0" result="BackgroundImageFix"/>
<feBlend mode="normal" in="SourceGraphic" in2="BackgroundImageFix" result="shape"/>
<feColorMatrix in="SourceAlpha" type="matrix" values="0 0 0 0 0 0 0 0 0 0 0 0 0 0 0 0 0 0 127 0" result="hardAlpha"/>
<feMorphology radius="1" operator="erode" in="SourceAlpha" result="effect1_innerShadow_152_713"/>
<feOffset dy="-2"/>
<feGaussianBlur stdDeviation="1"/>
<feComposite in2="hardAlpha" operator="arithmetic" k2="-1" k3="1"/>
<feColorMatrix type="matrix" values="0 0 0 0 0.0867708 0 0 0 0 0.425 0 0 0 0 0.195487 0 0 0 1 0"/>
<feBlend mode="normal" in2="shape" result="effect1_innerShadow_152_713"/>
</filter>
<filter id="filter3_i_152_713" x="59.0342" y="22.8799" width="77.5864" height="15.6489" filterUnits="userSpaceOnUse" color-interpolation-filters="sRGB">
<feFlood flood-opacity="0" result="BackgroundImageFix"/>
<feBlend mode="normal" in="SourceGraphic" in2="BackgroundImageFix" result="shape"/>
<feColorMatrix in="SourceAlpha" type="matrix" values="0 0 0 0 0 0 0 0 0 0 0 0 0 0 0 0 0 0 127 0" result="hardAlpha"/>
<feOffset dy="1"/>
<feGaussianBlur stdDeviation="2"/>
<feComposite in2="hardAlpha" operator="arithmetic" k2="-1" k3="1"/>
<feColorMatrix type="matrix" values="0 0 0 0 0 0 0 0 0 0 0 0 0 0 0 0 0 0 0.25 0"/>
<feBlend mode="normal" in2="shape" result="effect1_innerShadow_152_713"/>
</filter>
<linearGradient id="paint0_linear_152_713" x1="98" y1="0" x2="98" y2="65" gradientUnits="userSpaceOnUse">
<stop stop-color="#BCF84D"/>
<stop offset="1" stop-color="#5BF243"/>
</linearGradient>
</defs>
</svg>
