<svg width="140" height="77" viewBox="0 0 140 77" fill="none" xmlns="http://www.w3.org/2000/svg">
<g filter="url(#filter0_i_152_671)">
<rect x="13" y="10.8389" width="113.89" height="43.5085" rx="15" fill="black" fill-opacity="0.24"/>
</g>
<g filter="url(#filter1_f_152_671)">
<rect x="16.1992" y="32.5933" width="107.492" height="28.1525" rx="14.0763" fill="black" fill-opacity="0.4"/>
</g>
<rect x="14.2798" y="10.8389" width="111.331" height="41.589" rx="15" fill="#197A34"/>
<g filter="url(#filter2_i_152_671)">
<path d="M13.6396 22C13.6396 13.7157 20.3554 7 28.6396 7H111.89C120.174 7 126.89 13.7157 126.89 22V33.589C126.89 41.8733 120.174 48.589 111.89 48.589H28.6396C20.3554 48.589 13.6396 41.8733 13.6396 33.589V22Z" fill="url(#paint0_linear_152_671)"/>
</g>
<g filter="url(#filter3_i_152_671)">
<path d="M46.6172 32.2285C45.6914 32.2285 44.9609 31.834 44.4258 31.0449C43.8945 30.252 43.6289 29.1621 43.6289 27.7754C43.6289 26.3965 43.8926 25.3125 44.4199 24.5234C44.9512 23.7305 45.6758 23.334 46.5938 23.334C47.5312 23.334 48.2637 23.7246 48.791 24.5059C49.3184 25.2871 49.582 26.377 49.582 27.7754C49.582 29.1699 49.3184 30.2617 48.791 31.0508C48.2676 31.8359 47.543 32.2285 46.6172 32.2285ZM46.6055 31.3906C47.2344 31.3906 47.7109 31.0859 48.0352 30.4766C48.3633 29.8633 48.5273 28.9668 48.5273 27.7871C48.5273 26.6035 48.3633 25.7051 48.0352 25.0918C47.7109 24.4746 47.2344 24.166 46.6055 24.166C46 24.166 45.5273 24.4824 45.1875 25.1152C44.8516 25.7441 44.6836 26.627 44.6836 27.7637C44.6836 28.9082 44.8516 29.7988 45.1875 30.4355C45.5273 31.0723 46 31.3906 46.6055 31.3906ZM51.2109 31.4258C51.2109 31.2344 51.2793 31.0703 51.416 30.9336C51.5527 30.7969 51.7168 30.7285 51.9082 30.7285C52.1035 30.7285 52.2695 30.7969 52.4062 30.9336C52.5469 31.0664 52.6172 31.2305 52.6172 31.4258C52.6172 31.6172 52.5488 31.7793 52.4121 31.9121C52.2754 32.041 52.1074 32.1055 51.9082 32.1055C51.7129 32.1055 51.5469 32.041 51.4102 31.9121C51.2773 31.7793 51.2109 31.6172 51.2109 31.4258ZM57.2344 32.2285C56.3086 32.2285 55.5781 31.834 55.043 31.0449C54.5117 30.252 54.2461 29.1621 54.2461 27.7754C54.2461 26.3965 54.5098 25.3125 55.0371 24.5234C55.5684 23.7305 56.293 23.334 57.2109 23.334C58.1484 23.334 58.8809 23.7246 59.4082 24.5059C59.9355 25.2871 60.1992 26.377 60.1992 27.7754C60.1992 29.1699 59.9355 30.2617 59.4082 31.0508C58.8848 31.8359 58.1602 32.2285 57.2344 32.2285ZM57.2227 31.3906C57.8516 31.3906 58.3281 31.0859 58.6523 30.4766C58.9805 29.8633 59.1445 28.9668 59.1445 27.7871C59.1445 26.6035 58.9805 25.7051 58.6523 25.0918C58.3281 24.4746 57.8516 24.166 57.2227 24.166C56.6172 24.166 56.1445 24.4824 55.8047 25.1152C55.4688 25.7441 55.3008 26.627 55.3008 27.7637C55.3008 28.9082 55.4688 29.7988 55.8047 30.4355C56.1445 31.0723 56.6172 31.3906 57.2227 31.3906ZM64.3125 32.2285C63.3867 32.2285 62.6562 31.834 62.1211 31.0449C61.5898 30.252 61.3242 29.1621 61.3242 27.7754C61.3242 26.3965 61.5879 25.3125 62.1152 24.5234C62.6465 23.7305 63.3711 23.334 64.2891 23.334C65.2266 23.334 65.959 23.7246 66.4863 24.5059C67.0137 25.2871 67.2773 26.377 67.2773 27.7754C67.2773 29.1699 67.0137 30.2617 66.4863 31.0508C65.9629 31.8359 65.2383 32.2285 64.3125 32.2285ZM64.3008 31.3906C64.9297 31.3906 65.4062 31.0859 65.7305 30.4766C66.0586 29.8633 66.2227 28.9668 66.2227 27.7871C66.2227 26.6035 66.0586 25.7051 65.7305 25.0918C65.4062 24.4746 64.9297 24.166 64.3008 24.166C63.6953 24.166 63.2227 24.4824 62.8828 25.1152C62.5469 25.7441 62.3789 26.627 62.3789 27.7637C62.3789 28.9082 62.5469 29.7988 62.8828 30.4355C63.2227 31.0723 63.6953 31.3906 64.3008 31.3906ZM75.123 25.3379L73.7578 28.4961H76.4883L75.123 25.3379ZM75.123 23.082L79.0254 32H77.918L76.8047 29.3691H73.4531L72.3398 32H71.2324L75.123 23.082ZM82.1484 32.334L78.5215 23.4219H79.6289L82.1484 29.9844L84.6562 23.4219H85.7578L82.1484 32.334ZM86.6602 32V23.082L92.9355 29.9375V23.4219H93.9082V32.334L87.6328 25.5547V32H86.6602Z" fill="#1C8E42"/>
</g>
<defs>
<filter id="filter0_i_152_671" x="13" y="10.8389" width="113.89" height="43.5084" filterUnits="userSpaceOnUse" color-interpolation-filters="sRGB">
<feFlood flood-opacity="0" result="BackgroundImageFix"/>
<feBlend mode="normal" in="SourceGraphic" in2="BackgroundImageFix" result="shape"/>
<feColorMatrix in="SourceAlpha" type="matrix" values="0 0 0 0 0 0 0 0 0 0 0 0 0 0 0 0 0 0 127 0" result="hardAlpha"/>
<feMorphology radius="2" operator="erode" in="SourceAlpha" result="effect1_innerShadow_152_671"/>
<feOffset/>
<feGaussianBlur stdDeviation="1"/>
<feComposite in2="hardAlpha" operator="arithmetic" k2="-1" k3="1"/>
<feColorMatrix type="matrix" values="0 0 0 0 0 0 0 0 0 0 0 0 0 0 0 0 0 0 0.24 0"/>
<feBlend mode="normal" in2="shape" result="effect1_innerShadow_152_671"/>
</filter>
<filter id="filter1_f_152_671" x="0.199219" y="16.5933" width="139.492" height="60.1526" filterUnits="userSpaceOnUse" color-interpolation-filters="sRGB">
<feFlood flood-opacity="0" result="BackgroundImageFix"/>
<feBlend mode="normal" in="SourceGraphic" in2="BackgroundImageFix" result="shape"/>
<feGaussianBlur stdDeviation="8" result="effect1_foregroundBlur_152_671"/>
</filter>
<filter id="filter2_i_152_671" x="13.6396" y="5" width="113.25" height="43.589" filterUnits="userSpaceOnUse" color-interpolation-filters="sRGB">
<feFlood flood-opacity="0" result="BackgroundImageFix"/>
<feBlend mode="normal" in="SourceGraphic" in2="BackgroundImageFix" result="shape"/>
<feColorMatrix in="SourceAlpha" type="matrix" values="0 0 0 0 0 0 0 0 0 0 0 0 0 0 0 0 0 0 127 0" result="hardAlpha"/>
<feMorphology radius="1" operator="erode" in="SourceAlpha" result="effect1_innerShadow_152_671"/>
<feOffset dy="-2"/>
<feGaussianBlur stdDeviation="1"/>
<feComposite in2="hardAlpha" operator="arithmetic" k2="-1" k3="1"/>
<feColorMatrix type="matrix" values="0 0 0 0 0.0867708 0 0 0 0 0.425 0 0 0 0 0.195487 0 0 0 1 0"/>
<feBlend mode="normal" in2="shape" result="effect1_innerShadow_152_671"/>
</filter>
<filter id="filter3_i_152_671" x="43.6289" y="23.082" width="50.2793" height="10.252" filterUnits="userSpaceOnUse" color-interpolation-filters="sRGB">
<feFlood flood-opacity="0" result="BackgroundImageFix"/>
<feBlend mode="normal" in="SourceGraphic" in2="BackgroundImageFix" result="shape"/>
<feColorMatrix in="SourceAlpha" type="matrix" values="0 0 0 0 0 0 0 0 0 0 0 0 0 0 0 0 0 0 127 0" result="hardAlpha"/>
<feOffset dy="1"/>
<feGaussianBlur stdDeviation="2"/>
<feComposite in2="hardAlpha" operator="arithmetic" k2="-1" k3="1"/>
<feColorMatrix type="matrix" values="0 0 0 0 0 0 0 0 0 0 0 0 0 0 0 0 0 0 0.25 0"/>
<feBlend mode="normal" in2="shape" result="effect1_innerShadow_152_671"/>
</filter>
<linearGradient id="paint0_linear_152_671" x1="70.2646" y1="7" x2="70.2646" y2="48.589" gradientUnits="userSpaceOnUse">
<stop stop-color="#CDFFAA"/>
<stop offset="1" stop-color="#5BF243"/>
</linearGradient>
</defs>
</svg>
