<svg width="127" height="58" viewBox="0 0 127 58" fill="none" xmlns="http://www.w3.org/2000/svg">
<g opacity="0.2">
<path d="M61.7337 38.2931C63.0763 38.2931 64.1277 38.6985 64.8877 39.5091C65.6603 40.3198 66.0467 41.4281 66.0467 42.8341V49.0471H62.3227V43.3281C62.3227 42.7581 62.1643 42.3148 61.8477 41.9981C61.531 41.6815 61.1003 41.5231 60.5557 41.5231C60.011 41.5231 59.5803 41.6815 59.2637 41.9981C58.947 42.3148 58.7887 42.7581 58.7887 43.3281V49.0471H55.0647V43.3281C55.0647 42.7581 54.9063 42.3148 54.5897 41.9981C54.2857 41.6815 53.8613 41.5231 53.3167 41.5231C52.7593 41.5231 52.3223 41.6815 52.0057 41.9981C51.689 42.3148 51.5307 42.7581 51.5307 43.3281V49.0471H47.8067V38.3881H51.5307V39.7941C51.86 39.3381 52.2843 38.9771 52.8037 38.7111C53.3357 38.4325 53.9437 38.2931 54.6277 38.2931C55.413 38.2931 56.1097 38.4641 56.7177 38.8061C57.3383 39.1481 57.826 39.6295 58.1807 40.2501C58.5607 39.6675 59.061 39.1988 59.6817 38.8441C60.3023 38.4768 60.9863 38.2931 61.7337 38.2931ZM73.0459 49.1801C71.9819 49.1801 71.0256 48.9585 70.1769 48.5151C69.3409 48.0718 68.6823 47.4385 68.2009 46.6151C67.7196 45.7918 67.4789 44.8228 67.4789 43.7081C67.4789 42.6061 67.7196 41.6435 68.2009 40.8201C68.6949 39.9968 69.3599 39.3635 70.1959 38.9201C71.0446 38.4768 72.0009 38.2551 73.0649 38.2551C74.1289 38.2551 75.0789 38.4768 75.9149 38.9201C76.7636 39.3635 77.4286 39.9968 77.9099 40.8201C78.4039 41.6435 78.651 42.6061 78.651 43.7081C78.651 44.8101 78.4039 45.7791 77.9099 46.6151C77.4286 47.4385 76.7636 48.0718 75.9149 48.5151C75.0663 48.9585 74.1099 49.1801 73.0459 49.1801ZM73.0459 45.9501C73.5653 45.9501 73.9959 45.7601 74.3379 45.3801C74.6926 44.9875 74.8699 44.4301 74.8699 43.7081C74.8699 42.9861 74.6926 42.4351 74.3379 42.0551C73.9959 41.6751 73.5716 41.4851 73.0649 41.4851C72.5583 41.4851 72.1339 41.6751 71.7919 42.0551C71.4499 42.4351 71.2789 42.9861 71.2789 43.7081C71.2789 44.4428 71.4436 45.0001 71.7729 45.3801C72.1023 45.7601 72.5266 45.9501 73.0459 45.9501ZM87.1391 38.2931C88.3677 38.2931 89.3431 38.7048 90.0651 39.5281C90.7871 40.3388 91.1481 41.4408 91.1481 42.8341V49.0471H87.4241V43.3281C87.4241 42.7201 87.2657 42.2451 86.9491 41.9031C86.6324 41.5485 86.2081 41.3711 85.6761 41.3711C85.1187 41.3711 84.6817 41.5485 84.3651 41.9031C84.0484 42.2451 83.8901 42.7201 83.8901 43.3281V49.0471H80.1661V38.3881H83.8901V39.9081C84.2194 39.4268 84.6627 39.0405 85.2201 38.7491C85.7774 38.4451 86.4171 38.2931 87.1391 38.2931ZM103.375 43.5941C103.375 43.8855 103.356 44.1768 103.318 44.4681H96.2694C96.3074 45.0508 96.4658 45.4878 96.7444 45.7791C97.0358 46.0578 97.4031 46.1971 97.8464 46.1971C98.4671 46.1971 98.9104 45.9185 99.1764 45.3611H103.147C102.983 46.0958 102.66 46.7545 102.178 47.3371C101.71 47.9071 101.114 48.3568 100.392 48.6861C99.6704 49.0155 98.8724 49.1801 97.9984 49.1801C96.9471 49.1801 96.0098 48.9585 95.1864 48.5151C94.3758 48.0718 93.7361 47.4385 93.2674 46.6151C92.8114 45.7918 92.5834 44.8228 92.5834 43.7081C92.5834 42.5935 92.8114 41.6308 93.2674 40.8201C93.7234 39.9968 94.3568 39.3635 95.1674 38.9201C95.9908 38.4768 96.9344 38.2551 97.9984 38.2551C99.0498 38.2551 99.9808 38.4705 100.791 38.9011C101.602 39.3318 102.235 39.9525 102.691 40.7631C103.147 41.5611 103.375 42.5048 103.375 43.5941ZM99.5754 42.6631C99.5754 42.2071 99.4234 41.8525 99.1194 41.5991C98.8154 41.3331 98.4354 41.2001 97.9794 41.2001C97.5234 41.2001 97.1498 41.3268 96.8584 41.5801C96.5671 41.8208 96.3771 42.1818 96.2884 42.6631H99.5754ZM116.375 38.3881L109.611 54.1201H105.564L108.11 48.5911L103.74 38.3881H107.882L110.124 44.4301L112.29 38.3881H116.375Z" fill="white"/>
<mask id="mask0_49_1385" style="mask-type:alpha" maskUnits="userSpaceOnUse" x="0" y="0" width="127" height="43">
<path d="M56.2588 31.0522L46.2419 34.5581L35.7242 42.0707H0.665283V0H126.377V34.5581H67.2773L56.2588 31.0522Z" fill="#C4C4C4"/>
</mask>
<g mask="url(#mask0_49_1385)">
<path fill-rule="evenodd" clip-rule="evenodd" d="M48.0549 18.0405V31.0624H54.4656V26.0539C54.4656 22.7684 54.4656 20.9554 54.5157 20.715C54.5779 20.2305 54.7454 19.7655 55.0065 19.3527C55.2232 19.0504 55.5198 18.8144 55.863 18.6711C56.2062 18.5278 56.5825 18.4828 56.9498 18.5413C58.0717 18.6014 58.7228 19.2625 58.9532 20.5447C58.9532 20.735 58.9532 22.7083 58.9532 25.9938V31.0624H65.364V25.0522C65.364 20.0438 65.364 18.952 65.2938 18.4511C65.181 16.8679 64.5266 15.3717 63.4407 14.214C62.5369 13.3138 61.3533 12.7485 60.0851 12.6113C59.3069 12.5485 58.5242 12.572 57.7512 12.6814C56.6512 12.9058 55.6432 13.4534 54.8563 14.2541L54.4055 14.7048V5.00854H48.0549V18.0405ZM116.169 5.20888C115.999 5.59954 109.488 21.356 109.488 21.3861H117.071L120.457 13.2324C122.31 8.74483 123.832 5.05863 123.832 5.0386C123.832 5.01856 122.129 5.0386 120.046 5.0386H116.26L116.169 5.20888ZM34.0112 12.6113C32.737 12.7669 31.5163 13.2161 30.4452 13.9235C29.3513 14.6854 28.4294 15.6683 27.7392 16.8089C27.049 17.9494 26.6059 19.2221 26.4385 20.5447C26.2525 21.9282 26.3238 23.3341 26.6489 24.6916C26.9708 26.1508 27.6567 27.5047 28.6428 28.6274C29.6288 29.7501 30.8829 30.6049 32.2883 31.1124C33.1193 31.4244 34.0068 31.5575 34.8927 31.5031C35.3917 31.5315 35.8922 31.5047 36.3852 31.423C37.5215 31.2168 38.569 30.6721 39.3903 29.8603L39.801 29.4496V31.0624H45.9814V13.032H39.791V14.6948L39.5005 14.3843C38.6789 13.5614 37.6341 12.9972 36.4954 12.7616C36.0294 12.6539 35.5509 12.6101 35.073 12.6314C34.5622 12.5913 34.0814 12.6013 34.0112 12.6113ZM74.93 12.6614C73.1708 12.8868 71.5039 13.5785 70.1019 14.6648C68.8197 15.7261 67.8379 17.1049 67.2544 18.6638C66.6709 20.2227 66.5061 21.9073 66.7763 23.5497C67.0363 25.3883 67.8444 27.1058 69.0952 28.4781C70.346 29.8504 71.9815 30.8139 73.7881 31.2427C74.6361 31.4556 75.5083 31.5566 76.3825 31.5432C77.9581 31.5932 79.5213 31.2488 80.9301 30.5415C82.2752 29.8721 83.4354 28.8827 84.3086 27.6601C85.1819 26.4375 85.7416 25.0192 85.9386 23.5297C86.0437 22.5877 86.0437 21.6369 85.9386 20.6949C85.7234 19.1795 85.1499 17.7373 84.2657 16.4878C83.7576 15.8362 83.1836 15.2387 82.5529 14.7048C81.1588 13.618 79.4981 12.9261 77.7448 12.7015C76.8103 12.593 75.8672 12.5796 74.93 12.6614ZM95.3243 12.6614C93.5945 12.8943 91.9585 13.586 90.5864 14.6648C89.9531 15.196 89.3789 15.7938 88.8735 16.4478C87.9865 17.6966 87.4096 19.1388 87.1907 20.6549C87.0805 21.5966 87.0805 22.5479 87.1907 23.4896C87.5425 25.76 88.7081 27.8248 90.47 29.2992C92.2319 30.7736 94.47 31.5569 96.7668 31.5031C98.3776 31.535 99.9711 31.1668 101.405 30.4313C103.242 29.4695 104.712 27.9283 105.584 26.0467C106.457 24.1651 106.685 22.0481 106.233 20.0238C105.846 18.086 104.851 16.3226 103.391 14.9908C101.931 13.6591 100.084 12.8289 98.119 12.6213C97.1885 12.5395 96.2521 12.5529 95.3243 12.6614ZM5.67358 13.022C5.67358 13.022 7.4065 17.1289 9.52005 22.1073C11.6336 27.0857 13.3565 31.2026 13.3565 31.2226C13.3565 31.2427 12.7355 32.7352 11.9742 34.5182L10.6019 37.7837C10.6019 37.7837 12.1344 37.7837 13.9976 37.7837H17.4033L22.5219 25.4529C25.3567 18.6615 27.7106 13.0921 27.7106 13.0521C26.5897 12.9879 25.466 12.9879 24.345 13.0521H20.9192L18.8457 18.3109C17.6938 21.1657 16.7622 23.5497 16.7522 23.5497C16.7422 23.5497 15.8106 21.1757 14.6787 18.2909L12.6754 13.0621H9.16946C7.25625 13.002 5.67358 13.012 5.67358 13.022ZM37.1265 18.4812C37.7658 18.6359 38.3508 18.962 38.8185 19.4244C39.2863 19.8869 39.619 20.4681 39.7809 21.1056C39.9111 21.7333 39.9111 22.3811 39.7809 23.0088C39.6167 23.6419 39.2857 24.2194 38.8223 24.681C38.3589 25.1426 37.7802 25.4714 37.1465 25.6332C36.5199 25.7735 35.87 25.7735 35.2433 25.6332C34.6916 25.4899 34.18 25.2222 33.7477 24.8506C33.3154 24.4791 32.9738 24.0135 32.7491 23.4896C32.5234 22.9202 32.4365 22.3052 32.4957 21.6955C32.555 21.0859 32.7586 20.4991 33.0897 19.9837C33.5265 19.3434 34.1516 18.8548 34.8785 18.5856C35.6054 18.3164 36.398 18.2799 37.1465 18.4812H37.1265ZM77.0236 18.4812C77.708 18.6022 78.341 18.924 78.8421 19.4055C79.3433 19.8871 79.6901 20.5067 79.8383 21.1857C79.9584 21.7808 79.9584 22.3938 79.8383 22.9888C79.6854 23.6013 79.3718 24.162 78.9298 24.6128C78.4878 25.0636 77.9335 25.3882 77.3241 25.5531C76.6949 25.6682 76.05 25.6682 75.4209 25.5531C74.9236 25.4202 74.4615 25.1801 74.0669 24.8496C73.6724 24.519 73.355 24.1061 73.137 23.6399C72.8896 23.1431 72.7724 22.5916 72.7965 22.0372C72.7766 21.5389 72.869 21.0425 73.0669 20.5847C73.3406 19.9407 73.7923 19.3882 74.3691 18.9921C75.1747 18.5176 76.127 18.3571 77.0436 18.5413L77.0236 18.4812ZM97.4179 18.4812C97.9982 18.5793 98.544 18.824 99.0032 19.1922C99.4625 19.5603 99.8202 20.0396 100.042 20.5847C100.24 21.0425 100.333 21.5389 100.313 22.0372C100.337 22.5916 100.22 23.1431 99.9722 23.6399C99.7585 24.1037 99.4461 24.5152 99.0568 24.8457C98.6675 25.1761 98.2107 25.4176 97.7184 25.5531C97.0923 25.6659 96.4512 25.6659 95.8252 25.5531C95.2184 25.3884 94.6664 25.0649 94.2263 24.616C93.7861 24.167 93.4736 23.6088 93.321 22.9988C93.1807 22.3721 93.1807 21.7222 93.321 21.0956C93.5103 20.3296 93.9525 19.65 94.5759 19.1664C95.1994 18.6829 95.9678 18.4238 96.7568 18.4311C96.9865 18.4489 97.2143 18.4857 97.4379 18.5413L97.4179 18.4812ZM111.001 22.9487C110.105 23.0532 109.265 23.4346 108.597 24.0398C107.929 24.645 107.467 25.4437 107.274 26.3244C107.154 26.9531 107.154 27.5989 107.274 28.2276C107.455 28.9896 107.85 29.684 108.413 30.2288C108.976 30.7737 109.682 31.1463 110.45 31.3028C110.738 31.3497 111.029 31.3732 111.321 31.3729C112.243 31.3835 113.143 31.0948 113.886 30.5501C114.63 30.0054 115.176 29.2341 115.444 28.3522C115.712 27.4703 115.686 26.5253 115.371 25.6593C115.055 24.7933 114.467 24.053 113.695 23.5497C112.889 23.0752 111.951 22.8716 111.021 22.9687L111.001 22.9487ZM58.2219 32.7752C57.9275 32.8694 57.6577 33.0279 57.4321 33.2392C57.2064 33.4506 57.0307 33.7095 56.9175 33.9971C56.8044 34.2848 56.7566 34.5941 56.7778 34.9025C56.799 35.2109 56.8885 35.5108 57.04 35.7803C57.2881 36.1494 57.6352 36.441 58.0416 36.6217C58.3092 36.7618 58.6141 36.8144 58.9131 36.772C59.2121 36.813 59.5166 36.7605 59.7846 36.6217C60.2126 36.3975 60.5621 36.0481 60.7863 35.62C60.9096 35.3756 60.9815 35.1084 60.9975 34.8351C61.0136 34.5618 60.9734 34.2881 60.8795 34.0309C60.7857 33.7737 60.6401 33.5385 60.4517 33.3397C60.2634 33.141 60.0364 32.983 59.7846 32.8754C59.5395 32.741 59.2626 32.6752 58.9832 32.6851C58.726 32.6659 58.4675 32.6965 58.2219 32.7752ZM52.8629 32.8754C52.0601 33.008 51.3167 33.3819 50.7316 33.9473C50.1465 34.5128 49.7474 35.2429 49.5874 36.0407C49.5176 36.3873 49.4774 36.7391 49.4672 37.0925V37.7536H48.0549V39.2762V40.7987H49.4272V48.0008H53.1434V40.8188H55.6677V39.2762V37.7536H53.1634V37.4231C53.1535 37.1189 53.2473 36.8204 53.4293 36.5765C53.6113 36.3326 53.8707 36.1578 54.1651 36.0808C54.6277 35.9624 55.1146 35.9798 55.5675 36.1309L55.858 36.221C55.858 36.221 55.858 35.5199 55.858 34.6684V33.1158L55.5975 33.0156C55.073 32.8354 54.5188 32.7572 53.9648 32.7853C53.5958 32.7881 53.2275 32.8182 52.8629 32.8754ZM68.0785 37.5733C67.3531 37.7034 66.7007 38.0955 66.2454 38.6752L66.0351 38.9556V37.7536H62.2688V48.0209H66.0351V45.2262C66.0351 43.6135 66.0351 42.3013 66.0351 42.141C66.0853 41.7626 66.2576 41.4108 66.5259 41.1393C66.7882 40.942 67.1162 40.8527 67.4423 40.89C67.7684 40.9273 68.0678 41.0882 68.2789 41.3396C68.5593 41.7503 68.5593 41.6902 68.5794 44.9858V47.9908H72.3357V44.6552C72.3357 41.0792 72.3357 40.6485 72.1253 39.9974C71.9728 39.407 71.661 38.8699 71.2238 38.4448C70.8685 38.0371 70.4075 37.7355 69.8916 37.5733C69.2923 37.463 68.6778 37.463 68.0785 37.5733ZM77.5745 37.5733C76.8602 37.6935 76.1782 37.9595 75.5711 38.3546C74.4482 39.2005 73.6919 40.4443 73.4576 41.8305C73.3524 42.5848 73.3524 43.35 73.4576 44.1043C73.5973 44.9826 73.9403 45.8161 74.4593 46.5384C75.1249 47.4299 76.0942 48.0464 77.1838 48.2713C77.8746 48.396 78.5834 48.3789 79.2673 48.2212C79.8456 48.0644 80.3736 47.7607 80.7999 47.3397L81.1805 46.9891V47.9908H84.8968V37.7536H81.1805V38.8154L80.9301 38.575C80.3885 38.0328 79.6855 37.6813 78.9268 37.5733C78.4798 37.5017 78.0261 37.4816 77.5745 37.5132V37.5733ZM92.159 37.5733C91.4488 37.7402 90.8123 38.1341 90.346 38.6952L90.1857 38.9055V37.7536H86.3993V48.0209H90.2057V45.106C90.2057 42.0208 90.2057 41.9607 90.4261 41.54C90.5233 41.3572 90.6672 41.2035 90.8432 41.0944C91.0191 40.9853 91.2208 40.9248 91.4278 40.9189C91.5881 40.8981 91.7512 40.9163 91.9029 40.9721C92.0547 41.0279 92.1907 41.1197 92.2993 41.2395C92.6999 41.6402 92.6899 41.4899 92.6999 44.9657V48.0209H96.4562V44.2946C96.4562 40.6084 96.4562 40.5583 96.336 40.1677C96.243 39.8696 96.1292 39.5784 95.9955 39.2962C95.8586 38.9809 95.6573 38.6977 95.4045 38.4648C95.0878 38.1215 94.6925 37.8603 94.2525 37.7035C93.5771 37.4828 92.8566 37.4379 92.159 37.5733ZM102.086 37.5733C101.028 37.704 100.037 38.1596 99.2498 38.8773C98.4621 39.5949 97.9166 40.5393 97.6883 41.58C97.5683 42.0235 97.5242 42.4841 97.5581 42.9423C97.5147 43.5903 97.5998 44.2405 97.8085 44.8555C98.0944 45.7206 98.6064 46.4935 99.2916 47.0941C99.9767 47.6947 100.81 48.1011 101.705 48.2713C102.129 48.3418 102.558 48.3687 102.987 48.3514C103.704 48.4005 104.422 48.2769 105.081 47.9908L105.451 47.8406V44.3146L105.141 44.4949C104.715 44.7534 104.227 44.8918 103.728 44.8956C103.269 44.9489 102.805 44.8616 102.396 44.6452C101.993 44.4509 101.67 44.1213 101.485 43.7136C101.361 43.4659 101.312 43.1874 101.344 42.9123C101.321 42.6567 101.359 42.3992 101.455 42.161C101.621 41.7709 101.902 41.4401 102.259 41.2114C102.616 40.9827 103.034 40.8669 103.458 40.8789C104.167 40.832 104.872 41.0223 105.461 41.4198C105.461 41.4198 105.461 40.6585 105.461 39.7169V37.994L105.161 37.8738C104.177 37.5191 103.12 37.4158 102.086 37.5733ZM110.63 37.5733C109.262 37.7983 108.034 38.5427 107.202 39.6513C106.369 40.7599 105.997 42.147 106.163 43.5233C106.225 44.4517 106.526 45.3484 107.034 46.1277C107.408 46.6701 107.886 47.1333 108.439 47.4908C108.993 47.8484 109.611 48.0932 110.259 48.2112C111.213 48.3463 112.181 48.3463 113.134 48.2112C114.118 48.0102 115.025 47.5343 115.749 46.8389C116.056 46.5467 116.316 46.2088 116.52 45.8372C116.52 45.8372 115.789 45.5367 114.927 45.2061L113.345 44.5851L113.114 44.8255C112.88 45.0849 112.573 45.2667 112.233 45.3464C111.991 45.4257 111.735 45.4546 111.482 45.4314C111.228 45.4081 110.982 45.3332 110.759 45.2112C110.536 45.0891 110.34 44.9226 110.183 44.7219C110.026 44.5212 109.913 44.2906 109.849 44.0442V43.8439H113.385H116.921V42.9924C116.938 42.5734 116.911 42.1537 116.841 41.7403C116.649 40.6918 116.146 39.7251 115.398 38.9656C114.69 38.2439 113.778 37.7577 112.784 37.5733C112.069 37.473 111.344 37.473 110.63 37.5733ZM56.9799 42.8923V48.0209H60.7662V37.7536H56.9799V42.8923ZM112.143 40.4081C112.392 40.4696 112.618 40.6018 112.794 40.7887C113.01 40.9773 113.161 41.2299 113.224 41.5099V41.7002H111.552C109.618 41.7002 109.769 41.7002 109.939 41.2996C110.136 40.909 110.468 40.6032 110.873 40.4392C111.278 40.2752 111.73 40.2641 112.143 40.4081ZM79.7982 40.9189C80.0744 41.002 80.3311 41.1396 80.5531 41.3237C80.775 41.5079 80.9578 41.7347 81.0904 41.9907C81.2255 42.2494 81.3025 42.5344 81.316 42.8259C81.3295 43.1174 81.2791 43.4083 81.1685 43.6783C81.0578 43.9482 80.8895 44.1908 80.6753 44.389C80.4611 44.5871 80.2062 44.7361 79.9285 44.8255C79.4823 44.9459 79.0123 44.9459 78.5662 44.8255C78.2511 44.7208 77.9648 44.5441 77.73 44.3094C77.4953 44.0746 77.3185 43.7883 77.2139 43.4732C77.142 43.2366 77.1181 42.988 77.1438 42.742C77.1326 42.4784 77.1987 42.2172 77.3341 41.9907C77.5553 41.5527 77.9227 41.2058 78.3727 41.0101C78.8227 40.8144 79.327 40.7821 79.7982 40.9189Z" fill="white"/>
</g>
</g>
</svg>
