<svg width="1044" height="346" viewBox="0 0 1044 346" fill="none" xmlns="http://www.w3.org/2000/svg">
<path d="M970.502 88.6085C971.613 94.6305 969.565 101.118 964.584 107.972C959.603 114.825 951.705 122.018 941.169 129.434C920.1 144.264 888.53 159.949 848.804 175.561C769.355 206.783 657.332 237.696 531.569 260.893C405.805 284.09 290.126 295.178 204.767 294.355C162.085 293.943 126.997 290.554 102.022 284.216C89.5346 281.048 79.59 277.146 72.4916 272.52C65.3932 267.895 61.166 262.565 60.0552 256.543C58.9444 250.521 60.9917 244.033 65.9729 237.18C70.9541 230.326 78.8521 223.133 89.3877 215.718C110.458 200.888 142.027 185.203 181.754 169.59C261.202 138.368 373.225 107.456 498.988 84.2583C624.752 61.0609 740.431 49.9729 825.79 50.7962C868.472 51.2079 903.56 54.5977 928.535 60.9348C941.023 64.1036 950.967 68.0058 958.066 72.6309C965.164 77.2559 969.391 82.5865 970.502 88.6085Z" stroke="white" stroke-width="0.5"/>
<path d="M1019.5 97C1019.98 110.328 1030.67 121.022 1044 121.5C1030.67 121.978 1019.98 132.672 1019.5 146C1019.02 132.672 1008.33 121.978 995 121.5C1008.33 121.022 1019.02 110.328 1019.5 97Z" fill="white"/>
<path d="M12 218C12.2343 224.8 17.4721 230.256 24 230.5C17.4721 230.744 12.2343 236.2 12 243C11.7657 236.2 6.5279 230.744 0 230.5C6.5279 230.256 11.7657 224.8 12 218Z" fill="white"/>
</svg>
