<svg width="197" height="46" viewBox="0 0 197 46" fill="none" xmlns="http://www.w3.org/2000/svg">
<g opacity="0.29">
<path d="M76.7653 13.9906C77.6901 14.9154 78.615 15.8403 79.5399 16.7652C80.4648 17.6901 80.4648 19.5399 80.4648 21.3896C80.4648 23.2394 80.4648 25.0892 79.5399 26.014C79.5399 28.7887 77.6901 29.7136 76.7653 30.6385C74.9155 30.6385 73.9906 31.5633 72.1408 31.5633C71.216 31.5633 70.2911 31.5633 69.3662 30.6385C68.4413 30.6385 67.5164 29.7136 66.5915 29.7136V38.9624H61.0422V13.9906H65.6667L66.5915 15.8403C68.4413 13.9906 70.2911 13.0657 73.0657 13.0657C73.9906 13.0657 75.8404 13.0657 76.7653 13.9906ZM73.9906 26.014C74.9155 25.0892 75.8404 24.1643 75.8404 22.3145C75.8404 20.4647 74.9155 19.5399 73.9906 18.615C73.0657 17.6901 72.1408 17.6901 71.216 17.6901C70.2911 17.6901 69.3662 17.6901 68.4413 18.615C67.5164 18.615 67.5164 19.5399 66.5915 20.4647V24.1643C66.5915 25.0892 67.5164 26.014 68.4413 26.014C68.4413 26.9389 69.3662 26.9389 70.2911 26.9389C72.1408 26.9389 73.0657 26.9389 73.9906 26.014Z" fill="white"/>
<path d="M84.1644 17.69C85.0893 16.7651 86.0142 14.9154 87.8639 14.9154C89.7137 13.9905 90.6386 13.9905 92.4883 13.9905C94.3381 13.9905 96.1879 13.9905 97.1128 14.9154C98.0376 15.8402 99.8874 16.7651 100.812 18.6149C101.737 19.5398 101.737 21.3895 101.737 23.2393C101.737 25.0891 101.737 26.014 100.812 27.8637C99.8874 28.7886 98.9625 30.6384 97.1128 30.6384C96.1879 31.5633 94.3381 31.5633 92.4883 31.5633C90.6386 31.5633 88.7888 31.5633 87.8639 30.6384C86.939 29.7135 85.0893 28.7886 84.1644 27.8637C83.2395 26.9388 83.2395 25.0891 83.2395 23.2393C83.2395 20.4647 83.2395 18.6149 84.1644 17.69ZM89.7137 26.014C90.6386 26.9388 91.5635 26.9389 92.4883 26.9389C93.4132 26.9389 94.3381 26.014 95.263 26.014C96.1879 26.014 96.1879 24.1642 96.1879 22.3144C96.1879 20.4647 96.1879 19.5398 95.263 18.6149C94.3381 17.69 93.4132 17.69 92.4883 17.69C91.5635 17.69 90.6386 18.6149 89.7137 18.6149C88.7888 19.5398 88.7888 20.4647 88.7888 22.3144C88.7888 23.2393 88.7888 25.0891 89.7137 26.014Z" fill="white"/>
<path d="M110.986 0.116699V30.6379H105.437V0.116699H110.986Z" fill="white"/>
<path d="M133.183 13.9905L122.085 38.9623H116.535L120.235 29.7135L112.836 13.9905H119.31L123.935 24.1642L128.559 13.9905C127.634 13.9905 133.183 13.9905 133.183 13.9905Z" fill="white"/>
<path d="M153.531 13.9906V30.6385C153.531 32.4882 153.531 33.4131 152.606 35.2629C151.681 37.1126 150.756 37.1126 148.906 38.0375C147.056 38.9624 145.207 38.9624 143.357 38.9624C142.432 38.9624 140.582 38.9624 139.657 38.0375C138.732 38.0375 137.808 37.1126 136.883 37.1126C135.958 37.1126 135.033 36.1878 134.108 35.2629L136.883 31.5633C138.732 33.4131 139.657 33.4131 140.582 34.338C141.507 35.2629 142.432 35.2629 143.357 35.2629C144.282 35.2629 146.131 35.2629 147.056 34.338C147.981 33.4131 147.981 32.4882 147.981 31.5633V28.7887C147.056 29.7136 147.056 30.6385 145.207 30.6385C144.282 31.5633 142.432 31.5633 141.507 31.5633C140.582 31.5633 138.732 31.5633 136.883 30.6385C135.958 29.7136 135.033 28.7887 134.108 27.8638C133.183 25.0892 133.183 24.1643 133.183 22.3145C133.183 20.4647 133.183 19.5399 134.108 17.6901C135.033 15.8403 135.958 14.9154 137.808 13.9906C138.732 13.0657 140.582 13.0657 141.507 13.0657C142.432 13.0657 144.282 13.0657 145.207 13.9906C146.131 13.9906 147.056 14.9154 147.981 15.8403L148.906 14.9154H153.531V13.9906ZM147.981 24.1643V20.4647C147.981 19.5399 147.056 18.615 146.131 18.615C145.207 18.615 144.282 17.6901 143.357 17.6901C142.432 17.6901 140.582 18.615 139.657 18.615C138.732 19.5399 138.732 20.4647 138.732 22.3145C138.732 23.2394 138.732 25.0892 139.657 26.014C140.582 26.9389 141.507 27.8638 143.357 27.8638C145.207 26.9389 147.056 26.014 147.981 24.1643Z" fill="white"/>
<path d="M158.155 17.6901C159.08 15.8403 160.005 14.9154 160.93 13.9906C162.779 13.0657 163.704 13.0657 165.554 13.0657C167.404 13.0657 169.254 13.0657 170.178 13.9906C171.103 14.9154 172.953 15.8403 173.878 16.7652C174.803 18.615 174.803 19.5399 174.803 21.3896C174.803 23.2394 174.803 25.0892 173.878 26.014C172.953 27.8638 172.028 28.7887 170.178 29.7136C169.254 30.6385 167.404 30.6385 165.554 30.6385C163.704 30.6385 161.854 30.6385 160.93 29.7136C159.08 28.7887 158.155 27.8638 157.23 26.9389C156.305 25.0892 156.305 24.1643 156.305 22.3145C156.305 20.4647 157.23 18.615 158.155 17.6901ZM162.779 26.014C163.704 26.9389 164.629 26.9389 165.554 26.9389C166.479 26.9389 167.404 26.014 168.329 26.014C169.254 26.014 170.178 23.2394 170.178 22.3145C170.178 20.4647 170.178 19.5399 169.254 18.615C168.329 17.6901 167.404 17.6901 166.479 17.6901C165.554 17.6901 164.629 18.615 163.704 18.615C162.779 19.5399 162.779 20.4647 162.779 22.3145C161.854 23.2394 162.779 25.0892 162.779 26.014Z" fill="white"/>
<path d="M195.15 14.9154C196.075 15.8403 197 16.7652 197 18.615V31.5633H191.451V20.4647C191.451 18.615 190.526 17.6901 188.676 17.6901C187.751 17.6901 186.826 18.615 185.901 19.5399C184.977 20.4647 184.052 22.3145 184.052 24.1643V30.6385H179.427V13.9906H184.052V16.7652C184.977 15.8403 185.901 14.9154 186.826 13.9906C187.751 13.0657 189.601 13.0657 190.526 13.0657C192.376 13.0657 193.301 13.9906 195.15 14.9154Z" fill="white"/>
<path d="M37.9202 13.9898C36.9953 13.0649 36.0705 13.0649 35.1456 13.9898L27.7465 17.6893L23.1221 20.464L15.723 25.0884C14.7981 26.0133 13.8733 26.0133 12.9484 25.0884L6.47418 21.3889C5.5493 21.3889 5.5493 20.464 5.5493 18.6142V12.14C5.5493 11.2152 6.47419 10.2903 7.39907 9.36539L12.9484 6.59074C13.8733 5.66586 14.7981 5.66586 15.723 6.59074L21.2723 9.36539C22.1972 10.2903 23.1221 11.2152 23.1221 12.14V16.7645L27.7465 13.9898V9.36539C27.7465 8.44051 26.8216 7.51563 25.8967 6.59074L15.723 1.04144C14.7981 0.116557 13.8733 0.116557 12.9484 1.04144L1.84977 6.59074C0.924883 7.51563 0 8.44051 0 9.36539V21.3889C0 23.2386 0.924883 24.1635 1.84977 24.1635L12.9484 30.6377C13.8733 31.5626 14.7981 31.5626 15.723 30.6377L23.1221 26.9382L27.7465 24.1635L35.1456 20.464C36.0705 19.5391 36.9953 19.5391 37.9202 20.464L43.4695 23.2386C44.3944 23.2386 45.3193 24.1635 45.3193 25.0884V31.5626C45.3193 32.4875 44.3944 33.4124 43.4695 34.3373L37.9202 38.0368C36.9953 38.9617 36.0705 38.9617 35.1456 38.0368L29.5963 34.3373C28.6714 34.3373 27.7465 33.4124 27.7465 32.4875V27.8631L23.1221 30.6377V35.2621C23.1221 36.187 24.047 37.1119 24.9719 38.0368L36.0705 44.511C36.9953 45.4359 37.9202 45.4359 38.8451 44.511L49.9437 38.0368C49.9437 37.1119 50.8686 36.187 50.8686 35.2621V22.3138C50.8686 21.3889 49.9437 20.464 49.0188 19.5391L37.9202 13.9898Z" fill="white"/>
</g>
</svg>
