<svg width="126" height="58" viewBox="0 0 126 58" fill="none" xmlns="http://www.w3.org/2000/svg">
<g opacity="0.2">
<path d="M71.4315 38.2931C72.6602 38.2931 73.6355 38.7048 74.3575 39.5281C75.0795 40.3388 75.4405 41.4408 75.4405 42.8341V49.0471H71.7165V43.3281C71.7165 42.7201 71.5582 42.2451 71.2415 41.9031C70.9249 41.5485 70.5005 41.3711 69.9685 41.3711C69.4112 41.3711 68.9742 41.5485 68.6575 41.9031C68.3409 42.2451 68.1825 42.7201 68.1825 43.3281V49.0471H64.4585V38.3881H68.1825V39.9081C68.5119 39.4268 68.9552 39.0405 69.5125 38.7491C70.0699 38.4451 70.7095 38.2931 71.4315 38.2931ZM87.6679 43.5941C87.6679 43.8855 87.6489 44.1768 87.6109 44.4681H80.5619C80.5999 45.0508 80.7583 45.4878 81.0369 45.7791C81.3283 46.0578 81.6956 46.1971 82.1389 46.1971C82.7596 46.1971 83.2029 45.9185 83.4689 45.3611H87.4399C87.2753 46.0958 86.9523 46.7545 86.4709 47.3371C86.0023 47.9071 85.4069 48.3568 84.6849 48.6861C83.9629 49.0155 83.1649 49.1801 82.2909 49.1801C81.2396 49.1801 80.3023 48.9585 79.4789 48.5151C78.6683 48.0718 78.0286 47.4385 77.5599 46.6151C77.1039 45.7918 76.8759 44.8228 76.8759 43.7081C76.8759 42.5935 77.1039 41.6308 77.5599 40.8201C78.0159 39.9968 78.6493 39.3635 79.4599 38.9201C80.2833 38.4768 81.2269 38.2551 82.2909 38.2551C83.3423 38.2551 84.2733 38.4705 85.0839 38.9011C85.8946 39.3318 86.5279 39.9525 86.9839 40.7631C87.4399 41.5611 87.6679 42.5048 87.6679 43.5941ZM83.8679 42.6631C83.8679 42.2071 83.7159 41.8525 83.4119 41.5991C83.1079 41.3331 82.7279 41.2001 82.2719 41.2001C81.8159 41.2001 81.4423 41.3268 81.1509 41.5801C80.8596 41.8208 80.6696 42.1818 80.5809 42.6631H83.8679ZM104.943 38.3881L102.226 49.0471H98.0459L96.5639 42.5871L95.0249 49.0471H90.8639L88.1659 38.3881H91.8709L93.0679 45.4561L94.6449 38.3881H98.6349L100.269 45.4751L101.447 38.3881H104.943ZM110.543 49.1801C109.581 49.1801 108.719 49.0218 107.959 48.7051C107.212 48.3758 106.617 47.9325 106.173 47.3751C105.743 46.8051 105.502 46.1655 105.451 45.4561H109.061C109.112 45.7981 109.27 46.0641 109.536 46.2541C109.802 46.4441 110.132 46.5391 110.524 46.5391C110.828 46.5391 111.069 46.4758 111.246 46.3491C111.424 46.2225 111.512 46.0578 111.512 45.8551C111.512 45.5891 111.367 45.3928 111.075 45.2661C110.784 45.1395 110.303 45.0001 109.631 44.8481C108.871 44.6961 108.238 44.5251 107.731 44.3351C107.225 44.1451 106.781 43.8348 106.401 43.4041C106.034 42.9735 105.85 42.3908 105.85 41.6561C105.85 41.0228 106.021 40.4528 106.363 39.9461C106.705 39.4268 107.206 39.0151 107.864 38.7111C108.536 38.4071 109.34 38.2551 110.277 38.2551C111.671 38.2551 112.766 38.5971 113.564 39.2811C114.362 39.9651 114.825 40.8645 114.951 41.9791H111.588C111.525 41.6371 111.373 41.3775 111.132 41.2001C110.904 41.0101 110.594 40.9151 110.201 40.9151C109.897 40.9151 109.663 40.9721 109.498 41.0861C109.346 41.2001 109.27 41.3585 109.27 41.5611C109.27 41.8145 109.416 42.0108 109.707 42.1501C109.999 42.2768 110.467 42.4098 111.113 42.5491C111.886 42.7138 112.526 42.8975 113.032 43.1001C113.552 43.3028 114.001 43.6321 114.381 44.0881C114.774 44.5315 114.97 45.1395 114.97 45.9121C114.97 46.5328 114.787 47.0901 114.419 47.5841C114.065 48.0781 113.552 48.4708 112.88 48.7621C112.222 49.0408 111.443 49.1801 110.543 49.1801Z" fill="white"/>
<mask id="mask0_49_1390" style="mask-type:alpha" maskUnits="userSpaceOnUse" x="0" y="0" width="126" height="43">
<path d="M55.8821 31.0522L45.8652 34.5581L35.3475 42.0707H0.288574V0H126V34.5581H66.9006L55.8821 31.0522Z" fill="#C4C4C4"/>
</mask>
<g mask="url(#mask0_49_1390)">
<path fill-rule="evenodd" clip-rule="evenodd" d="M47.6781 18.0402V31.0621H54.0889V26.0537C54.0889 22.7682 54.0889 20.9551 54.139 20.7147C54.2012 20.2302 54.3687 19.7652 54.6298 19.3524C54.8465 19.0501 55.1431 18.8141 55.4863 18.6708C55.8295 18.5275 56.2058 18.4826 56.5731 18.5411C57.695 18.6012 58.3461 19.2623 58.5765 20.5444C58.5765 20.7347 58.5765 22.7081 58.5765 25.9936V31.0621H64.9872V25.052C64.9872 20.0436 64.9872 18.9517 64.9171 18.4509C64.8043 16.8676 64.1499 15.3715 63.064 14.2138C62.1602 13.3135 60.9766 12.7482 59.7084 12.6111C58.9302 12.5483 58.1474 12.5718 57.3744 12.6812C56.2745 12.9056 55.2665 13.4532 54.4796 14.2538L54.0288 14.7046V5.0083H47.6781V18.0402ZM115.793 5.20864C115.622 5.5993 109.111 21.3558 109.111 21.3858H116.694L120.08 13.2321C121.933 8.74458 123.456 5.05839 123.456 5.03835C123.456 5.01832 121.753 5.03835 119.669 5.03835H115.883L115.793 5.20864ZM33.6345 12.6111C32.3603 12.7666 31.1396 13.2158 30.0685 13.9233C28.9746 14.6851 28.0527 15.6681 27.3625 16.8086C26.6723 17.9492 26.2292 19.2219 26.0618 20.5444C25.8758 21.9279 25.9471 23.3338 26.2721 24.6914C26.5941 26.1505 27.28 27.5045 28.2661 28.6271C29.2521 29.7498 30.5062 30.6047 31.9116 31.1122C32.7426 31.4241 33.6301 31.5572 34.516 31.5029C35.0149 31.5313 35.5155 31.5044 36.0085 31.4227C37.1448 31.2166 38.1923 30.6719 39.0136 29.8601L39.4243 29.4494V31.0621H45.6047V13.0318H39.4142V14.6946L39.1238 14.3841C38.3022 13.5611 37.2574 12.997 36.1187 12.7613C35.6527 12.6537 35.1742 12.6099 34.6963 12.6311C34.1855 12.5911 33.7046 12.6011 33.6345 12.6111ZM74.5533 12.6612C72.7941 12.8866 71.1272 13.5782 69.7252 14.6645C68.443 15.7259 67.4612 17.1047 66.8777 18.6636C66.2942 20.2225 66.1294 21.907 66.3996 23.5495C66.6596 25.388 67.4677 27.1055 68.7185 28.4779C69.9693 29.8502 71.6048 30.8136 73.4114 31.2424C74.2594 31.4554 75.1316 31.5564 76.0058 31.5429C77.5814 31.5929 79.1446 31.2486 80.5534 30.5412C81.8985 29.8719 83.0587 28.8824 83.9319 27.6598C84.8052 26.4373 85.3649 25.0189 85.5618 23.5294C85.667 22.5875 85.667 21.6367 85.5618 20.6947C85.3466 19.1793 84.7732 17.737 83.889 16.4876C83.3809 15.836 82.8069 15.2385 82.1762 14.7046C80.7821 13.6178 79.1214 12.9258 77.3681 12.7012C76.4336 12.5928 75.4905 12.5793 74.5533 12.6612ZM94.9476 12.6612C93.2178 12.894 91.5818 13.5858 90.2097 14.6645C89.5764 15.1958 89.0022 15.7935 88.4968 16.4475C87.6098 17.6964 87.0329 19.1385 86.8139 20.6546C86.7038 21.5963 86.7038 22.5477 86.8139 23.4894C87.1658 25.7597 88.3314 27.8246 90.0933 29.299C91.8552 30.7734 94.0932 31.5567 96.3901 31.5029C98.0009 31.5348 99.5944 31.1665 101.028 30.4311C102.866 29.4692 104.335 27.9281 105.208 26.0465C106.081 24.1648 106.308 22.0478 105.856 20.0236C105.47 18.0858 104.474 16.3223 103.014 14.9906C101.554 13.6588 99.7073 12.8286 97.7423 12.6211C96.8118 12.5392 95.8754 12.5527 94.9476 12.6612ZM5.29688 13.0218C5.29688 13.0218 7.02979 17.1287 9.14334 22.1071C11.2569 27.0854 12.9798 31.2023 12.9798 31.2224C12.9798 31.2424 12.3588 32.7349 11.5975 34.5179L10.2252 37.7834C10.2252 37.7834 11.7577 37.7834 13.6209 37.7834H17.0266L22.1452 25.4527C24.98 18.6613 27.3339 13.0919 27.3339 13.0518C26.213 12.9876 25.0892 12.9876 23.9683 13.0518H20.5425L18.469 18.3107C17.3171 21.1655 16.3855 23.5495 16.3755 23.5495C16.3655 23.5495 15.4339 21.1755 14.302 18.2906L12.2986 13.0618H8.79275C6.87954 13.0017 5.29688 13.0118 5.29688 13.0218ZM36.7498 18.481C37.3891 18.6356 37.9741 18.9617 38.4418 19.4242C38.9095 19.8866 39.2423 20.4679 39.4042 21.1054C39.5344 21.7331 39.5344 22.3808 39.4042 23.0086C39.24 23.6417 38.9089 24.2191 38.4456 24.6807C37.9822 25.1423 37.4035 25.4712 36.7698 25.633C36.1431 25.7732 35.4932 25.7732 34.8666 25.633C34.3149 25.4896 33.8033 25.2219 33.371 24.8504C32.9386 24.4788 32.5971 24.0133 32.3724 23.4894C32.1467 22.92 32.0598 22.3049 32.119 21.6953C32.1783 21.0856 32.3819 20.4988 32.713 19.9835C33.1498 19.3432 33.7749 18.8546 34.5018 18.5853C35.2287 18.3161 36.0213 18.2797 36.7698 18.481H36.7498ZM76.6469 18.481C77.3313 18.602 77.9643 18.9237 78.4654 19.4053C78.9666 19.8868 79.3133 20.5065 79.4616 21.1855C79.5817 21.7805 79.5817 22.3935 79.4616 22.9885C79.3087 23.6011 78.9951 24.1617 78.5531 24.6125C78.1111 25.0633 77.5568 25.3879 76.9474 25.5528C76.3182 25.6679 75.6733 25.6679 75.0442 25.5528C74.5469 25.42 74.0848 25.1798 73.6902 24.8493C73.2957 24.5188 72.9783 24.1059 72.7603 23.6396C72.5129 23.1429 72.3957 22.5914 72.4198 22.0369C72.3999 21.5386 72.4923 21.0422 72.6902 20.5845C72.9638 19.9405 73.4156 19.388 73.9924 18.9918C74.798 18.5174 75.7503 18.3569 76.6669 18.5411L76.6469 18.481ZM97.0411 18.481C97.6215 18.5791 98.1672 18.8238 98.6265 19.1919C99.0858 19.56 99.4435 20.0394 99.6656 20.5845C99.8635 21.0422 99.9559 21.5386 99.936 22.0369C99.9601 22.5914 99.8429 23.1429 99.5954 23.6396C99.3818 24.1034 99.0694 24.5149 98.6801 24.8454C98.2908 25.1759 97.834 25.4173 97.3417 25.5528C96.7156 25.6656 96.0745 25.6656 95.4485 25.5528C94.8417 25.3882 94.2897 25.0647 93.8495 24.6157C93.4094 24.1667 93.0969 23.6085 92.9443 22.9986C92.804 22.3719 92.804 21.722 92.9443 21.0954C93.1336 20.3294 93.5758 19.6497 94.1992 19.1662C94.8227 18.6827 95.5911 18.4236 96.38 18.4309C96.6098 18.4486 96.8376 18.4855 97.0612 18.5411L97.0411 18.481ZM110.624 22.9485C109.729 23.0529 108.888 23.4344 108.22 24.0396C107.552 24.6448 107.09 25.4435 106.898 26.3241C106.778 26.9529 106.778 27.5986 106.898 28.2273C107.079 28.9893 107.474 29.6837 108.036 30.2286C108.599 30.7734 109.306 31.1461 110.073 31.3025C110.361 31.3495 110.653 31.3729 110.945 31.3726C111.866 31.3833 112.766 31.0945 113.51 30.5498C114.253 30.0051 114.8 29.2339 115.067 28.352C115.335 27.47 115.309 26.5251 114.994 25.6591C114.678 24.7931 114.091 24.0528 113.319 23.5495C112.512 23.0749 111.575 22.8713 110.644 22.9685L110.624 22.9485ZM57.8452 32.775C57.5508 32.8691 57.281 33.0276 57.0553 33.239C56.8297 33.4503 56.654 33.7092 56.5408 33.9969C56.4277 34.2846 56.3799 34.5939 56.4011 34.9023C56.4223 35.2107 56.5118 35.5105 56.6632 35.78C56.9114 36.1492 57.2585 36.4408 57.6649 36.6215C57.9325 36.7616 58.2374 36.8141 58.5364 36.7717C58.8354 36.8128 59.1398 36.7603 59.4079 36.6215C59.8359 36.3973 60.1854 36.0478 60.4095 35.6198C60.5329 35.3753 60.6048 35.1082 60.6208 34.8349C60.6368 34.5615 60.5967 34.2878 60.5028 34.0306C60.409 33.7734 60.2634 33.5382 60.075 33.3395C59.8867 33.1407 59.6596 32.9827 59.4079 32.8752C59.1628 32.7407 58.8859 32.675 58.6065 32.6848C58.3493 32.6656 58.0908 32.6962 57.8452 32.775ZM52.4862 32.8752C51.6834 33.0078 50.94 33.3817 50.3549 33.9471C49.7698 34.5125 49.3707 35.2427 49.2107 36.0405C49.1409 36.387 49.1007 36.7389 49.0905 37.0923V37.7534H47.6781V39.2759V40.7985H49.0504V48.0006H52.7667V40.8185H55.2909V39.2759V37.7534H52.7867V37.4228C52.7768 37.1187 52.8705 36.8202 53.0526 36.5763C53.2346 36.3324 53.494 36.1576 53.7884 36.0806C54.251 35.9621 54.7378 35.9795 55.1908 36.1306L55.4813 36.2208C55.4813 36.2208 55.4813 35.5196 55.4813 34.6682V33.1156L55.2208 33.0154C54.6963 32.8351 54.142 32.7569 53.5881 32.785C53.2191 32.7879 52.8508 32.818 52.4862 32.8752ZM67.7018 37.5731C66.9763 37.7031 66.324 38.0953 65.8687 38.6749L65.6584 38.9554V37.7534H61.892V48.0206H65.6584V45.2259C65.6584 43.6132 65.6584 42.301 65.6584 42.1407C65.7086 41.7623 65.8809 41.4106 66.1492 41.1391C66.4115 40.9417 66.7395 40.8525 67.0656 40.8898C67.3917 40.927 67.6911 41.088 67.9022 41.3394C68.1826 41.7501 68.1826 41.69 68.2027 44.9855V47.9906H71.959V44.655C71.959 41.079 71.959 40.6482 71.7486 39.9971C71.5961 39.4067 71.2843 38.8696 70.8471 38.4445C70.4918 38.0369 70.0308 37.7353 69.5149 37.5731C68.9155 37.4628 68.3011 37.4628 67.7018 37.5731ZM77.1978 37.5731C76.4835 37.6933 75.8015 37.9592 75.1944 38.3544C74.0715 39.2002 73.3152 40.444 73.0809 41.8302C72.9757 42.5845 72.9757 43.3498 73.0809 44.104C73.2206 44.9823 73.5636 45.8159 74.0825 46.5381C74.7482 47.4296 75.7175 48.0461 76.8071 48.2711C77.4978 48.3957 78.2067 48.3787 78.8906 48.221C79.4689 48.0641 79.9969 47.7605 80.4232 47.3395L80.8038 46.9889V47.9906H84.5201V37.7534H80.8038V38.8152L80.5534 38.5747C80.0118 38.0326 79.3087 37.681 78.5501 37.5731C78.1031 37.5015 77.6494 37.4813 77.1978 37.513V37.5731ZM91.7823 37.5731C91.0721 37.74 90.4356 38.1338 89.9693 38.695L89.809 38.9053V37.7534H86.0226V48.0206H89.829V45.1057C89.829 42.0205 89.829 41.9604 90.0494 41.5397C90.1466 41.357 90.2905 41.2032 90.4665 41.0941C90.6424 40.9851 90.8441 40.9245 91.0511 40.9187C91.2114 40.8978 91.3744 40.9161 91.5262 40.9719C91.678 41.0277 91.8139 41.1194 91.9225 41.2392C92.3232 41.6399 92.3132 41.4896 92.3232 44.9655V48.0206H96.0795V44.2944C96.0795 40.6082 96.0795 40.5581 95.9593 40.1674C95.8663 39.8694 95.7524 39.5782 95.6188 39.296C95.4819 38.9806 95.2806 38.6974 95.0278 38.4646C94.7111 38.1213 94.3158 37.8601 93.8758 37.7033C93.2004 37.4825 92.4799 37.4377 91.7823 37.5731ZM101.709 37.5731C100.652 37.7038 99.6607 38.1594 98.873 38.877C98.0854 39.5947 97.5399 40.539 97.3116 41.5798C97.1916 42.0233 97.1475 42.4839 97.1814 42.9421C97.138 43.5901 97.2231 44.2403 97.4318 44.8553C97.7177 45.7204 98.2297 46.4933 98.9149 47.0939C99.6 47.6945 100.433 48.1009 101.328 48.2711C101.752 48.3416 102.182 48.3684 102.611 48.3512C103.327 48.4003 104.045 48.2766 104.704 47.9906L105.075 47.8403V44.3144L104.764 44.4947C104.338 44.7531 103.85 44.8915 103.352 44.8954C102.893 44.9487 102.428 44.8613 102.02 44.645C101.616 44.4507 101.293 44.121 101.108 43.7134C100.984 43.4656 100.935 43.1871 100.968 42.912C100.945 42.6564 100.982 42.399 101.078 42.1608C101.245 41.7707 101.525 41.4398 101.882 41.2111C102.239 40.9825 102.657 40.8666 103.081 40.8786C103.791 40.8318 104.495 41.0221 105.085 41.4195C105.085 41.4195 105.085 40.6583 105.085 39.7167V37.9938L104.784 37.8736C103.8 37.5189 102.743 37.4156 101.709 37.5731ZM110.253 37.5731C108.885 37.7981 107.657 38.5425 106.825 39.651C105.993 40.7596 105.62 42.1467 105.786 43.5231C105.849 44.4515 106.149 45.3482 106.657 46.1274C107.031 46.6698 107.509 47.1331 108.062 47.4906C108.616 47.8481 109.234 48.0929 109.883 48.211C110.836 48.346 111.804 48.346 112.758 48.211C113.741 48.0099 114.648 47.5341 115.372 46.8386C115.679 46.5465 115.939 46.2086 116.143 45.837C116.143 45.837 115.412 45.5365 114.551 45.2059L112.968 44.5849L112.738 44.8253C112.504 45.0847 112.196 45.2664 111.856 45.3461C111.614 45.4255 111.359 45.4544 111.105 45.4311C110.852 45.4079 110.606 45.3329 110.382 45.2109C110.159 45.0889 109.963 44.9224 109.806 44.7217C109.65 44.521 109.536 44.2903 109.472 44.0439V43.8436H113.008H116.544V42.9922C116.561 42.5732 116.534 42.1535 116.464 41.7401C116.272 40.6915 115.769 39.7249 115.021 38.9654C114.314 38.2437 113.401 37.7575 112.407 37.5731C111.693 37.4727 110.968 37.4727 110.253 37.5731ZM56.6032 42.892V48.0206H60.3895V37.7534H56.6032V42.892ZM111.766 40.4078C112.015 40.4693 112.241 40.6015 112.417 40.7885C112.634 40.9771 112.784 41.2296 112.848 41.5097V41.7H111.175C109.242 41.7 109.392 41.7 109.562 41.2993C109.759 40.9087 110.091 40.603 110.496 40.439C110.902 40.275 111.353 40.2639 111.766 40.4078ZM79.4215 40.9187C79.6977 41.0017 79.9544 41.1394 80.1763 41.3235C80.3983 41.5076 80.581 41.7344 80.7137 41.9905C80.8488 42.2491 80.9258 42.5341 80.9393 42.8256C80.9528 43.1171 80.9024 43.408 80.7918 43.678C80.6811 43.948 80.5128 44.1906 80.2986 44.3887C80.0844 44.5869 79.8295 44.7359 79.5517 44.8253C79.1056 44.9456 78.6356 44.9456 78.1894 44.8253C77.8744 44.7206 77.5881 44.5439 77.3533 44.3091C77.1186 44.0744 76.9418 43.7881 76.8372 43.473C76.7652 43.2364 76.7414 42.9877 76.7671 42.7418C76.7558 42.4781 76.822 42.217 76.9574 41.9905C77.1786 41.5525 77.546 41.2056 77.996 41.0098C78.446 40.8141 78.9503 40.7819 79.4215 40.9187Z" fill="white"/>
</g>
</g>
</svg>
