<svg width="125" height="122" viewBox="0 0 125 122" fill="none" xmlns="http://www.w3.org/2000/svg">
<path d="M89.1116 2.01009C60.1494 0.713108 31.1432 0.614187 2.42274 1.80125C0.52124 33.874 -0.490013 66.3865 6.08282 97.7998C7.09402 102.669 8.34703 107.626 11.1608 111.693C13.6 115.116 17.0493 117.69 21.025 119.054C25.0007 120.418 29.3036 120.503 33.3304 119.299C55.6209 118.925 73.7677 116.738 96.5308 115.595C85.6603 78.1802 89.87 40.3589 89.1116 2.01009Z" fill="url(#paint0_linear_48_1250)"/>
<path d="M27.6148 121.047C29.5964 121.044 31.568 120.767 33.4733 120.222C46.9597 119.991 58.7534 119.123 71.3055 118.189C79.3292 117.584 87.6167 116.969 96.5857 116.518C96.729 116.513 96.8692 116.475 96.9951 116.406C97.121 116.337 97.2292 116.24 97.3111 116.122C97.3934 116.006 97.449 115.872 97.4737 115.732C97.4984 115.591 97.4917 115.447 97.454 115.309C89.3533 87.3031 89.6831 59.6598 90.0348 30.4008C90.1447 21.1021 90.2546 11.4847 90.0348 1.97716C90.0295 1.7348 89.9323 1.50351 89.763 1.33007C89.5936 1.15663 89.3647 1.05398 89.1226 1.04289C59.8636 -0.276069 30.6704 -0.342016 2.35671 0.83406C2.12292 0.844562 1.90131 0.941417 1.73483 1.10588C1.56833 1.27034 1.46885 1.49072 1.45547 1.72436C-0.391068 32.742 -1.62214 65.727 5.12656 97.9757C6.0938 102.603 7.32482 107.868 10.3475 112.209C12.3021 114.963 14.8926 117.205 17.8988 118.743C20.905 120.282 24.2379 121.072 27.6148 121.047ZM95.2887 114.683C86.7594 115.133 78.8017 115.716 71.1077 116.287C58.5776 117.222 46.7398 118.101 33.2534 118.321C33.1698 118.306 33.0842 118.306 33.0006 118.321C29.1659 119.457 25.0726 119.371 21.2889 118.075C17.5052 116.779 14.2188 114.337 11.8863 111.088C9.10545 107.066 7.88542 101.988 6.95116 97.547C0.356339 65.815 1.45551 33.2915 3.26908 2.65863C30.9673 1.55949 59.5008 1.55949 88.1223 2.85647C88.2872 12.0452 88.1223 21.3329 88.1223 30.3349C87.7926 58.0661 87.4409 86.7755 95.2887 114.683Z" fill="black"/>
<path d="M122.24 95.0301C94.2556 94.5245 66.2606 94.7334 38.7932 95.151C39.7605 102.428 38.3166 109.821 34.6824 116.199C33.5833 118.178 31.7917 120.244 29.6594 120.101C55.8079 119.86 81.3847 122.3 107.808 120.101C112.732 119.442 119.217 117.266 121.91 110.341C123.734 105.626 124.482 100.13 122.24 95.0301Z" fill="url(#paint1_linear_48_1250)"/>
<path d="M83.0113 121.959C91.2438 121.959 99.4983 121.728 107.885 121.057C115.414 120.046 120.558 116.463 122.789 110.682C124.372 106.615 125.702 100.537 123.108 94.6452C123.033 94.4789 122.913 94.3369 122.761 94.2358C122.61 94.1347 122.433 94.0785 122.25 94.0737C98.2452 93.645 72.5035 93.689 38.7161 94.2056C38.5821 94.2069 38.4499 94.237 38.3285 94.2939C38.2071 94.3508 38.0994 94.4331 38.0126 94.5353C37.9262 94.6379 37.862 94.7573 37.8241 94.8859C37.7863 95.0146 37.7756 95.1497 37.7927 95.2827C38.7499 102.351 37.3474 109.537 33.8029 115.727C33.0884 116.969 31.6816 119.024 30.0219 119.145H29.5932C29.3425 119.145 29.1021 119.245 28.9248 119.422C28.7475 119.599 28.648 119.84 28.648 120.09C28.648 120.341 28.7475 120.581 28.9248 120.759C29.1021 120.936 29.3425 121.035 29.5932 121.035C29.7907 121.052 29.9893 121.052 30.1868 121.035C39.6064 120.959 49.1029 121.233 58.3027 121.486C66.4143 121.728 74.6688 121.959 83.0113 121.959ZM121.602 95.9642C123.613 101.097 122.415 106.395 121.019 109.989C118.524 116.43 112.391 118.529 107.676 119.167C91.0679 120.508 74.438 120.046 58.3576 119.596C50.3009 119.365 42.0025 119.134 33.726 119.134C34.4124 118.385 35.0099 117.558 35.5066 116.672C39.0893 110.438 40.6269 103.238 39.9031 96.0851C72.7563 95.5905 98.0364 95.5465 121.602 95.9642Z" fill="black"/>
<path d="M96.2668 43.5354C96.7614 54.8345 96.8713 65.8039 96.5306 77.18C88.6718 77.18 80.659 78.0923 72.7563 76.9711C73.141 65.9798 73.4487 55.0873 73.5476 43.9091C69.6127 43.9091 65.6778 43.9091 61.699 43.8322C69.239 35.0391 76.7901 26.246 84.8797 17.354C92.7715 25.7294 100.359 34.4236 107.643 43.4365C103.84 43.4365 99.9489 43.5354 96.2668 43.5354Z" fill="#00591D"/>
<path d="M81.9452 78.4881C84.4732 78.4881 86.9902 78.4001 89.4742 78.3122C91.9583 78.2243 94.1896 78.1363 96.5307 78.1363C96.7768 78.1337 97.0124 78.0362 97.1884 77.8642C97.3645 77.6923 97.4675 77.459 97.476 77.2131C97.7947 66.4525 97.7288 55.7359 97.2561 44.4808C98.8059 44.4808 100.389 44.4808 101.982 44.4808H107.654C107.833 44.4816 108.009 44.4313 108.161 44.336C108.313 44.2406 108.434 44.104 108.511 43.9422C108.587 43.7791 108.616 43.598 108.595 43.4194C108.573 43.2408 108.503 43.0716 108.39 42.931C100.971 33.7972 93.2992 24.9931 85.5723 16.7936C85.483 16.6968 85.374 16.6202 85.2527 16.5691C85.1314 16.5179 85.0005 16.4932 84.8689 16.4968C84.7387 16.4988 84.6103 16.5272 84.4913 16.58C84.3723 16.6329 84.2652 16.7093 84.1765 16.8046C76.0868 25.7185 68.4148 34.6435 61.0067 43.2827C60.8874 43.4213 60.8089 43.5901 60.7798 43.7705C60.7507 43.951 60.7721 44.136 60.8418 44.3049C60.912 44.4709 61.0276 44.6136 61.1754 44.7167C61.3232 44.8197 61.4971 44.8789 61.6771 44.8875C65.3372 44.9534 69.0193 44.9534 72.5915 44.9534C72.4926 54.4609 72.2508 64.4081 71.8112 77.0372C71.8032 77.2716 71.8816 77.5008 72.0316 77.6812C72.1815 77.8616 72.3926 77.9805 72.6245 78.0154C75.7164 78.392 78.831 78.5499 81.9452 78.4881ZM95.6074 76.2898C93.5301 76.2898 91.4417 76.3887 89.3973 76.4656C84.1776 76.7896 78.9405 76.7014 73.7347 76.2019C74.1743 63.5398 74.4051 53.5597 74.4931 43.9752C74.4984 43.8486 74.4766 43.7223 74.4292 43.6048C74.3818 43.4873 74.3099 43.3812 74.2183 43.2937C74.0413 43.1137 73.8002 43.011 73.5478 43.008C70.3273 43.008 67.0409 43.008 63.7435 43.008C70.5471 35.0722 77.5486 26.9496 84.8909 18.827C91.9143 26.1912 98.8499 34.2149 105.665 42.4914H101.96C100.037 42.4914 98.1245 42.4914 96.2669 42.4914C96.139 42.4912 96.0124 42.517 95.8948 42.5673C95.7771 42.6175 95.6708 42.6911 95.5825 42.7836C95.4941 42.8761 95.4254 42.9855 95.3806 43.1053C95.3358 43.2251 95.3157 43.3528 95.3216 43.4806C95.8053 54.8237 95.9042 65.5183 95.5525 76.2348L95.6074 76.2898Z" fill="black"/>
<path d="M16.9642 24.9711C32.2752 24.5534 47.806 24.4985 63.128 24.7843C63.2538 24.7903 63.3795 24.7705 63.4974 24.7261C63.6153 24.6817 63.7228 24.6136 63.8134 24.5261C63.904 24.4386 63.9758 24.3335 64.0242 24.2172C64.0727 24.1009 64.0968 23.976 64.0952 23.85C64.0981 23.7259 64.0766 23.6024 64.0317 23.4866C63.9869 23.3708 63.9197 23.2649 63.834 23.1751C63.7482 23.0853 63.6456 23.0132 63.532 22.9631C63.4184 22.9129 63.296 22.8856 63.1719 22.8828C47.784 22.597 32.2752 22.6519 16.9312 23.0696C16.6967 23.0949 16.4799 23.2059 16.3222 23.3814C16.1646 23.5569 16.0774 23.7845 16.0774 24.0204C16.0774 24.2563 16.1646 24.4838 16.3222 24.6593C16.4799 24.8348 16.6967 24.9459 16.9312 24.9711H16.9642Z" fill="black"/>
<path d="M18.2614 42.1726L52.994 41.8649C53.2286 41.8396 53.4454 41.7286 53.603 41.5531C53.7607 41.3776 53.8479 41.15 53.8479 40.9141C53.8479 40.6782 53.7607 40.4507 53.603 40.2752C53.4454 40.0997 53.2286 39.9886 52.994 39.9634L18.2614 40.2711C18.0268 40.2964 17.8098 40.4074 17.6522 40.5829C17.4946 40.7584 17.4075 40.986 17.4075 41.2219C17.4075 41.4578 17.4946 41.6853 17.6522 41.8608C17.8098 42.0363 18.0268 42.1474 18.2614 42.1726Z" fill="black"/>
<path d="M64.0514 59.7809C64.2859 59.7557 64.5029 59.6446 64.6605 59.4691C64.8181 59.2936 64.9053 59.066 64.9053 58.8302C64.9053 58.5943 64.8181 58.3667 64.6605 58.1912C64.5029 58.0157 64.2859 57.9047 64.0514 57.8794C49.0922 57.3298 33.924 57.088 18.9868 57.176C18.7522 57.2012 18.5354 57.3123 18.3778 57.4878C18.2201 57.6633 18.1329 57.8908 18.1329 58.1267C18.1329 58.3626 18.2201 58.5902 18.3778 58.7657C18.5354 58.9412 18.7522 59.0522 18.9868 59.0775C33.946 58.9895 49.0812 59.2313 64.0514 59.7809Z" fill="black"/>
<path d="M64.5128 75.8831C64.7474 75.8579 64.9643 75.7468 65.1219 75.5713C65.2795 75.3958 65.3667 75.1683 65.3667 74.9324C65.3667 74.6965 65.2795 74.4689 65.1219 74.2934C64.9643 74.1179 64.7474 74.0069 64.5128 73.9816L18.8767 73.2122C18.6249 73.2093 18.3822 73.3057 18.2011 73.4806C18.02 73.6555 17.9152 73.8948 17.9094 74.1465C17.9065 74.2715 17.9285 74.3959 17.974 74.5124C18.0195 74.629 18.0877 74.7353 18.1746 74.8252C18.2615 74.9152 18.3653 74.987 18.4802 75.0366C18.5951 75.0861 18.7186 75.1123 18.8437 75.1137L64.4798 75.8831H64.5128Z" fill="black"/>
<path d="M117.48 104.582C117.538 104.596 117.598 104.596 117.656 104.582C117.726 104.535 117.774 104.462 117.79 104.38C117.807 104.297 117.79 104.212 117.744 104.142C116.504 102.17 115.068 100.329 113.457 98.6462C113.429 98.6166 113.396 98.5929 113.358 98.5763C113.321 98.5597 113.281 98.5507 113.24 98.5497C113.199 98.5486 113.158 98.5557 113.12 98.5704C113.082 98.585 113.047 98.6071 113.018 98.6352C112.988 98.6634 112.964 98.6971 112.948 98.7344C112.931 98.7717 112.922 98.8119 112.921 98.8528C112.92 98.8936 112.927 98.9342 112.942 98.9723C112.957 99.0104 112.979 99.0453 113.007 99.0749C114.58 100.734 115.99 102.542 117.216 104.472C117.249 104.509 117.29 104.539 117.335 104.558C117.381 104.577 117.431 104.585 117.48 104.582Z" fill="black"/>
<path d="M116.81 113.023C116.873 113.028 116.936 113.009 116.985 112.968C117.021 112.946 117.052 112.916 117.076 112.882C117.1 112.847 117.116 112.808 117.124 112.767C117.133 112.726 117.132 112.683 117.124 112.642C117.115 112.601 117.098 112.562 117.073 112.528C113.812 107.644 110.134 103.051 106.082 98.8C106.021 98.7429 105.94 98.7111 105.857 98.7111C105.773 98.7111 105.692 98.7429 105.631 98.8C105.572 98.8598 105.538 98.9409 105.538 99.0254C105.538 99.1099 105.572 99.1909 105.631 99.2507C109.643 103.474 113.28 108.038 116.502 112.891C116.535 112.94 116.582 112.979 116.636 113.002C116.691 113.026 116.751 113.033 116.81 113.023Z" fill="black"/>
<path d="M111.457 116.32C111.511 116.336 111.568 116.336 111.622 116.32C111.658 116.299 111.69 116.27 111.715 116.236C111.74 116.202 111.758 116.163 111.767 116.122C111.776 116.081 111.777 116.038 111.769 115.997C111.761 115.955 111.745 115.916 111.721 115.881C107.916 109.927 103.692 104.253 99.0806 98.8991C99.0208 98.8393 98.9398 98.8058 98.8553 98.8058C98.7708 98.8058 98.6897 98.8393 98.6299 98.8991C98.6007 98.9277 98.5774 98.9619 98.5616 98.9997C98.5457 99.0374 98.5376 99.078 98.5376 99.1189C98.5376 99.1599 98.5457 99.2004 98.5616 99.2381C98.5774 99.2759 98.6007 99.3101 98.6299 99.3387C103.221 104.674 107.43 110.327 111.226 116.254C111.258 116.281 111.295 116.3 111.334 116.312C111.374 116.323 111.416 116.326 111.457 116.32Z" fill="black"/>
<path d="M103.246 116.98C103.303 116.982 103.36 116.968 103.41 116.94C103.46 116.911 103.5 116.87 103.528 116.82C103.555 116.769 103.568 116.712 103.565 116.655C103.562 116.598 103.543 116.543 103.51 116.496C99.798 110.492 95.7618 104.695 91.4196 99.1298C91.3639 99.0805 91.2928 99.0522 91.2185 99.0498C91.1442 99.0475 91.0713 99.0712 91.0127 99.1168C90.954 99.1625 90.9131 99.2272 90.8971 99.2998C90.8811 99.3724 90.8909 99.4484 90.925 99.5145C95.2676 105.064 99.3038 110.847 103.015 116.837C103.041 116.876 103.075 116.909 103.115 116.934C103.155 116.959 103.2 116.974 103.246 116.98Z" fill="black"/>
<path d="M95.8272 117.65C95.8895 117.647 95.9501 117.628 96.003 117.595C96.0726 117.548 96.1209 117.476 96.1374 117.394C96.1538 117.311 96.1371 117.226 96.0909 117.156L83.9235 98.7341C83.9054 98.6913 83.8781 98.653 83.8435 98.6219C83.809 98.5907 83.7682 98.5675 83.7237 98.5538C83.6793 98.5402 83.6324 98.5364 83.5863 98.5428C83.5403 98.5492 83.4962 98.5656 83.4571 98.5908C83.4181 98.616 83.385 98.6495 83.3602 98.6888C83.3355 98.7282 83.3197 98.7724 83.3138 98.8186C83.308 98.8647 83.3123 98.9115 83.3265 98.9558C83.3407 99.0001 83.3644 99.0407 83.3959 99.0748L95.5524 117.507C95.5823 117.553 95.6232 117.589 95.6713 117.614C95.7193 117.639 95.773 117.652 95.8272 117.65Z" fill="black"/>
<path d="M87.4295 117.079C87.4928 117.082 87.5553 117.063 87.6054 117.024C87.6395 117.001 87.6689 116.973 87.6918 116.939C87.7147 116.905 87.7307 116.868 87.7389 116.828C87.747 116.788 87.7472 116.747 87.7394 116.707C87.7316 116.667 87.7159 116.629 87.6933 116.595C83.8243 110.66 79.9993 104.505 76.4931 98.4043C76.4516 98.3322 76.3836 98.2792 76.3035 98.2566C76.2234 98.234 76.1376 98.2436 76.0645 98.2834C76.0273 98.304 75.9946 98.3318 75.9684 98.3652C75.9421 98.3986 75.9227 98.4369 75.9115 98.4778C75.9002 98.5188 75.8972 98.5616 75.9027 98.6037C75.9083 98.6458 75.9221 98.6864 75.9435 98.7231C79.5047 104.867 83.2858 110.989 87.1657 116.936C87.1939 116.98 87.2329 117.017 87.279 117.042C87.3252 117.067 87.377 117.079 87.4295 117.079Z" fill="black"/>
<path d="M80.1646 117.222C80.2221 117.237 80.2829 117.237 80.3404 117.222C80.41 117.175 80.4583 117.102 80.4748 117.02C80.4912 116.937 80.4745 116.852 80.4283 116.782C76.4715 110.923 72.5805 104.889 68.8654 98.8549C68.8439 98.8187 68.8155 98.7871 68.7817 98.7619C68.7479 98.7367 68.7095 98.7185 68.6686 98.7082C68.6277 98.698 68.5851 98.696 68.5435 98.7023C68.5018 98.7086 68.4618 98.7232 68.4258 98.745C68.3893 98.7663 68.3575 98.7949 68.3326 98.8291C68.3076 98.8632 68.2899 98.9021 68.2806 98.9433C68.2713 98.9846 68.2707 99.0273 68.2786 99.0688C68.2866 99.1103 68.303 99.1498 68.3268 99.1847C72.0529 105.23 75.9439 111.275 79.9008 117.134C79.9348 117.168 79.9763 117.194 80.0221 117.209C80.068 117.224 80.1168 117.229 80.1646 117.222Z" fill="black"/>
<path d="M71.8001 116.98C71.8578 116.994 71.9182 116.994 71.9759 116.98C72.0455 116.933 72.0938 116.86 72.1103 116.778C72.1267 116.696 72.11 116.61 72.0638 116.54C68.2279 110.858 64.5568 104.955 61.1604 98.954C61.1135 98.8942 61.0467 98.8531 60.9722 98.8382C60.8977 98.8233 60.8202 98.8355 60.7539 98.8727C60.6876 98.9098 60.6367 98.9694 60.6105 99.0408C60.5842 99.1121 60.5844 99.1905 60.6109 99.2618C64.0182 105.241 67.7003 111.154 71.5363 116.848C71.5676 116.888 71.6075 116.921 71.6531 116.944C71.6988 116.967 71.749 116.979 71.8001 116.98Z" fill="black"/>
<path d="M63.8422 116.441C63.8967 116.451 63.9525 116.451 64.007 116.441C64.0429 116.421 64.0744 116.393 64.0994 116.36C64.1245 116.328 64.1427 116.29 64.153 116.25C64.1632 116.21 64.1653 116.169 64.1591 116.128C64.153 116.087 64.1386 116.048 64.117 116.013L54.3347 98.7781C54.3141 98.7409 54.2863 98.7082 54.253 98.6819C54.2196 98.6557 54.1813 98.6363 54.1403 98.6251C54.0994 98.6138 54.0565 98.6108 54.0144 98.6163C53.9723 98.6219 53.9317 98.6357 53.895 98.6571C53.8591 98.6776 53.8277 98.705 53.8027 98.7378C53.7776 98.7707 53.7594 98.8082 53.7491 98.8482C53.7389 98.8882 53.7368 98.9298 53.743 98.9707C53.7491 99.0115 53.7635 99.0507 53.7851 99.0858L63.5674 116.32C63.601 116.36 63.6431 116.392 63.6907 116.413C63.7384 116.434 63.7902 116.443 63.8422 116.441Z" fill="black"/>
<path d="M57.0168 117.167C57.0671 117.181 57.1205 117.181 57.1707 117.167C57.2075 117.147 57.24 117.12 57.2661 117.088C57.2923 117.056 57.3117 117.018 57.323 116.978C57.3343 116.938 57.3373 116.896 57.3319 116.855C57.3265 116.814 57.3128 116.774 57.2916 116.738C53.7414 110.484 49.9604 104.241 46.0475 98.2066C46.0008 98.1351 45.9277 98.0852 45.8442 98.0676C45.7607 98.0501 45.6737 98.0665 45.6023 98.1131C45.5309 98.1598 45.481 98.2329 45.4634 98.3164C45.4459 98.3999 45.4622 98.4869 45.5089 98.5583C49.4218 104.582 53.2028 110.803 56.7421 117.046C56.773 117.089 56.8147 117.122 56.863 117.144C56.9113 117.165 56.9644 117.173 57.0168 117.167Z" fill="black"/>
<path d="M48.6632 115.881C48.7133 115.897 48.767 115.897 48.8171 115.881C48.8533 115.862 48.8856 115.837 48.9119 115.805C48.9382 115.774 48.958 115.738 48.9703 115.699C48.9826 115.661 48.987 115.62 48.9834 115.579C48.9797 115.539 48.968 115.499 48.949 115.463C47.1314 112.021 45.067 108.715 42.7718 105.571C42.7468 105.537 42.7153 105.508 42.679 105.486C42.6427 105.464 42.6023 105.449 42.5604 105.443C42.5184 105.437 42.4757 105.439 42.4346 105.45C42.3935 105.461 42.355 105.479 42.3212 105.505C42.2574 105.557 42.2152 105.631 42.203 105.712C42.1908 105.793 42.2094 105.876 42.2553 105.945C44.5336 109.064 46.5834 112.345 48.3885 115.76C48.4201 115.802 48.462 115.835 48.5101 115.856C48.5582 115.877 48.6109 115.886 48.6632 115.881Z" fill="black"/>
<path d="M42.5521 117.2C42.6154 117.203 42.6778 117.184 42.7279 117.145C42.7975 117.098 42.8457 117.025 42.8622 116.943C42.8787 116.861 42.862 116.775 42.8159 116.705L40.7385 113.616C40.6898 113.549 40.6174 113.503 40.5359 113.486C40.4543 113.47 40.3697 113.485 40.2988 113.529C40.231 113.577 40.1849 113.65 40.1705 113.733C40.1561 113.815 40.1746 113.899 40.2219 113.968L42.2882 117.057C42.3163 117.101 42.3554 117.137 42.4015 117.163C42.4477 117.188 42.4996 117.2 42.5521 117.2Z" fill="black"/>
<g opacity="0.13">
<path opacity="0.13" d="M32.1213 117.123C32.8851 116.587 33.7074 116.141 34.5724 115.793C34.7043 115.419 34.902 115.067 35.0559 114.693V114.825C35.4847 113.819 35.8518 112.788 36.155 111.737C36.2869 111.374 36.7486 109.539 36.8475 109.341C36.8433 109.103 36.8869 108.866 36.9756 108.645C37.0644 108.424 37.1965 108.224 37.3642 108.055C37.6911 107.733 38.1312 107.553 38.5897 107.553C39.0482 107.553 39.4884 107.733 39.8153 108.055C40.1475 108.448 40.3576 108.929 40.4197 109.44C40.4467 109.504 40.4688 109.57 40.4857 109.637C40.5736 109.78 40.7605 110.132 40.9363 110.407L41.2441 110.814C42.2004 111.814 41.4529 111.187 42.7939 112.089C43.1766 112.331 43.5771 112.544 43.992 112.726L44.1678 112.792C45.2669 113.166 45.9264 113.375 46.4759 113.495C48.8391 113.495 51.5869 113.638 53.7522 113.77C58.6324 113.77 63.4796 114.287 68.3598 114.353C73.2619 114.682 78.1641 114.792 83.0662 114.99C87.8991 115.406 92.7566 115.454 97.5968 115.133C102.081 114.639 106.049 114.199 110.655 113.408C111.937 113.152 113.195 112.784 114.414 112.308C114.757 112.067 115.144 111.897 115.553 111.806C115.963 111.716 116.386 111.707 116.799 111.781C117.225 111.908 117.606 112.157 117.895 112.495C118.183 112.834 118.368 113.25 118.426 113.691C118.484 114.133 118.413 114.581 118.222 114.984C118.031 115.386 117.727 115.724 117.348 115.957C114.598 117.318 111.677 118.305 108.665 118.892C108.269 119.002 106.049 119.31 105.291 119.42C105.027 119.42 104.73 119.497 104.543 119.508C100.649 120.17 96.7103 120.538 92.7606 120.607C89.0675 120.662 85.3744 120.244 81.6813 120.079C74.3611 119.739 67.0188 119.508 59.6986 118.826C59.6272 119.089 59.4868 119.328 59.2919 119.519C58.3686 120.354 56.9947 119.936 55.8516 120.046L56.3352 119.991C53.7676 120.082 51.1967 119.994 48.6413 119.728C45.7176 119.473 42.7814 119.393 39.8481 119.486C39.3315 119.486 38.815 119.486 38.2984 119.596C38.0824 119.857 37.8021 120.058 37.4851 120.178C37.1557 120.336 36.7882 120.395 36.4259 120.351C36.0637 120.306 35.7218 120.158 35.4407 119.925L34.6272 120.013H34.3855C32.3521 120.717 30.7034 118.738 32.1213 117.123Z" fill="black"/>
</g>
<g opacity="0.13">
<path opacity="0.13" d="M14.7658 114.43C14.8398 114.176 14.9589 113.938 15.1175 113.726C15.3454 113.38 15.6149 113.062 15.92 112.781C16.4441 112.182 17.0057 111.617 17.6016 111.088C20.3824 108.341 23.471 105.945 26.3947 103.395C29.791 100.504 32.9895 97.4372 36.5727 94.7223C38.7709 92.656 41.4749 95.6676 39.1007 97.4372L38.9358 97.5581C39.2932 97.933 39.5162 98.4157 39.5699 98.9309C39.6236 99.446 39.505 99.9644 39.2326 100.405C39.1667 100.515 39.1007 100.625 39.0237 100.735C39.1077 100.934 39.174 101.14 39.2216 101.35C39.4073 103.034 39.1574 104.737 38.4962 106.296C38.5838 107.106 38.5279 107.924 38.3313 108.714C37.9393 110.706 37.1055 112.584 35.8912 114.21C33.6929 117.409 27.0212 123.805 23.5259 119.167C23.3411 118.854 23.2251 118.506 23.1853 118.145C22.8138 118.456 22.3631 118.657 21.8838 118.727C21.4045 118.797 20.9151 118.732 20.4703 118.541C20.0666 118.38 19.7107 118.119 19.4357 117.782C19.1607 117.446 18.9759 117.045 18.8986 116.617L18.4699 116.958L18.316 117.046C18.1205 117.158 17.9143 117.25 17.7006 117.321C17.2967 117.448 16.8655 117.464 16.4536 117.365C16.0417 117.266 15.6646 117.056 15.3628 116.759C15.061 116.462 14.8458 116.088 14.7406 115.677C14.6355 115.267 14.6442 114.836 14.7658 114.43Z" fill="black"/>
</g>
<g opacity="0.13">
<path opacity="0.13" d="M18.481 116.881L18.9207 116.54C18.784 116.666 18.6369 116.78 18.481 116.881Z" fill="black"/>
</g>
<g opacity="0.13">
<path opacity="0.13" d="M57.4013 42.964C57.7785 41.7827 58.4215 40.7035 59.2809 39.8095C60.38 38.6444 61.4022 37.4574 62.4903 36.3143C67.0408 31.6319 71.7781 27.1475 76.2625 22.3992C77.8013 20.6736 79.2961 18.9039 80.9009 17.2552C81.4724 16.7606 81.8901 16.0242 82.6045 15.7384C82.9979 15.5738 83.4378 15.5577 83.8422 15.6931C84.2466 15.8286 84.588 16.1064 84.8028 16.4749C84.9704 16.7536 85.059 17.0728 85.059 17.3981C85.059 17.7234 84.9704 18.0426 84.8028 18.3214C84.7467 18.4066 84.6842 18.4874 84.6159 18.5632L84.3082 18.9589L84.2093 19.0908C79.2741 25.2679 73.4927 30.6537 68.1399 36.4462C66.1395 38.6444 62.6442 42.4145 61.5451 43.5795C61.5036 43.6311 61.4668 43.6863 61.4352 43.7444L61.3802 43.8433L61.666 43.9203C64.2584 43.7112 66.862 43.6781 69.4589 43.8214H69.8876C70.3238 43.6846 70.794 43.704 71.2175 43.8763C71.8566 43.878 72.4833 44.0527 73.0311 44.3819C73.4725 44.5593 73.8308 44.8966 74.0345 45.3264C74.2382 45.7563 74.2724 46.2471 74.1302 46.7011C73.7015 50.7569 72.8332 59.8248 72.7013 65.8371C72.401 69.0446 72.3202 72.2689 72.4595 75.4875C72.4595 75.8282 72.4595 76.1579 72.4595 76.4987C72.4701 76.5863 72.4701 76.6749 72.4595 76.7625C74.9931 77.2656 77.5704 77.516 80.1535 77.5099C82.5156 77.2646 84.8935 77.2058 87.2649 77.334C87.7436 77.3 88.2228 77.3904 88.6562 77.5965C89.0896 77.8026 89.4622 78.1173 89.738 78.5101C89.9417 78.8841 90.0324 79.3092 89.9991 79.7339C89.9658 80.1585 89.8099 80.5643 89.5502 80.9019C89.2906 81.2395 88.9385 81.4945 88.5366 81.6357C88.1348 81.777 87.7006 81.7985 87.2868 81.6976H86.9791C85.7904 81.5986 84.5956 81.5986 83.4069 81.6976C81.5837 81.9172 79.7473 82.0091 77.9112 81.9724C76.2625 81.9064 74.6138 81.6976 72.9761 81.4668C72.2849 81.3888 71.5986 81.2714 70.9208 81.115C70.2237 81.1559 69.5279 81.0165 68.9003 80.7104C68.2728 80.4043 67.7346 79.9418 67.3376 79.3674C67.1656 79.2524 67.0196 79.1026 66.9089 78.9278C66.6917 77.943 66.6397 76.929 66.755 75.9271C66.755 74.828 66.755 73.7289 66.9309 72.6297C66.9469 72.22 67.0519 71.8187 67.2386 71.4536C67.2386 71.2668 67.2386 71.0799 67.2386 70.9041C67.4255 63.6498 68.0849 56.4065 68.3377 49.1522C68.3377 48.7785 68.3377 48.3938 68.3377 48.053C67.0627 48.053 65.7878 48.053 64.5018 48.053C64.3778 48.0698 64.252 48.0698 64.128 48.053H63.3806C62.5252 48.1173 61.6652 48.0767 60.8197 47.9321C60.6499 47.8883 60.4844 47.8294 60.3251 47.7563C59.5301 47.5927 58.7958 47.2123 58.2037 46.6571C57.7936 46.2181 57.4956 45.6864 57.3354 45.1073C57.17 44.3994 57.1927 43.6605 57.4013 42.964Z" fill="black"/>
</g>
<g opacity="0.13">
<path opacity="0.13" d="M84.2863 19.0027L84.55 18.662L84.2863 19.0027Z" fill="black"/>
</g>
<defs>
<linearGradient id="paint0_linear_48_1250" x1="0.993762" y1="8.175" x2="119.36" y2="19.5467" gradientUnits="userSpaceOnUse">
<stop stop-color="#ECFFAB"/>
<stop offset="1" stop-color="#49CE53"/>
</linearGradient>
<linearGradient id="paint1_linear_48_1250" x1="29.6594" y1="96.3232" x2="128.943" y2="138.845" gradientUnits="userSpaceOnUse">
<stop stop-color="#ECFFAB"/>
<stop offset="1" stop-color="#49CE53"/>
</linearGradient>
</defs>
</svg>
