<svg width="149" height="21" viewBox="0 0 149 21" fill="none" xmlns="http://www.w3.org/2000/svg">
<g opacity="0.2">
<path d="M22.1401 19.996H36.2775V16.2677H26.4126V11.695H34.5917V7.96359H26.4126V3.75365H36.3369V0.0253906H22.1401V19.996Z" fill="white"/>
<path d="M53.2988 12.5958L44.0376 0.0253906H37.6602L39.6463 2.5526V20.0585H43.9156V6.94395L53.4803 19.996H57.5713V0.0253906H53.2988V12.5958Z" fill="white"/>
<path d="M15.7032 9.72138C17.5799 9.36169 19.1437 7.61641 19.1437 5.15175C19.1312 2.49005 17.2077 0.0253906 13.3574 0.0253906H0.965332L2.88889 2.49005V20.0054H13.7891C17.6424 20.0054 19.6254 17.6001 19.6254 14.5913C19.5535 12.1172 17.8551 10.0123 15.7032 9.72138ZM7.16138 3.77868H12.5161C13.9611 3.77868 14.8619 4.62316 14.8619 5.88364C14.8619 7.14412 13.9611 7.98861 12.5161 7.98861H7.16138V3.77868ZM12.6943 16.2896H7.16138V11.695H12.6943C14.3208 11.695 15.2216 12.7177 15.2216 13.9814C15.2216 15.4232 14.2582 16.2677 12.6943 16.2677V16.2896Z" fill="white"/>
<path d="M120.073 12.5958H122.3V14.9447C121.148 15.8983 119.704 16.4282 118.209 16.446C114.659 16.446 112.135 13.7405 112.135 10.0717C112.135 6.40285 114.659 3.69423 118.209 3.69423C119.121 3.70178 120.017 3.93686 120.815 4.37815C121.614 4.81945 122.29 5.45301 122.781 6.22144L126.15 4.3448C124.708 2.07093 122.178 0.0253906 118.149 0.0253906C112.494 0.0253906 107.803 3.93506 107.803 10.0123C107.803 16.0894 112.435 19.996 118.149 19.996C119.693 20.0216 121.223 19.7122 122.635 19.089C124.047 18.4659 125.307 17.5439 126.328 16.3866V8.98949H117.186L120.073 12.5958Z" fill="white"/>
<path d="M100.825 12.5958L91.5606 0.0253906H85.1831L87.1692 2.5526V20.0585H91.4417V6.94395L101.006 19.996H105.094V0.0253906H100.825V12.5958Z" fill="white"/>
<path d="M140.462 0.0253906H132.224L134.207 2.5526L133.847 3.51282L127.47 20.0585H132.283L133.534 16.6868H142.151L143.402 20.0585H148.213L140.462 0.0253906ZM134.632 12.8992L137.76 4.29475L140.888 12.8992H134.632Z" fill="white"/>
<path d="M82.7183 0.0253906H78.4458V20.0585H82.7183V0.0253906Z" fill="white"/>
<path d="M75.0179 3.45339V0.0253906H59.9766V3.75365H69.4223L59.9766 16.568V19.996H75.1993V16.2677H65.5127L75.0179 3.45339Z" fill="white"/>
</g>
</svg>
