<svg width="24" height="25" viewBox="0 0 24 25" fill="none" xmlns="http://www.w3.org/2000/svg">
<path d="M0.321342 0.323661C0.725872 -0.0808688 1.38173 -0.0808688 1.78626 0.323661L23.6967 22.234C24.1012 22.6385 24.1012 23.2944 23.6967 23.6989C23.2922 24.1035 22.6363 24.1035 22.2318 23.6989L0.321342 1.78857C-0.0831882 1.38405 -0.0831882 0.728181 0.321342 0.323661Z" fill="white"/>
<path d="M23.6787 0.30339C23.2742 -0.10113 22.6183 -0.10113 22.2138 0.30339L0.30339 22.2138C-0.10113 22.6183 -0.10113 23.2742 0.30339 23.6787C0.70792 24.0832 1.36379 24.0832 1.76831 23.6787L23.6787 1.76831C24.0832 1.36379 24.0832 0.70792 23.6787 0.30339Z" fill="white"/>
</svg>
