<svg width="217" height="49" viewBox="0 0 217 49" fill="none" xmlns="http://www.w3.org/2000/svg">
<g opacity="0.29">
<path d="M50.8083 20.4218C48.8002 20.3839 46.7921 20.8386 44.9735 21.7479C43.1548 22.6572 41.6014 23.9833 40.4269 25.5746C37.661 28.9846 36.1834 33.2281 36.2592 37.6231C36.1076 40.4269 37.0548 43.1927 38.8735 45.3524C39.7449 46.3375 40.8058 47.0952 42.0182 47.5878C43.2306 48.0803 44.5188 48.3455 45.807 48.2698C47.7393 48.2698 49.6338 47.8151 51.3766 46.9816C53.1195 46.148 54.5971 44.8977 55.7717 43.3822C58.727 39.8585 60.3183 35.3877 60.2804 30.8032C60.394 28.1132 59.6363 25.461 58.0829 23.2256C56.4915 21.4069 54.0667 20.4218 50.8083 20.4218ZM50.9598 41.071C50.3157 41.7151 49.5201 42.2455 48.6865 42.6244C47.8151 43.0033 46.9058 43.1927 45.9965 43.1927C45.3903 43.2306 44.7462 43.117 44.1778 42.8517C43.6095 42.5865 43.1169 42.2076 42.7381 41.7151C41.8666 40.5405 41.4499 39.1008 41.5635 37.661C41.4499 34.5542 42.3213 31.5231 44.102 28.9467C44.784 27.8479 45.7312 26.9765 46.8679 26.3703C48.0046 25.7641 49.2549 25.461 50.5431 25.461C53.4605 25.461 54.9381 27.2417 54.9381 30.8411C54.976 34.63 53.5741 38.3051 50.9598 41.071ZM209.068 33.266C208.462 33.0765 207.818 33.0765 207.249 33.3418C206.681 33.607 206.226 34.0616 205.961 34.63C203.688 40.3132 200.884 43.1548 197.474 43.1548C195.693 43.1548 194.784 41.6014 194.784 38.684C195.011 35.3877 195.504 32.0914 196.224 28.833L196.944 25.4231H203.953C204.521 25.4231 205.09 25.2336 205.544 24.8548C205.999 24.4759 206.302 23.9454 206.378 23.3771C206.454 22.9982 206.454 22.6572 206.34 22.2783C206.264 21.9374 206.075 21.5964 205.847 21.2933C205.62 20.9902 205.317 20.7628 204.976 20.6113C204.635 20.4597 204.294 20.3461 203.915 20.3461H198.08L199.255 14.6628C199.331 14.2839 199.331 13.905 199.255 13.5261C199.179 13.1473 198.99 12.8063 198.762 12.5032C198.535 12.2001 198.232 11.9348 197.853 11.7833C197.512 11.5938 197.133 11.5181 196.716 11.5181C196.11 11.5181 195.542 11.7075 195.087 12.0864C194.632 12.4653 194.291 12.9957 194.178 13.564L192.662 20.3082H176.295C174.249 20.3082 172.278 20.7628 170.46 21.6721C168.641 22.5815 167.088 23.9076 165.913 25.5746C163.147 28.9846 161.67 33.2281 161.745 37.6231C161.745 38.7977 161.897 39.9722 162.162 41.1089C161.632 41.7151 160.988 42.2076 160.268 42.5865C159.548 42.9275 158.752 43.1169 157.919 43.1548C157.502 43.1927 157.085 43.1169 156.706 42.9654C156.327 42.8138 155.986 42.5486 155.721 42.2455C155.229 41.3741 155.001 40.3511 155.077 39.3281C155.191 36.4107 155.57 33.4933 156.252 30.6138L160.495 10.9497C160.571 10.6087 160.571 10.2677 160.533 9.92675C160.495 9.58576 160.344 9.28265 160.192 8.97954C160.04 8.67644 159.775 8.4491 159.51 8.25966C159.245 8.07022 158.904 7.91867 158.601 7.84289C158.26 7.76712 157.919 7.76712 157.578 7.805C157.237 7.84289 156.934 7.99444 156.63 8.146C156.327 8.33544 156.1 8.56276 155.911 8.82798C155.721 9.0932 155.57 9.43421 155.494 9.73731L153.031 21.7479C151.288 20.7249 149.318 20.1945 147.31 20.1945C145.302 20.1566 143.294 20.5734 141.437 21.4448C139.619 22.2784 137.989 23.5287 136.701 25.0821C133.822 28.5678 132.344 32.9629 132.458 37.4337C132.42 38.8734 132.609 40.2753 133.026 41.6393C132.041 42.5107 130.753 43.0033 129.427 43.0412C129.01 43.0791 128.555 43.0033 128.138 42.8517C127.722 42.7002 127.381 42.435 127.078 42.1319C126.509 41.2604 126.244 40.2374 126.358 39.2144C126.433 37.2443 126.737 35.3119 127.191 33.3796C127.267 33.0008 127.267 32.6598 127.191 32.2809C127.115 31.902 126.964 31.561 126.737 31.2958C126.509 30.9927 126.244 30.7653 125.903 30.5759C125.6 30.3865 125.221 30.2728 124.842 30.2349C124.198 30.1591 123.554 30.3107 123.023 30.6517C122.493 31.0306 122.114 31.561 121.963 32.1672C121.281 34.9709 120.068 37.5852 118.363 39.8964C117.757 40.8058 116.961 41.5635 116.052 42.094C115.105 42.6244 114.082 42.9654 112.983 43.0412C112.415 43.0412 111.884 42.8896 111.392 42.5865C110.899 42.2834 110.52 41.9045 110.217 41.412C109.459 40.1238 109.081 38.6082 109.156 37.0927C109.005 34.0616 109.876 31.0306 111.695 28.5678C112.453 27.5069 113.438 26.5976 114.612 26.0293C115.787 25.4231 117.075 25.12 118.401 25.1579C119.765 25.1579 121.091 25.461 122.341 25.9535C122.72 26.143 123.137 26.2187 123.516 26.1809C123.933 26.143 124.312 26.0293 124.653 25.802C125.069 25.5746 125.373 25.2336 125.6 24.8169C125.827 24.4001 125.903 23.9454 125.865 23.4908C125.827 23.0361 125.676 22.5815 125.41 22.2026C125.145 21.8237 124.766 21.5206 124.35 21.369C123.705 21.1038 123.023 20.8765 122.304 20.7249C121.053 20.3839 119.765 20.1945 118.477 20.1566C116.469 20.1566 114.499 20.5734 112.68 21.4448C110.861 22.2784 109.27 23.5287 107.982 25.0442C106.428 26.7871 105.292 28.833 104.648 31.0685C102.109 39.1008 98.8507 43.0033 94.9482 43.0033C94.3799 43.0412 93.8116 42.9654 93.319 42.7381C92.7886 42.5107 92.3718 42.1697 92.0308 41.7151C91.3867 40.8058 91.0836 39.6691 91.1215 38.5325C91.0836 38.1915 91.1215 37.8126 91.1973 37.4716C93.5464 36.5623 95.6302 35.0088 97.1836 33.0008C98.6613 31.1063 99.4948 28.7573 99.5327 26.3324C99.5327 22.2784 97.3352 20.2324 92.8265 20.2324C91.273 20.2324 89.7575 20.5355 88.3178 21.1038C86.878 21.6721 85.5898 22.5436 84.491 23.6423L87.2569 10.8361C87.3327 10.4572 87.3327 10.0783 87.219 9.69942C87.1432 9.32054 86.9538 8.97954 86.7264 8.67643C86.4991 8.37332 86.196 8.146 85.8171 7.99444C85.4761 7.84289 85.0973 7.72922 84.7184 7.72922C84.1122 7.72922 83.5438 7.91866 83.0892 8.29755C82.6345 8.67643 82.2935 9.20687 82.1798 9.77519L74.6022 45.0871C74.5264 45.466 74.5264 45.8449 74.6022 46.2238C74.6779 46.6027 74.8674 46.9437 75.0947 47.2468C75.3221 47.5499 75.6252 47.7772 76.004 47.9288C76.345 48.0803 76.7239 48.194 77.1028 48.194C77.6711 48.194 78.2395 47.9667 78.6941 47.5878C79.1488 47.2089 79.414 46.6785 79.5277 46.1101L81.8767 35.2741C82.2935 33.8343 82.8239 32.4324 83.5059 31.1063C84.3774 29.5908 85.5519 28.2647 86.9538 27.2038C88.3935 25.9535 90.2122 25.3094 92.1066 25.3473C92.3718 25.3094 92.637 25.3473 92.9023 25.4231C93.1675 25.4989 93.3948 25.6504 93.5842 25.8399C93.7737 26.0293 93.9252 26.2566 94.001 26.5218C94.0768 26.7871 94.1147 27.0523 94.0768 27.3175C94.001 28.1889 93.7737 28.9846 93.319 29.7424C92.9023 30.5001 92.296 31.1442 91.6141 31.6368C90.1364 32.9629 88.2799 33.8343 86.3097 34.1753C86.1581 35.7287 86.0824 36.8654 86.0824 37.5095C85.9687 40.3132 86.7643 43.0791 88.3557 45.3902C89.1134 46.3753 90.1364 47.1331 91.273 47.6257C92.4097 48.1182 93.66 48.3455 94.9103 48.2319C96.6153 48.2319 98.3203 47.8151 99.8737 47.0573C101.427 46.2996 102.753 45.2008 103.814 43.8368L104.799 42.6623C105.178 43.6095 105.709 44.4809 106.353 45.2766C107.148 46.2238 108.133 47.0194 109.27 47.512C110.407 48.0045 111.657 48.2698 112.869 48.194C116.355 48.194 119.31 46.5648 121.773 43.1548C122.834 46.5648 125.259 48.194 129.351 48.194C131.662 48.1561 133.86 47.3604 135.64 45.8828C137.232 47.3604 139.315 48.1561 141.475 48.0803C144.961 48.0803 147.916 46.4511 150.379 43.0412C151.44 46.4511 153.903 48.0803 157.957 48.0803C160.533 48.1182 163.071 47.1331 164.966 45.3902C165.799 46.2617 166.86 46.9816 167.997 47.4362C169.134 47.8909 170.346 48.1182 171.596 48.0803C173.529 48.0803 175.423 47.6257 177.166 46.7921C178.909 45.9586 180.386 44.7083 181.561 43.1927C184.516 39.6691 186.108 35.2362 186.07 30.6517C186.108 28.7951 185.767 26.9386 185.085 25.1958H191.867L191.223 28.1132C190.389 31.5231 189.859 34.971 189.593 38.4567C189.593 44.784 192.208 48.0424 197.36 48.0424C203.195 48.0424 207.552 44.1399 210.659 36.4107C210.811 36.1076 210.849 35.8045 210.849 35.4635C210.849 35.1225 210.773 34.8194 210.659 34.5163C210.508 34.2132 210.318 33.948 210.091 33.7206C209.674 33.5312 209.371 33.3796 209.068 33.266ZM151.137 30.1591C150.227 34.63 148.788 37.8884 147.12 40.0101C145.453 42.1319 143.521 43.1927 141.589 43.1927C141.02 43.1927 140.49 43.0412 139.997 42.7381C139.505 42.435 139.088 42.0561 138.823 41.5635C138.103 40.2753 137.724 38.8356 137.762 37.3579C137.611 34.289 138.52 31.2958 140.301 28.833C140.907 27.9237 141.702 27.1281 142.612 26.5597C143.559 25.9914 144.582 25.6125 145.681 25.461C146.779 25.3094 147.878 25.4231 148.901 25.7641C149.962 26.1051 150.909 26.6355 151.705 27.3933L151.137 30.1591ZM179.591 36.297C178.795 37.9641 177.81 39.5554 176.636 40.9952C175.991 41.6772 175.234 42.2076 174.362 42.5865C173.491 42.9654 172.581 43.1548 171.634 43.1927C171.028 43.2306 170.384 43.117 169.816 42.8517C169.247 42.5865 168.755 42.2076 168.376 41.7151C167.504 40.5405 167.088 39.1008 167.201 37.661C167.088 34.5542 167.959 31.5231 169.74 28.9467C170.422 27.8858 171.407 26.9765 172.506 26.3703C173.642 25.7641 174.893 25.461 176.181 25.461C179.136 25.461 180.614 27.2417 180.614 30.8411C180.576 32.6976 180.197 34.5542 179.515 36.297H179.591ZM72.9351 7.805C72.3289 7.805 71.7606 7.99444 71.3059 8.37333C70.8512 8.75221 70.5102 9.28265 70.3966 9.85097L62.8189 45.1629C62.7431 45.5418 62.7431 45.9207 62.8189 46.2996C62.8947 46.6785 63.0841 47.0194 63.3114 47.3226C63.5388 47.6257 63.8419 47.853 64.2208 48.0046C64.5618 48.1561 64.9406 48.2698 65.3195 48.2698C65.9257 48.2698 66.4941 48.0803 66.9487 47.7014C67.4034 47.3226 67.7444 46.7921 67.858 46.2238L75.4736 10.9118C75.5494 10.533 75.5494 10.1541 75.4357 9.77519C75.3599 9.39631 75.1705 9.05532 74.9432 8.75221C74.7159 8.44911 74.4127 8.22177 74.0717 8.07022C73.6929 7.88077 73.314 7.805 72.9351 7.805ZM18.6032 0C13.6777 0 8.94165 1.97019 5.45592 5.45592C1.9702 8.94165 0 13.6398 0 18.5653C0 20.6113 0.340995 22.6572 0.985097 24.5895C1.21243 25.2336 1.70498 25.7641 2.31119 26.0672C2.9174 26.3703 3.63728 26.4461 4.28138 26.2187C4.92548 25.9914 5.41803 25.4989 5.72114 24.8927C6.02425 24.2864 6.06213 23.6044 5.87269 22.9603C5.30437 21.4448 5.07704 19.8535 5.15282 18.2243C5.22859 15.6479 6.06214 13.1094 7.53978 10.9876C9.01743 8.86588 11.1013 7.19878 13.5261 6.21369C15.951 5.22859 18.6032 4.96337 21.1417 5.49381C23.6802 5.98636 26.0672 7.19878 27.9237 9.01742C29.7803 10.8361 31.1063 13.1473 31.6747 15.6479C32.243 18.1864 32.0914 20.8386 31.1821 23.2634C30.2728 25.6883 28.6815 27.8101 26.5976 29.3635C24.5138 30.9169 22.0131 31.8262 19.3988 31.9778C19.3988 31.9778 16.7845 32.1293 15.4963 32.3188C15.0038 32.3945 14.5491 32.4703 14.0566 32.584C14.0187 32.6219 13.9808 32.6219 13.9429 32.6219C13.905 32.6219 13.8671 32.584 13.8292 32.584C13.7914 32.5461 13.7914 32.5082 13.7914 32.4703C13.7914 32.4324 13.7914 32.3945 13.8292 32.3567L14.246 30.1591L16.7088 19.0957C16.8603 18.4516 16.7088 17.7317 16.3678 17.2013C15.9889 16.633 15.4206 16.2541 14.7765 16.1026C14.1324 15.951 13.4125 16.1025 12.8442 16.4435C12.2758 16.8224 11.8969 17.3908 11.7454 18.0349C11.7454 18.0349 5.91058 45.0493 5.91058 45.2766C5.83481 45.6176 5.8348 45.9586 5.87269 46.2617C5.91058 46.6027 6.06213 46.9058 6.25158 47.2089C6.44102 47.4741 6.66835 47.7393 6.93357 47.9288C7.19879 48.1182 7.53978 48.2319 7.84289 48.3077C8.18389 48.3834 8.52488 48.3834 8.82799 48.3455C9.16898 48.3077 9.47209 48.1561 9.77519 47.9667C10.0404 47.7772 10.3056 47.5499 10.4951 47.2847C10.6845 47.0194 10.7982 46.6785 10.874 46.3753C10.9497 46.0343 11.7075 42.4728 11.7075 42.4728C11.9727 41.1468 12.6547 39.9343 13.6398 39.025C14.6249 38.1157 15.8752 37.5095 17.2013 37.2821C17.7696 37.2064 20.1187 37.0548 20.1187 37.0548C24.8548 36.6001 29.2498 34.4026 32.3945 30.8411C35.5393 27.2796 37.1685 22.6572 37.0169 17.9212C36.8275 13.1851 34.8573 8.71432 31.4473 5.38015C27.9237 1.97019 23.3771 0.0757767 18.6032 0Z" fill="white"/>
<path d="M214.486 42.7003C214.069 42.6245 213.652 42.6245 213.273 42.7003C212.857 42.776 212.478 42.9276 212.137 43.1549C211.796 43.3822 211.493 43.6854 211.265 44.0264C211.038 44.3674 210.887 44.7462 210.811 45.163C210.735 45.5798 210.735 45.9965 210.811 46.3754C210.887 46.7543 211.038 47.1711 211.265 47.5121C211.493 47.8531 211.796 48.1562 212.137 48.3835C212.478 48.6108 212.857 48.7624 213.273 48.8382C213.69 48.9139 214.107 48.9518 214.486 48.8761C214.903 48.8003 215.282 48.6487 215.623 48.4214C215.964 48.1941 216.267 47.891 216.494 47.55C216.721 47.209 216.873 46.8301 216.949 46.4133C217.1 45.6177 216.911 44.7841 216.456 44.1021C215.964 43.3822 215.282 42.8897 214.486 42.7003Z" fill="white"/>
</g>
</svg>
