<svg width="219" height="69" viewBox="0 0 219 69" fill="none" xmlns="http://www.w3.org/2000/svg">
<g opacity="0.29">
<mask id="path-1-outside-1_48_1170" maskUnits="userSpaceOnUse" x="55.8262" y="17.4709" width="163" height="30" fill="black">
<rect fill="white" x="55.8262" y="17.4709" width="163" height="30"/>
<path d="M71.34 38.4852C71.34 38.8398 71.0431 39.1284 70.6885 39.1284H58.1374C58.4507 42.2291 60.7845 45.0576 64.0666 45.0576C66.3096 45.0576 67.9754 44.2 69.2289 42.4105C69.4103 42.1631 69.6824 42.0064 70.0288 42.1549C70.2185 42.2373 70.3504 42.4105 70.3834 42.6084C70.4164 42.8146 70.3587 42.93 70.3009 43.0455C69.0392 45.2473 66.524 46.3276 64.0583 46.3276C59.8361 46.3276 56.8262 42.5507 56.8262 38.5099C56.8262 34.4691 59.8361 30.6922 64.0583 30.6922C68.2805 30.684 71.3317 34.4526 71.34 38.4852ZM69.9958 37.8749C69.7237 34.7743 67.3487 31.9457 64.0666 31.9457C60.7845 31.9457 58.4507 34.7743 58.1374 37.8749H69.9958ZM86.5712 30.9974C86.9341 30.9974 87.198 31.3107 87.198 31.6241C87.198 31.9869 86.9258 32.2508 86.5712 32.2508H83.2067V45.4535C83.2067 45.7668 82.9345 46.0802 82.5799 46.0802C82.2171 46.0802 81.9532 45.7668 81.9532 45.4535V32.2508H78.7206C78.3577 32.2508 78.0939 31.9787 78.0939 31.6241C78.0939 31.3107 78.366 30.9974 78.7206 30.9974H81.9532V26.1649C81.9532 25.8598 82.1594 25.5794 82.4563 25.5299C82.8768 25.464 83.2067 25.7526 83.2067 26.1484V30.9974H86.5712ZM107.097 37.3801V45.3792C107.097 45.7421 106.783 46.006 106.47 46.006C106.107 46.006 105.843 45.7338 105.843 45.3792V37.3801C105.843 34.6835 104.318 31.9869 101.308 31.9869C97.4484 31.9869 95.7826 35.3598 96.0052 38.815C96.0052 38.9057 96.0465 39.3098 96.0465 39.3511V45.3545C96.0465 45.6596 95.8403 45.94 95.5434 45.9895C95.1229 46.0554 94.793 45.7668 94.793 45.371V19.0977C94.793 18.7843 95.0651 18.4709 95.4197 18.4709C95.7826 18.4709 96.0465 18.7843 96.0465 19.0977V33.9661C97.1267 32.0364 99.0564 30.7335 101.299 30.7335C104.986 30.7335 107.097 33.9661 107.097 37.3801ZM129.601 38.4852C129.601 38.8398 129.305 39.1284 128.95 39.1284H116.391C116.704 42.2291 119.038 45.0576 122.32 45.0576C124.563 45.0576 126.229 44.2 127.482 42.4105C127.663 42.1631 127.936 42.0064 128.282 42.1549C128.472 42.2373 128.604 42.4105 128.637 42.6084C128.67 42.8146 128.612 42.93 128.554 43.0455C127.292 45.2473 124.777 46.3276 122.312 46.3276C118.089 46.3276 115.079 42.5507 115.079 38.5099C115.079 34.4691 118.089 30.6922 122.312 30.6922C126.542 30.684 129.593 34.4526 129.601 38.4852ZM128.249 37.8749C127.977 34.7743 125.602 31.9457 122.32 31.9457C119.038 31.9457 116.704 34.7743 116.391 37.8749H128.249ZM145.006 31.5829C145.006 31.9869 144.783 32.2096 144.42 32.2591C140.734 32.7951 139.077 35.8051 139.077 39.3098V45.3133C139.077 45.6184 138.87 45.8988 138.574 45.9482C138.153 46.0142 137.823 45.7256 137.823 45.3298V31.6488C137.823 31.3437 138.029 31.0633 138.326 31.0139C138.747 30.9479 139.077 31.2365 139.077 31.6323V34.4196C140.107 32.6714 142.177 31.0056 144.33 31.0056C144.643 30.9974 145.006 31.2283 145.006 31.5829ZM165.622 38.4852C165.622 38.8398 165.325 39.1284 164.971 39.1284H152.419C152.733 42.2291 155.067 45.0576 158.349 45.0576C160.592 45.0576 162.257 44.2 163.511 42.4105C163.692 42.1631 163.965 42.0064 164.311 42.1549C164.501 42.2373 164.632 42.4105 164.665 42.6084C164.698 42.8146 164.641 42.93 164.583 43.0455C163.321 45.2473 160.806 46.3276 158.34 46.3276C154.118 46.3276 151.108 42.5507 151.108 38.5099C151.108 34.4691 154.118 30.6922 158.34 30.6922C162.563 30.684 165.614 34.4526 165.622 38.4852ZM164.278 37.8749C164.006 34.7743 161.631 31.9457 158.349 31.9457C155.067 31.9457 152.733 34.7743 152.419 37.8749H164.278ZM185.884 31.7395V45.4535C185.884 45.8163 185.57 46.0802 185.257 46.0802C184.894 46.0802 184.63 45.8081 184.63 45.4535V42.8476C183.599 44.9174 181.752 46.3936 179.418 46.3936C175.691 46.3936 173.621 43.1609 173.621 39.7469V31.7066C173.621 31.3932 173.893 31.0798 174.248 31.0798C174.611 31.0798 174.875 31.3932 174.875 31.7066V39.7469C174.875 42.4435 176.4 45.1401 179.41 45.1401C183.632 45.1401 184.622 41.19 184.622 36.8276V31.7066C184.622 31.3437 184.985 30.9726 185.43 31.1046C185.702 31.1953 185.884 31.4592 185.884 31.7395ZM217.633 37.3307V45.371C217.633 45.7338 217.319 45.9977 217.006 45.9977C216.643 45.9977 216.379 45.7256 216.379 45.371V37.3307C216.379 34.6341 214.854 31.9869 211.844 31.9869C208.067 31.9869 206.632 36.0277 206.632 39.1696V45.371C206.632 45.7338 206.318 45.9977 206.005 45.9977C205.642 45.9977 205.378 45.7256 205.378 45.371V37.3307C205.378 34.6341 203.853 31.9869 200.843 31.9869C197.025 31.9869 195.45 34.9969 195.59 38.9965C195.59 39.0872 195.631 39.2686 195.59 39.3098V45.3545C195.59 45.6596 195.384 45.94 195.079 45.9895C194.658 46.0554 194.328 45.7668 194.328 45.371V31.6488C194.328 31.3437 194.534 31.0633 194.831 31.0139C195.252 30.9479 195.582 31.2365 195.582 31.6323V33.9249C196.662 31.9952 198.592 30.7335 200.835 30.7335C203.391 30.7335 205.37 32.3498 206.178 34.733C207.209 32.3993 209.229 30.7335 211.835 30.7335C215.522 30.7335 217.633 33.9166 217.633 37.3307Z"/>
</mask>
<path d="M71.34 38.4852C71.34 38.8398 71.0431 39.1284 70.6885 39.1284H58.1374C58.4507 42.2291 60.7845 45.0576 64.0666 45.0576C66.3096 45.0576 67.9754 44.2 69.2289 42.4105C69.4103 42.1631 69.6824 42.0064 70.0288 42.1549C70.2185 42.2373 70.3504 42.4105 70.3834 42.6084C70.4164 42.8146 70.3587 42.93 70.3009 43.0455C69.0392 45.2473 66.524 46.3276 64.0583 46.3276C59.8361 46.3276 56.8262 42.5507 56.8262 38.5099C56.8262 34.4691 59.8361 30.6922 64.0583 30.6922C68.2805 30.684 71.3317 34.4526 71.34 38.4852ZM69.9958 37.8749C69.7237 34.7743 67.3487 31.9457 64.0666 31.9457C60.7845 31.9457 58.4507 34.7743 58.1374 37.8749H69.9958ZM86.5712 30.9974C86.9341 30.9974 87.198 31.3107 87.198 31.6241C87.198 31.9869 86.9258 32.2508 86.5712 32.2508H83.2067V45.4535C83.2067 45.7668 82.9345 46.0802 82.5799 46.0802C82.2171 46.0802 81.9532 45.7668 81.9532 45.4535V32.2508H78.7206C78.3577 32.2508 78.0939 31.9787 78.0939 31.6241C78.0939 31.3107 78.366 30.9974 78.7206 30.9974H81.9532V26.1649C81.9532 25.8598 82.1594 25.5794 82.4563 25.5299C82.8768 25.464 83.2067 25.7526 83.2067 26.1484V30.9974H86.5712ZM107.097 37.3801V45.3792C107.097 45.7421 106.783 46.006 106.47 46.006C106.107 46.006 105.843 45.7338 105.843 45.3792V37.3801C105.843 34.6835 104.318 31.9869 101.308 31.9869C97.4484 31.9869 95.7826 35.3598 96.0052 38.815C96.0052 38.9057 96.0465 39.3098 96.0465 39.3511V45.3545C96.0465 45.6596 95.8403 45.94 95.5434 45.9895C95.1229 46.0554 94.793 45.7668 94.793 45.371V19.0977C94.793 18.7843 95.0651 18.4709 95.4197 18.4709C95.7826 18.4709 96.0465 18.7843 96.0465 19.0977V33.9661C97.1267 32.0364 99.0564 30.7335 101.299 30.7335C104.986 30.7335 107.097 33.9661 107.097 37.3801ZM129.601 38.4852C129.601 38.8398 129.305 39.1284 128.95 39.1284H116.391C116.704 42.2291 119.038 45.0576 122.32 45.0576C124.563 45.0576 126.229 44.2 127.482 42.4105C127.663 42.1631 127.936 42.0064 128.282 42.1549C128.472 42.2373 128.604 42.4105 128.637 42.6084C128.67 42.8146 128.612 42.93 128.554 43.0455C127.292 45.2473 124.777 46.3276 122.312 46.3276C118.089 46.3276 115.079 42.5507 115.079 38.5099C115.079 34.4691 118.089 30.6922 122.312 30.6922C126.542 30.684 129.593 34.4526 129.601 38.4852ZM128.249 37.8749C127.977 34.7743 125.602 31.9457 122.32 31.9457C119.038 31.9457 116.704 34.7743 116.391 37.8749H128.249ZM145.006 31.5829C145.006 31.9869 144.783 32.2096 144.42 32.2591C140.734 32.7951 139.077 35.8051 139.077 39.3098V45.3133C139.077 45.6184 138.87 45.8988 138.574 45.9482C138.153 46.0142 137.823 45.7256 137.823 45.3298V31.6488C137.823 31.3437 138.029 31.0633 138.326 31.0139C138.747 30.9479 139.077 31.2365 139.077 31.6323V34.4196C140.107 32.6714 142.177 31.0056 144.33 31.0056C144.643 30.9974 145.006 31.2283 145.006 31.5829ZM165.622 38.4852C165.622 38.8398 165.325 39.1284 164.971 39.1284H152.419C152.733 42.2291 155.067 45.0576 158.349 45.0576C160.592 45.0576 162.257 44.2 163.511 42.4105C163.692 42.1631 163.965 42.0064 164.311 42.1549C164.501 42.2373 164.632 42.4105 164.665 42.6084C164.698 42.8146 164.641 42.93 164.583 43.0455C163.321 45.2473 160.806 46.3276 158.34 46.3276C154.118 46.3276 151.108 42.5507 151.108 38.5099C151.108 34.4691 154.118 30.6922 158.34 30.6922C162.563 30.684 165.614 34.4526 165.622 38.4852ZM164.278 37.8749C164.006 34.7743 161.631 31.9457 158.349 31.9457C155.067 31.9457 152.733 34.7743 152.419 37.8749H164.278ZM185.884 31.7395V45.4535C185.884 45.8163 185.57 46.0802 185.257 46.0802C184.894 46.0802 184.63 45.8081 184.63 45.4535V42.8476C183.599 44.9174 181.752 46.3936 179.418 46.3936C175.691 46.3936 173.621 43.1609 173.621 39.7469V31.7066C173.621 31.3932 173.893 31.0798 174.248 31.0798C174.611 31.0798 174.875 31.3932 174.875 31.7066V39.7469C174.875 42.4435 176.4 45.1401 179.41 45.1401C183.632 45.1401 184.622 41.19 184.622 36.8276V31.7066C184.622 31.3437 184.985 30.9726 185.43 31.1046C185.702 31.1953 185.884 31.4592 185.884 31.7395ZM217.633 37.3307V45.371C217.633 45.7338 217.319 45.9977 217.006 45.9977C216.643 45.9977 216.379 45.7256 216.379 45.371V37.3307C216.379 34.6341 214.854 31.9869 211.844 31.9869C208.067 31.9869 206.632 36.0277 206.632 39.1696V45.371C206.632 45.7338 206.318 45.9977 206.005 45.9977C205.642 45.9977 205.378 45.7256 205.378 45.371V37.3307C205.378 34.6341 203.853 31.9869 200.843 31.9869C197.025 31.9869 195.45 34.9969 195.59 38.9965C195.59 39.0872 195.631 39.2686 195.59 39.3098V45.3545C195.59 45.6596 195.384 45.94 195.079 45.9895C194.658 46.0554 194.328 45.7668 194.328 45.371V31.6488C194.328 31.3437 194.534 31.0633 194.831 31.0139C195.252 30.9479 195.582 31.2365 195.582 31.6323V33.9249C196.662 31.9952 198.592 30.7335 200.835 30.7335C203.391 30.7335 205.37 32.3498 206.178 34.733C207.209 32.3993 209.229 30.7335 211.835 30.7335C215.522 30.7335 217.633 33.9166 217.633 37.3307Z" fill="white"/>
<path d="M58.1374 39.1284V38.1284H57.0312L57.1424 39.2289L58.1374 39.1284ZM69.2289 42.4105L68.4225 41.8191L68.4161 41.8279L68.4098 41.8368L69.2289 42.4105ZM70.0288 42.1549L70.4275 41.2378L70.4227 41.2357L70.0288 42.1549ZM70.3834 42.6084L71.3709 42.4504L71.3698 42.444L70.3834 42.6084ZM70.3009 43.0455L71.1686 43.5427L71.1827 43.5181L71.1954 43.4927L70.3009 43.0455ZM64.0583 30.6922V31.6922L64.0603 31.6922L64.0583 30.6922ZM69.9958 37.8749V38.8749H71.0874L70.992 37.7875L69.9958 37.8749ZM58.1374 37.8749L57.1424 37.7744L57.0312 38.8749H58.1374V37.8749ZM83.2067 32.2508V31.2508H82.2067V32.2508H83.2067ZM81.9532 32.2508H82.9532V31.2508H81.9532V32.2508ZM81.9532 30.9974V31.9974H82.9532V30.9974H81.9532ZM82.4563 25.5299L82.3013 24.542L82.2919 24.5435L82.4563 25.5299ZM83.2067 30.9974H82.2067V31.9974H83.2067V30.9974ZM96.0052 38.815H97.0052V38.7828L97.0032 38.7507L96.0052 38.815ZM95.5434 45.9895L95.6984 46.9774L95.7078 46.9759L95.5434 45.9895ZM96.0465 33.9661H95.0465V37.7995L96.919 34.4546L96.0465 33.9661ZM116.391 39.1284V38.1284H115.284L115.396 39.2289L116.391 39.1284ZM127.482 42.4105L126.676 41.8191L126.669 41.8279L126.663 41.8368L127.482 42.4105ZM128.282 42.1549L128.681 41.2378L128.676 41.2357L128.282 42.1549ZM128.637 42.6084L129.624 42.4504L129.623 42.444L128.637 42.6084ZM128.554 43.0455L129.422 43.5427L129.436 43.5181L129.449 43.4927L128.554 43.0455ZM122.312 30.6922V31.6922L122.313 31.6922L122.312 30.6922ZM128.249 37.8749V38.8749H129.341L129.245 37.7875L128.249 37.8749ZM116.391 37.8749L115.396 37.7744L115.284 38.8749H116.391V37.8749ZM144.42 32.2591L144.285 31.2682L144.276 31.2695L144.42 32.2591ZM138.574 45.9482L138.729 46.9362L138.738 46.9346L138.574 45.9482ZM138.326 31.0139L138.171 30.0259L138.162 30.0275L138.326 31.0139ZM139.077 34.4196H138.077V38.0845L139.938 34.9276L139.077 34.4196ZM144.33 31.0056V32.0056H144.343L144.356 32.0053L144.33 31.0056ZM152.419 39.1284V38.1284H151.313L151.424 39.2289L152.419 39.1284ZM163.511 42.4105L162.705 41.8191L162.698 41.8279L162.692 41.8368L163.511 42.4105ZM164.311 42.1549L164.71 41.2378L164.705 41.2357L164.311 42.1549ZM164.665 42.6084L165.653 42.4504L165.652 42.444L164.665 42.6084ZM164.583 43.0455L165.451 43.5427L165.465 43.5181L165.477 43.4927L164.583 43.0455ZM158.34 30.6922V31.6922L158.342 31.6922L158.34 30.6922ZM152.419 37.8749L151.424 37.7744L151.313 38.8749H152.419V37.8749ZM184.63 42.8476H185.63L183.735 42.4018L184.63 42.8476ZM185.43 31.1046L185.746 30.1559L185.73 30.1506L185.714 30.1458L185.43 31.1046ZM195.59 38.9965H196.59V38.9789L196.589 38.9614L195.59 38.9965ZM195.59 39.3098L194.883 38.6027L194.59 38.8956V39.3098H195.59ZM195.079 45.9895L195.233 46.9774L195.239 46.9766L195.079 45.9895ZM194.831 31.0139L194.676 30.0259L194.667 30.0275L194.831 31.0139ZM195.582 33.9249H194.582V37.7582L196.454 34.4134L195.582 33.9249ZM206.178 34.733L205.231 35.0542L206.056 37.4855L207.093 35.1371L206.178 34.733ZM70.34 38.4852C70.34 38.271 70.5075 38.1284 70.6885 38.1284V40.1284C71.5788 40.1284 72.34 39.4085 72.34 38.4852H70.34ZM70.6885 38.1284H58.1374V40.1284H70.6885V38.1284ZM57.1424 39.2289C57.4924 42.6922 60.1348 46.0576 64.0666 46.0576V44.0576C61.4342 44.0576 59.409 41.7659 59.1323 39.0278L57.1424 39.2289ZM64.0666 46.0576C66.6273 46.0576 68.6025 45.0478 70.0479 42.9842L68.4098 41.8368C67.3484 43.3522 65.992 44.0576 64.0666 44.0576V46.0576ZM70.0353 43.0019C70.0511 42.9804 70.023 43.0303 69.926 43.0676C69.8741 43.0875 69.8142 43.0988 69.7531 43.0969C69.6929 43.0951 69.6519 43.0813 69.6349 43.074L70.4227 41.2357C70.0251 41.0653 69.6001 41.0501 69.208 41.2009C68.843 41.3413 68.5881 41.5932 68.4225 41.8191L70.0353 43.0019ZM69.6301 43.0719C69.5051 43.0176 69.419 42.905 69.397 42.7728L71.3698 42.444C71.2818 41.916 70.9318 41.457 70.4275 41.2378L69.6301 43.0719ZM69.396 42.7664C69.3946 42.758 69.3921 42.7373 69.3934 42.7072C69.3946 42.6763 69.3993 42.6448 69.4069 42.615C69.4142 42.5864 69.4221 42.5673 69.4241 42.5626C69.4243 42.5621 69.4229 42.5655 69.4065 42.5983L71.1954 43.4927C71.2776 43.3282 71.4549 42.9758 71.3708 42.4504L69.396 42.7664ZM69.4333 42.5483C68.3954 44.3594 66.268 45.3276 64.0583 45.3276V47.3276C66.78 47.3276 69.683 46.1352 71.1686 43.5427L69.4333 42.5483ZM64.0583 45.3276C60.5014 45.3276 57.8262 42.1186 57.8262 38.5099H55.8262C55.8262 42.9828 59.1709 47.3276 64.0583 47.3276V45.3276ZM57.8262 38.5099C57.8262 34.9012 60.5014 31.6922 64.0583 31.6922V29.6922C59.1709 29.6922 55.8262 34.037 55.8262 38.5099H57.8262ZM64.0603 31.6922C67.624 31.6853 70.3326 34.8943 70.34 38.4872L72.34 38.4831C72.3308 34.0109 68.9371 29.6827 64.0564 29.6922L64.0603 31.6922ZM70.992 37.7875C70.6861 34.3019 67.9893 30.9457 64.0666 30.9457V32.9457C66.7081 32.9457 68.7613 35.2466 68.9996 37.9624L70.992 37.7875ZM64.0666 30.9457C60.1348 30.9457 57.4924 34.3111 57.1424 37.7744L59.1323 37.9755C59.409 35.2374 61.4342 32.9457 64.0666 32.9457V30.9457ZM58.1374 38.8749H69.9958V36.8749H58.1374V38.8749ZM86.5712 31.9974C86.4516 31.9974 86.3533 31.9427 86.2947 31.881C86.2435 31.8269 86.198 31.7421 86.198 31.6241H88.198C88.198 30.8101 87.5366 29.9974 86.5712 29.9974V31.9974ZM86.198 31.6241C86.198 31.5475 86.2304 31.4457 86.3137 31.3632C86.3957 31.282 86.495 31.2508 86.5712 31.2508V33.2508C87.4694 33.2508 88.198 32.5479 88.198 31.6241H86.198ZM86.5712 31.2508H83.2067V33.2508H86.5712V31.2508ZM82.2067 32.2508V45.4535H84.2067V32.2508H82.2067ZM82.2067 45.4535C82.2067 45.3267 82.2568 45.2422 82.3035 45.1933C82.3563 45.138 82.452 45.0802 82.5799 45.0802V47.0802C83.5286 47.0802 84.2067 46.2764 84.2067 45.4535H82.2067ZM82.5799 45.0802C82.6996 45.0802 82.7979 45.1348 82.8565 45.1966C82.9077 45.2507 82.9532 45.3354 82.9532 45.4535H80.9532C80.9532 46.2675 81.6146 47.0802 82.5799 47.0802V45.0802ZM82.9532 45.4535V32.2508H80.9532V45.4535H82.9532ZM81.9532 31.2508H78.7206V33.2508H81.9532V31.2508ZM78.7206 31.2508C78.7972 31.2508 78.899 31.2833 78.9815 31.3666C79.0627 31.4486 79.0939 31.5479 79.0939 31.6241H77.0939C77.0939 32.5222 77.7968 33.2508 78.7206 33.2508V31.2508ZM79.0939 31.6241C79.0939 31.7509 79.0438 31.8354 78.997 31.8843C78.9442 31.9395 78.8485 31.9974 78.7206 31.9974V29.9974C77.7719 29.9974 77.0939 30.8012 77.0939 31.6241H79.0939ZM78.7206 31.9974H81.9532V29.9974H78.7206V31.9974ZM82.9532 30.9974V26.1649H80.9532V30.9974H82.9532ZM82.9532 26.1649C82.9532 26.2347 82.9307 26.3036 82.8839 26.364C82.8348 26.4274 82.7458 26.4955 82.6207 26.5163L82.2919 24.5435C81.4395 24.6856 80.9532 25.4492 80.9532 26.1649H82.9532ZM82.6112 26.5179C82.5526 26.5271 82.4451 26.5149 82.3461 26.4318C82.2483 26.3497 82.2067 26.2373 82.2067 26.1484H84.2067C84.2067 25.1199 83.31 24.3838 82.3013 24.542L82.6112 26.5179ZM82.2067 26.1484V30.9974H84.2067V26.1484H82.2067ZM83.2067 31.9974H86.5712V29.9974H83.2067V31.9974ZM106.097 37.3801V45.3792H108.097V37.3801H106.097ZM106.097 45.3792C106.097 45.2596 106.151 45.1612 106.213 45.1027C106.267 45.0515 106.352 45.006 106.47 45.006V47.006C107.284 47.006 108.097 46.3446 108.097 45.3792H106.097ZM106.47 45.006C106.547 45.006 106.648 45.0384 106.731 45.1217C106.812 45.2037 106.843 45.303 106.843 45.3792H104.843C104.843 46.2774 105.546 47.006 106.47 47.006V45.006ZM106.843 45.3792V37.3801H104.843V45.3792H106.843ZM106.843 37.3801C106.843 35.8588 106.415 34.2886 105.505 33.0727C104.573 31.8292 103.151 30.9869 101.308 30.9869V32.9869C102.474 32.9869 103.32 33.493 103.904 34.2719C104.508 35.0785 104.843 36.2049 104.843 37.3801H106.843ZM101.308 30.9869C99.0425 30.9869 97.3544 31.9976 96.3 33.5412C95.2726 35.0452 94.8855 36.9894 95.0073 38.8793L97.0032 38.7507C96.9023 37.1854 97.2367 35.7156 97.9515 34.6693C98.6391 33.6627 99.7135 32.9869 101.308 32.9869V30.9869ZM95.0052 38.815C95.0052 38.8819 95.0112 38.9622 95.0145 39.0064C95.0189 39.0642 95.0245 39.1297 95.0297 39.189C95.0352 39.2517 95.0399 39.3038 95.0437 39.3481C95.0455 39.3696 95.0467 39.3846 95.0474 39.394C95.0478 39.3988 95.0478 39.3992 95.0476 39.3967C95.0476 39.3954 95.0473 39.3914 95.0471 39.3856C95.0469 39.3811 95.0465 39.3682 95.0465 39.3511H97.0465C97.0465 39.3177 97.0448 39.2892 97.0443 39.2818C97.0436 39.2688 97.0427 39.2562 97.0419 39.2458C97.0404 39.2248 97.0384 39.2008 97.0364 39.1773C97.0324 39.1313 97.0268 39.069 97.022 39.0142C97.0169 38.956 97.0122 38.9009 97.0088 38.8561C97.0044 38.7977 97.0052 38.7935 97.0052 38.815H95.0052ZM95.0465 39.3511V45.3545H97.0465V39.3511H95.0465ZM95.0465 45.3545C95.0465 45.2847 95.069 45.2158 95.1158 45.1554C95.1649 45.092 95.2539 45.0239 95.379 45.0031L95.7078 46.9759C96.5602 46.8338 97.0465 46.0702 97.0465 45.3545H95.0465ZM95.3885 45.0016C95.4471 44.9924 95.5546 45.0045 95.6535 45.0876C95.7513 45.1697 95.793 45.2821 95.793 45.371H93.793C93.793 46.3995 94.6897 47.1356 95.6984 46.9774L95.3885 45.0016ZM95.793 45.371V19.0977H93.793V45.371H95.793ZM95.793 19.0977C95.793 19.2244 95.7429 19.309 95.6962 19.3579C95.6434 19.4131 95.5477 19.4709 95.4197 19.4709V17.4709C94.4711 17.4709 93.793 18.2748 93.793 19.0977H95.793ZM95.4197 19.4709C95.3001 19.4709 95.2017 19.4163 95.1432 19.3545C95.092 19.3005 95.0465 19.2157 95.0465 19.0977H97.0465C97.0465 18.2837 96.3851 17.4709 95.4197 17.4709V19.4709ZM95.0465 19.0977V33.9661H97.0465V19.0977H95.0465ZM96.919 34.4546C97.8481 32.795 99.468 31.7335 101.299 31.7335V29.7335C98.6449 29.7335 96.4054 31.2778 95.1739 33.4776L96.919 34.4546ZM101.299 31.7335C104.237 31.7335 106.097 34.2993 106.097 37.3801H108.097C108.097 33.6329 105.734 29.7335 101.299 29.7335V31.7335ZM128.601 38.4852C128.601 38.271 128.769 38.1284 128.95 38.1284V40.1284C129.84 40.1284 130.601 39.4085 130.601 38.4852H128.601ZM128.95 38.1284H116.391V40.1284H128.95V38.1284ZM115.396 39.2289C115.746 42.6922 118.388 46.0576 122.32 46.0576V44.0576C119.687 44.0576 117.662 41.7659 117.385 39.0278L115.396 39.2289ZM122.32 46.0576C124.88 46.0576 126.856 45.0478 128.301 42.9842L126.663 41.8368C125.602 43.3522 124.245 44.0576 122.32 44.0576V46.0576ZM128.288 43.0019C128.304 42.9804 128.276 43.0303 128.179 43.0676C128.127 43.0875 128.067 43.0988 128.006 43.0969C127.946 43.0951 127.905 43.0813 127.888 43.074L128.676 41.2357C128.278 41.0653 127.853 41.0501 127.461 41.2009C127.096 41.3413 126.841 41.5932 126.676 41.8191L128.288 43.0019ZM127.883 43.0719C127.758 43.0176 127.672 42.905 127.65 42.7728L129.623 42.444C129.535 41.916 129.185 41.457 128.681 41.2378L127.883 43.0719ZM127.649 42.7664C127.648 42.758 127.645 42.7373 127.647 42.7072C127.648 42.6763 127.653 42.6448 127.66 42.615C127.667 42.5864 127.675 42.5673 127.677 42.5626C127.677 42.5621 127.676 42.5655 127.66 42.5983L129.449 43.4927C129.531 43.3282 129.708 42.9758 129.624 42.4504L127.649 42.7664ZM127.686 42.5483C126.649 44.3594 124.521 45.3276 122.312 45.3276V47.3276C125.033 47.3276 127.936 46.1352 129.422 43.5427L127.686 42.5483ZM122.312 45.3276C118.755 45.3276 116.079 42.1186 116.079 38.5099H114.079C114.079 42.9828 117.424 47.3276 122.312 47.3276V45.3276ZM116.079 38.5099C116.079 34.9012 118.755 31.6922 122.312 31.6922V29.6922C117.424 29.6922 114.079 34.037 114.079 38.5099H116.079ZM122.313 31.6922C125.886 31.6853 128.594 34.8951 128.601 38.4872L130.601 38.4831C130.592 34.0101 127.198 29.6827 122.31 29.6922L122.313 31.6922ZM129.245 37.7875C128.939 34.3019 126.242 30.9457 122.32 30.9457V32.9457C124.961 32.9457 127.014 35.2466 127.253 37.9624L129.245 37.7875ZM122.32 30.9457C118.388 30.9457 115.746 34.3111 115.396 37.7744L117.385 37.9755C117.662 35.2374 119.687 32.9457 122.32 32.9457V30.9457ZM116.391 38.8749H128.249V36.8749H116.391V38.8749ZM144.006 31.5829C144.006 31.5981 144.005 31.4968 144.106 31.3854C144.202 31.2783 144.297 31.2666 144.285 31.2682L144.555 33.2499C144.906 33.202 145.295 33.0543 145.593 32.7225C145.895 32.3864 146.006 31.9717 146.006 31.5829H144.006ZM144.276 31.2695C142.166 31.5764 140.582 32.61 139.545 34.1C138.525 35.5667 138.077 37.4103 138.077 39.3098H140.077C140.077 37.7045 140.457 36.2909 141.187 35.2424C141.9 34.2172 142.989 33.4778 144.564 33.2487L144.276 31.2695ZM138.077 39.3098V45.3133H140.077V39.3098H138.077ZM138.077 45.3133C138.077 45.2435 138.099 45.1745 138.146 45.1142C138.195 45.0508 138.284 44.9827 138.409 44.9618L138.738 46.9346C139.59 46.7926 140.077 46.029 140.077 45.3133H138.077ZM138.419 44.9603C138.477 44.9511 138.585 44.9633 138.684 45.0464C138.782 45.1285 138.823 45.2409 138.823 45.3298H136.823C136.823 46.3583 137.72 47.0944 138.729 46.9362L138.419 44.9603ZM138.823 45.3298V31.6488H136.823V45.3298H138.823ZM138.823 31.6488C138.823 31.7186 138.801 31.7876 138.754 31.8479C138.705 31.9113 138.616 31.9794 138.491 32.0003L138.162 30.0275C137.309 30.1695 136.823 30.9331 136.823 31.6488H138.823ZM138.481 32.0018C138.423 32.011 138.315 31.9988 138.216 31.9157C138.118 31.8336 138.077 31.7212 138.077 31.6323H140.077C140.077 30.6038 139.18 29.8677 138.171 30.0259L138.481 32.0018ZM138.077 31.6323V34.4196H140.077V31.6323H138.077ZM139.938 34.9276C140.862 33.3598 142.655 32.0056 144.33 32.0056V30.0056C141.699 30.0056 139.352 31.9829 138.215 33.9117L139.938 34.9276ZM144.356 32.0053C144.275 32.0074 144.219 31.9847 144.171 31.9475C144.112 31.9012 144.006 31.7768 144.006 31.5829H146.006C146.006 31.0343 145.719 30.6172 145.399 30.3688C145.092 30.1296 144.697 29.9956 144.303 30.0059L144.356 32.0053ZM164.622 38.4852C164.622 38.271 164.79 38.1284 164.971 38.1284V40.1284C165.861 40.1284 166.622 39.4085 166.622 38.4852H164.622ZM164.971 38.1284H152.419V40.1284H164.971V38.1284ZM151.424 39.2289C151.775 42.6922 154.417 46.0576 158.349 46.0576V44.0576C155.716 44.0576 153.691 41.7659 153.414 39.0278L151.424 39.2289ZM158.349 46.0576C160.909 46.0576 162.885 45.0478 164.33 42.9842L162.692 41.8368C161.63 43.3522 160.274 44.0576 158.349 44.0576V46.0576ZM164.317 43.0019C164.333 42.9804 164.305 43.0303 164.208 43.0676C164.156 43.0875 164.096 43.0988 164.035 43.0969C163.975 43.0951 163.934 43.0813 163.917 43.074L164.705 41.2357C164.307 41.0653 163.882 41.0501 163.49 41.2009C163.125 41.3413 162.87 41.5932 162.705 41.8191L164.317 43.0019ZM163.912 43.0719C163.787 43.0176 163.701 42.905 163.679 42.7728L165.652 42.444C165.564 41.916 165.214 41.4571 164.71 41.2378L163.912 43.0719ZM163.678 42.7664C163.677 42.758 163.674 42.7373 163.675 42.7072C163.677 42.6763 163.681 42.6448 163.689 42.615C163.696 42.5864 163.704 42.5673 163.706 42.5626C163.706 42.5621 163.705 42.5655 163.689 42.5983L165.477 43.4927C165.56 43.3282 165.737 42.9758 165.653 42.4504L163.678 42.7664ZM163.715 42.5483C162.678 44.3594 160.55 45.3276 158.34 45.3276V47.3276C161.062 47.3276 163.965 46.1352 165.451 43.5427L163.715 42.5483ZM158.34 45.3276C154.783 45.3276 152.108 42.1186 152.108 38.5099H150.108C150.108 42.9828 153.453 47.3276 158.34 47.3276V45.3276ZM152.108 38.5099C152.108 34.9012 154.783 31.6922 158.34 31.6922V29.6922C153.453 29.6922 150.108 34.037 150.108 38.5099H152.108ZM158.342 31.6922C161.906 31.6853 164.615 34.8943 164.622 38.4872L166.622 38.4831C166.613 34.0109 163.219 29.6827 158.338 29.6922L158.342 31.6922ZM165.274 37.7875C164.968 34.3019 162.271 30.9457 158.349 30.9457V32.9457C160.99 32.9457 163.043 35.2466 163.282 37.9624L165.274 37.7875ZM158.349 30.9457C154.417 30.9457 151.775 34.3111 151.424 37.7744L153.414 37.9755C153.691 35.2374 155.716 32.9457 158.349 32.9457V30.9457ZM152.419 38.8749H164.278V36.8749H152.419V38.8749ZM184.884 31.7395V45.4535H186.884V31.7395H184.884ZM184.884 45.4535C184.884 45.3338 184.938 45.2355 185 45.1769C185.054 45.1257 185.139 45.0802 185.257 45.0802V47.0802C186.071 47.0802 186.884 46.4188 186.884 45.4535H184.884ZM185.257 45.0802C185.334 45.0802 185.435 45.1126 185.518 45.1959C185.599 45.2779 185.63 45.3772 185.63 45.4535H183.63C183.63 46.3516 184.333 47.0802 185.257 47.0802V45.0802ZM185.63 45.4535V42.8476H183.63V45.4535H185.63ZM183.735 42.4018C182.826 44.2265 181.278 45.3936 179.418 45.3936V47.3936C182.227 47.3936 184.372 45.6084 185.525 43.2934L183.735 42.4018ZM179.418 45.3936C177.876 45.3936 176.709 44.7376 175.904 43.7275C175.083 42.6959 174.621 41.2636 174.621 39.7469H172.621C172.621 41.6442 173.194 43.5353 174.34 44.9734C175.502 46.4331 177.233 47.3936 179.418 47.3936V45.3936ZM174.621 39.7469V31.7066H172.621V39.7469H174.621ZM174.621 31.7066C174.621 31.8333 174.571 31.9179 174.524 31.9668C174.472 32.022 174.376 32.0798 174.248 32.0798V30.0798C173.299 30.0798 172.621 30.8836 172.621 31.7066H174.621ZM174.248 32.0798C174.128 32.0798 174.03 32.0252 173.971 31.9634C173.92 31.9093 173.875 31.8246 173.875 31.7066H175.875C175.875 30.8925 175.213 30.0798 174.248 30.0798V32.0798ZM173.875 31.7066V39.7469H175.875V31.7066H173.875ZM173.875 39.7469C173.875 41.2683 174.302 42.8385 175.213 44.0543C176.145 45.2978 177.566 46.1401 179.41 46.1401V44.1401C178.244 44.1401 177.398 43.634 176.814 42.8551C176.21 42.0485 175.875 40.9221 175.875 39.7469H173.875ZM179.41 46.1401C180.627 46.1401 181.674 45.8532 182.544 45.2975C183.411 44.7437 184.041 43.9629 184.492 43.071C185.376 41.3218 185.622 39.0483 185.622 36.8276H183.622C183.622 38.9693 183.373 40.8521 182.707 42.1685C182.383 42.8095 181.974 43.2887 181.467 43.612C180.965 43.9332 180.304 44.1401 179.41 44.1401V46.1401ZM185.622 36.8276V31.7066H183.622V36.8276H185.622ZM185.622 31.7066C185.622 31.846 185.562 31.9364 185.498 31.9891C185.46 32.0211 185.406 32.0517 185.337 32.0672C185.265 32.0835 185.197 32.0786 185.146 32.0634L185.714 30.1458C184.519 29.7917 183.622 30.7933 183.622 31.7066H185.622ZM185.114 32.0532C185.035 32.027 184.978 31.9785 184.942 31.9279C184.907 31.8784 184.884 31.8143 184.884 31.7395H186.884C186.884 31.0444 186.442 30.3876 185.746 30.1559L185.114 32.0532ZM216.633 37.3307V45.371H218.633V37.3307H216.633ZM216.633 45.371C216.633 45.2514 216.687 45.153 216.749 45.0945C216.803 45.0432 216.888 44.9977 217.006 44.9977V46.9977C217.82 46.9977 218.633 46.3364 218.633 45.371H216.633ZM217.006 44.9977C217.083 44.9977 217.184 45.0302 217.267 45.1135C217.348 45.1954 217.379 45.2948 217.379 45.371H215.379C215.379 46.2692 216.082 46.9977 217.006 46.9977V44.9977ZM217.379 45.371V37.3307H215.379V45.371H217.379ZM217.379 37.3307C217.379 35.8087 216.951 34.2484 216.037 33.0432C215.102 31.8105 213.68 30.9869 211.844 30.9869V32.9869C213.017 32.9869 213.863 33.487 214.443 34.2519C215.045 35.0445 215.379 36.156 215.379 37.3307H217.379ZM211.844 30.9869C209.524 30.9869 207.928 32.2572 206.961 33.8905C206.015 35.4874 205.632 37.472 205.632 39.1696H207.632C207.632 37.7253 207.966 36.1186 208.682 34.9096C209.376 33.7371 210.386 32.9869 211.844 32.9869V30.9869ZM205.632 39.1696V45.371H207.632V39.1696H205.632ZM205.632 45.371C205.632 45.2514 205.686 45.153 205.748 45.0945C205.802 45.0432 205.887 44.9977 206.005 44.9977V46.9977C206.819 46.9977 207.632 46.3364 207.632 45.371H205.632ZM206.005 44.9977C206.082 44.9977 206.183 45.0302 206.266 45.1135C206.347 45.1954 206.378 45.2948 206.378 45.371H204.378C204.378 46.2692 205.081 46.9977 206.005 46.9977V44.9977ZM206.378 45.371V37.3307H204.378V45.371H206.378ZM206.378 37.3307C206.378 35.8087 205.95 34.2484 205.036 33.0432C204.101 31.8105 202.679 30.9869 200.843 30.9869V32.9869C202.016 32.9869 202.862 33.487 203.443 34.2519C204.044 35.0445 204.378 36.156 204.378 37.3307H206.378ZM200.843 30.9869C198.632 30.9869 196.961 31.8802 195.906 33.4287C194.887 34.923 194.516 36.9158 194.59 39.0315L196.589 38.9614C196.523 37.0776 196.87 35.5656 197.558 34.555C198.21 33.5986 199.236 32.9869 200.843 32.9869V30.9869ZM194.59 38.9965C194.59 39.0786 194.598 39.1557 194.601 39.1832C194.606 39.2317 194.607 39.2386 194.609 39.2547C194.61 39.2726 194.606 39.2362 194.61 39.1767C194.613 39.1457 194.62 39.0775 194.647 38.9919C194.671 38.9116 194.733 38.7527 194.883 38.6027L196.297 40.0169C196.457 39.8567 196.526 39.6831 196.557 39.5846C196.589 39.4808 196.6 39.391 196.604 39.3358C196.613 39.2278 196.605 39.1326 196.602 39.0886C196.598 39.0429 196.591 38.9848 196.59 38.9725C196.586 38.9392 196.59 38.9596 196.59 38.9965H194.59ZM194.59 39.3098V45.3545H196.59V39.3098H194.59ZM194.59 45.3545C194.59 45.2844 194.613 45.2134 194.661 45.151C194.713 45.0847 194.802 45.0212 194.918 45.0024L195.239 46.9766C196.096 46.8376 196.59 46.078 196.59 45.3545H194.59ZM194.924 45.0016C194.982 44.9924 195.09 45.0045 195.189 45.0876C195.286 45.1697 195.328 45.2821 195.328 45.371H193.328C193.328 46.3995 194.225 47.1356 195.233 46.9774L194.924 45.0016ZM195.328 45.371V31.6488H193.328V45.371H195.328ZM195.328 31.6488C195.328 31.7186 195.306 31.7876 195.259 31.8479C195.21 31.9113 195.121 31.9794 194.996 32.0003L194.667 30.0275C193.814 30.1695 193.328 30.9331 193.328 31.6488H195.328ZM194.986 32.0018C194.927 32.011 194.82 31.9988 194.721 31.9157C194.623 31.8336 194.582 31.7212 194.582 31.6323H196.582C196.582 30.6038 195.685 29.8677 194.676 30.0259L194.986 32.0018ZM194.582 31.6323V33.9249H196.582V31.6323H194.582ZM196.454 34.4134C197.377 32.7654 198.991 31.7335 200.835 31.7335V29.7335C198.192 29.7335 195.947 31.2249 194.709 33.4364L196.454 34.4134ZM200.835 31.7335C202.911 31.7335 204.543 33.0255 205.231 35.0542L207.125 34.4119C206.197 31.6741 203.871 29.7335 200.835 29.7335V31.7335ZM207.093 35.1371C208.003 33.077 209.714 31.7335 211.835 31.7335V29.7335C208.745 29.7335 206.415 31.7216 205.264 34.329L207.093 35.1371ZM211.835 31.7335C214.781 31.7335 216.633 34.26 216.633 37.3307H218.633C218.633 33.5732 216.262 29.7335 211.835 29.7335V31.7335Z" fill="white" mask="url(#path-1-outside-1_48_1170)"/>
<g opacity="0.6">
<path opacity="0.6" d="M20.9791 25.2676L0 34.8088L20.9791 47.2032L41.9499 34.8088L20.9791 25.2676Z" fill="white"/>
</g>
<g opacity="0.45">
<path opacity="0.45" d="M0 34.8084L20.9791 47.2029V0L0 34.8084Z" fill="white"/>
</g>
<g opacity="0.8">
<path opacity="0.8" d="M20.979 0V47.2029L41.9498 34.8084L20.979 0Z" fill="white"/>
</g>
<g opacity="0.45">
<path opacity="0.45" d="M0 38.7833L20.9791 68.3387V51.1778L0 38.7833Z" fill="white"/>
</g>
<g opacity="0.8">
<path opacity="0.8" d="M20.979 51.1778V68.3387L41.9663 38.7833L20.979 51.1778Z" fill="white"/>
</g>
</g>
</svg>
