<svg width="245" height="46" viewBox="0 0 245 46" fill="none" xmlns="http://www.w3.org/2000/svg">
<g opacity="0.29">
<path d="M82.7601 25.0031H91.969C93.2638 25.0031 94.313 26.0635 94.313 27.3583C94.313 28.6532 93.2638 29.7136 91.969 29.7136H80.8626C80.684 29.7136 80.5165 29.7805 80.3938 29.8922L77.0451 32.7832C76.5316 33.2297 76.8442 34.0668 77.5139 34.0668H91.4108C91.4108 34.0668 91.422 34.0668 91.422 34.0557C91.422 34.0445 91.4332 34.0445 91.4332 34.0445C91.6118 34.0557 91.7792 34.0668 91.969 34.0668C95.6525 34.0668 98.6439 31.0642 98.6439 27.3583C98.6439 23.8423 95.9538 20.9513 92.5159 20.6722C92.5159 20.6722 92.5047 20.6722 92.5047 20.661C92.5047 20.6499 92.5047 20.6499 92.4936 20.6499H82.5815C81.2867 20.6499 80.2375 19.5895 80.2375 18.2947C80.2375 16.9887 81.2867 15.9394 82.5815 15.9394H93.6656C93.8442 15.9394 94.0228 15.8725 94.1567 15.7497L97.271 12.8587C97.7621 12.4122 97.4384 11.5862 96.7799 11.5862H82.7713C82.7155 11.5862 82.6485 11.5862 82.5927 11.5862C78.9092 11.5862 75.9177 14.5888 75.9177 18.2947C75.9177 22.0005 78.9092 25.0031 82.5927 25.0031C82.6485 25.0031 82.7043 25.0031 82.7601 25.0031Z" fill="white"/>
<path d="M136.372 11.5751C135.97 11.5751 135.647 11.8988 135.647 12.3118V33.3413C135.647 33.7432 135.97 34.078 136.372 34.078H153.227C153.428 34.078 153.618 33.9887 153.763 33.8436L155.873 31.5777C156.308 31.1089 155.984 30.3499 155.337 30.3499H140.625C140.223 30.3499 139.9 30.0262 139.9 29.6132V12.3118C139.9 11.9099 139.576 11.5751 139.174 11.5751H136.372Z" fill="white"/>
<path fill-rule="evenodd" clip-rule="evenodd" d="M109.382 11.5751C109.382 11.5862 109.371 11.5862 109.382 11.5751C107.228 11.6755 105.498 13.4057 105.397 15.56V29.7025C105.397 29.7583 105.397 29.8252 105.397 29.8811C105.397 32.1247 107.161 33.9553 109.382 34.0445H124.674C126.884 33.9441 128.659 32.1135 128.659 29.8811C128.659 29.8252 128.659 29.7583 128.659 29.7025V15.5711C128.57 13.4168 126.84 11.6755 124.685 11.5862H109.382V11.5751ZM112.228 15.5711C110.878 15.6269 109.795 16.7208 109.739 18.0826V26.9789C109.739 27.0124 109.739 27.057 109.739 27.0905C109.739 28.4969 110.844 29.6578 112.228 29.7136H121.817C123.201 29.6578 124.306 28.4969 124.306 27.0905C124.306 27.057 124.306 27.0124 124.306 26.9789V18.0826C124.25 16.7208 123.167 15.6381 121.817 15.5711H112.228Z" fill="white"/>
<path fill-rule="evenodd" clip-rule="evenodd" d="M180.374 33.3418C180.374 33.7437 180.697 34.0785 181.099 34.0785H183.957C184.359 34.0785 184.682 33.7548 184.682 33.3418V15.94C184.682 15.8842 184.682 15.8172 184.682 15.7614C184.682 13.5178 182.93 11.6872 180.742 11.5979H166.064C166.008 11.5979 165.941 11.5979 165.885 11.5979C163.608 11.5979 161.766 13.462 161.766 15.7726C161.766 15.8284 161.766 15.8953 161.766 15.9512V33.353C161.766 33.7548 162.09 34.0897 162.492 34.0897H165.349C165.751 34.0897 166.075 33.766 166.075 33.353V26.1087C166.075 25.7069 166.399 25.372 166.8 25.372H179.682C180.084 25.372 180.407 25.6957 180.407 26.1087V33.3418H180.374ZM166.041 21.3648V17.7483C166.041 16.3418 167.169 15.2033 168.553 15.2033H177.862C179.246 15.2033 180.374 16.3418 180.374 17.7483V21.3648C180.374 21.7667 180.05 22.1015 179.648 22.1015H166.767C166.365 22.1015 166.041 21.7778 166.041 21.3648Z" fill="white"/>
<path fill-rule="evenodd" clip-rule="evenodd" d="M240.705 34.078C240.304 34.078 239.98 33.7543 239.98 33.3413V26.097C239.98 25.6952 239.656 25.3603 239.254 25.3603H226.228C225.826 25.3603 225.503 25.684 225.503 26.097V33.3413C225.503 33.7431 225.179 34.078 224.777 34.078H221.897C221.495 34.078 221.172 33.7543 221.172 33.3413V15.9394C221.172 15.8836 221.172 15.8167 221.172 15.7608C221.172 13.4614 223.036 11.5862 225.335 11.5862C225.391 11.5862 225.458 11.5862 225.514 11.5862H240.359C242.57 11.6866 244.344 13.5172 244.344 15.7497C244.344 15.8055 244.344 15.8725 244.344 15.9283V33.3301C244.344 33.732 244.021 34.0668 243.619 34.0668H240.705V34.078ZM225.491 17.7477V21.3643C225.491 21.7661 225.815 22.101 226.217 22.101H239.243C239.645 22.101 239.969 21.7773 239.969 21.3643V17.7477C239.969 16.3413 238.83 15.2027 237.435 15.2027H228.025C226.63 15.2027 225.491 16.3413 225.491 17.7477Z" fill="white"/>
<path d="M195.431 11.5751C195.643 11.5751 195.844 11.6644 195.978 11.8318L208.792 27.1128C209.228 27.6263 210.065 27.3138 210.065 26.6329V12.3118C210.065 11.9099 210.389 11.5751 210.79 11.5751H213.648C214.05 11.5751 214.374 11.8988 214.374 12.3118V33.3413C214.374 33.7432 214.05 34.078 213.648 34.078H210.098C210.087 34.078 210.076 34.0669 210.076 34.0557C210.076 34.0445 210.076 34.0446 210.065 34.0334L197.027 18.864C196.592 18.3505 195.755 18.6742 195.755 19.344V33.3525C195.755 33.7543 195.431 34.0892 195.029 34.0892H192.15C191.748 34.0892 191.424 33.7655 191.424 33.3525V12.3118C191.424 11.9099 191.748 11.5751 192.15 11.5751H195.431Z" fill="white"/>
<path d="M9.45829 34.8484C9.81548 34.4912 10.2955 34.2903 10.7978 34.2903H57.2882C58.1366 34.2903 58.5607 35.3172 57.958 35.9088L48.7715 45.0841C48.4143 45.4413 47.9343 45.6422 47.432 45.6422H0.952707C0.104381 45.6422 -0.319782 44.6153 0.282976 44.0237L9.45829 34.8484Z" fill="white"/>
<path d="M9.45829 0.558109C9.81548 0.200919 10.2955 0 10.7978 0H57.2882C58.1366 0 58.5607 1.02692 57.958 1.61852L48.7715 10.7938C48.4143 11.151 47.9343 11.3519 47.432 11.3519H0.952707C0.104381 11.3519 -0.319782 10.325 0.282976 9.73343L9.45829 0.558109Z" fill="white"/>
<path d="M48.7715 17.5912C48.4143 17.234 47.9343 17.0331 47.432 17.0331H0.952707C0.104381 17.0331 -0.319782 18.06 0.282976 18.6516L9.46946 27.8269C9.82665 28.1841 10.3066 28.385 10.8089 28.385H57.2994C58.1477 28.385 58.5719 27.3581 57.9692 26.7665L48.7715 17.5912Z" fill="white"/>
</g>
</svg>
