<svg width="227" height="46" viewBox="0 0 227 46" fill="none" xmlns="http://www.w3.org/2000/svg">
<g opacity="0.29">
<path d="M13.8526 19.0306L22.6489 10.2379L31.4488 19.0378L36.5642 13.9188L22.6489 0L8.73364 13.9153L13.8526 19.0306Z" fill="white"/>
<path d="M0 22.6461L5.11709 17.529L10.2342 22.6461L5.11709 27.7632L0 22.6461Z" fill="white"/>
<path d="M13.8527 26.2599L22.649 35.0562L31.4489 26.2563L36.5678 31.3682L36.5642 31.3717L22.649 45.2906L8.73372 31.3789L8.72656 31.3717L13.8527 26.2599Z" fill="white"/>
<path d="M35.0552 22.6476L40.1723 17.5305L45.2893 22.6476L40.1723 27.7647L35.0552 22.6476Z" fill="white"/>
<path d="M27.8396 22.6439L22.6491 17.4498L18.8107 21.2882L18.3672 21.7281L17.4586 22.6368L17.4514 22.6439L17.4586 22.6546L22.6491 27.8416L27.8396 22.6475L27.8431 22.6439H27.8396Z" fill="white"/>
<path d="M53.2734 10.9739H64.4057C67.1672 10.9739 69.2563 11.6893 70.6729 13.1202C71.2066 13.6487 71.6273 14.2802 71.9096 14.9763C72.1918 15.6724 72.3297 16.4186 72.3148 17.1696V17.2375C72.3244 17.8527 72.2387 18.4657 72.0608 19.0547C71.9024 19.5618 71.6723 20.0436 71.3776 20.4856C71.1029 20.9024 70.7705 21.2782 70.3903 21.6017C70.0188 21.9214 69.612 22.1975 69.1776 22.4245C70.4302 22.8607 71.5565 23.5977 72.4579 24.5708C73.2544 25.477 73.6527 26.729 73.6527 28.3268V28.3948C73.6753 29.3927 73.4582 30.3814 73.0195 31.278C72.5945 32.1041 71.9714 32.812 71.2059 33.3385C70.3405 33.9186 69.3769 34.3368 68.362 34.5726C67.1563 34.8585 65.9202 34.9967 64.6811 34.984H53.2734V10.9739ZM63.2896 20.6824C64.2527 20.7289 65.2112 20.5217 66.069 20.0814C66.4036 19.886 66.6767 19.6008 66.8576 19.2581C67.0384 18.9155 67.1196 18.529 67.0921 18.1426V18.0746C67.1098 17.7185 67.0375 17.3637 66.8818 17.043C66.7261 16.7222 66.4921 16.4459 66.2014 16.2395C65.6076 15.8174 64.7503 15.6063 63.6294 15.6063H58.421V20.6824H63.2896ZM64.6954 30.3587C65.655 30.4124 66.6101 30.1929 67.4498 29.7255C67.777 29.5153 68.0418 29.2213 68.2167 28.874C68.3916 28.5267 68.4702 28.1389 68.4443 27.7509V27.6829C68.4572 27.3141 68.3795 26.9478 68.2179 26.6161C68.0564 26.2843 67.816 25.9972 67.5178 25.7799C66.9025 25.3029 65.9081 25.0644 64.5344 25.0644H58.421V30.3587H64.6954Z" fill="white"/>
<path d="M80.2847 10.9739H85.5682V34.9911H80.2847V10.9739Z" fill="white"/>
<path d="M93.5632 10.9739H98.4354L109.696 25.7548V10.9739H114.912V34.9911H110.415L98.7859 19.7237V34.9911H93.5632V10.9739Z" fill="white"/>
<path d="M130.909 10.8022H135.774L146.066 34.9912H140.55L138.353 29.6039H128.198L126.001 34.9912H120.614L130.909 10.8022ZM136.468 24.9393L133.27 17.1482L130.086 24.9393H136.468Z" fill="white"/>
<path d="M151.778 10.9739H156.65L167.904 25.7548V10.9739H173.12V34.9911H168.623L156.994 19.7237V34.9911H151.778V10.9739Z" fill="white"/>
<path d="M192.136 35.4135C190.452 35.4279 188.783 35.1018 187.228 34.4548C185.765 33.8505 184.437 32.9593 183.323 31.8338C182.209 30.7083 181.332 29.3713 180.743 27.9014C180.121 26.364 179.807 24.7198 179.816 23.0615V22.9935C179.789 19.7248 181.046 16.576 183.318 14.2258C184.436 13.0778 185.775 12.1677 187.253 11.5501C188.862 10.8839 190.589 10.5516 192.329 10.5735C193.359 10.5658 194.387 10.6581 195.399 10.849C196.264 11.0127 197.111 11.2656 197.924 11.6038C198.662 11.9145 199.364 12.3056 200.017 12.7699C200.654 13.2228 201.252 13.7277 201.805 14.2795L198.446 18.1572C197.588 17.3653 196.625 16.6949 195.585 16.1647C194.562 15.6759 193.441 15.431 192.308 15.4492C191.365 15.4392 190.431 15.6298 189.568 16.0085C188.704 16.3872 187.931 16.9453 187.3 17.6456C186.674 18.3442 186.184 19.1534 185.855 20.0316C185.51 20.9597 185.337 21.9427 185.343 22.9327V23.0007C185.34 23.9893 185.513 24.9705 185.855 25.8982C186.18 26.7796 186.665 27.5934 187.286 28.2985C187.912 29.0076 188.683 29.5738 189.547 29.9589C190.411 30.344 191.348 30.539 192.294 30.5307C193.498 30.5686 194.694 30.3094 195.774 29.7759C196.803 29.2152 197.754 28.5225 198.604 27.7154L201.966 31.1137C201.373 31.7581 200.73 32.3561 200.045 32.9023C199.372 33.4345 198.642 33.8892 197.867 34.2581C197.041 34.6467 196.172 34.9338 195.277 35.113C194.243 35.3203 193.191 35.421 192.136 35.4135Z" fill="white"/>
<path d="M208.201 10.9739H226.277V15.6743H213.399V20.5464H224.739V25.2469H213.417V30.2907H226.456V34.9911H208.212L208.201 10.9739Z" fill="white"/>
</g>
</svg>
