<svg width="185" height="90" viewBox="0 0 185 90" fill="none" xmlns="http://www.w3.org/2000/svg">
<path d="M37.9511 8.30213C31.2465 27.9564 24.5418 47.6534 20.0078 68.2808C23.4516 69.5016 27.0527 70.2218 30.7011 70.4194C32.0841 65.3651 33.46 60.3072 34.8287 55.2457C34.6918 55.1435 34.5353 55.0707 34.3689 55.0318C37.1407 55.7013 39.6794 57.1092 41.7152 59.1059C43.8639 61.2321 45.7948 63.5677 47.4789 66.078C47.439 67.4917 47.8381 68.883 48.6213 70.0607C49.4044 71.2383 50.5333 72.1444 51.8524 72.6543C53.1784 73.0986 54.5932 73.211 55.9727 72.9817C57.3522 72.7524 58.6544 72.1884 59.7654 71.3391C59.5303 72.6007 59.5303 73.8949 59.7654 75.1566C59.8528 75.7084 60.0184 76.2449 60.2573 76.7499C60.8005 77.7585 61.6404 78.5759 62.6633 79.0917C64.3992 80.0164 66.4007 80.3148 68.3308 79.9365C68.2921 81.118 68.6238 82.2821 69.2796 83.2658C69.9354 84.2494 70.8823 85.0034 71.9879 85.4221C74.2321 86.1213 76.656 85.9612 78.7888 84.973C79.0795 85.8154 79.5378 86.5902 80.1362 87.2507C80.886 87.8767 81.8138 88.2508 82.7881 88.32C85.2001 88.5445 87.6153 87.9246 89.6211 86.5663C90.7852 87.2438 92.0999 87.6202 93.4462 87.6613C94.7925 87.7024 96.1277 87.4069 97.331 86.8016C97.9742 86.4766 98.5508 86.0341 99.0312 85.497C99.9719 84.3363 100.499 82.8951 100.528 81.4014C100.531 79.8938 100.449 78.3873 100.282 76.8889C101.394 78.3859 102.736 79.6962 104.26 80.7705C105.001 81.3106 105.85 81.6855 106.748 81.87C107.646 82.0544 108.574 82.0442 109.468 81.8399C110.949 81.3575 112.196 80.3392 112.965 78.9848C113.778 77.5456 114.233 75.9318 114.291 74.2797C114.875 75.2895 115.517 76.2642 116.215 77.199C116.84 78.0899 117.597 78.8797 118.461 79.5408C119.318 80.1985 120.389 80.5148 121.466 80.4284C122.293 80.2555 123.061 79.8681 123.691 79.305C124.322 78.742 124.793 78.0231 125.059 77.2204C125.624 75.5938 125.913 73.8843 125.914 72.1624C125.968 71.168 126.021 70.1735 125.978 69.1469C126.782 70.8703 127.741 72.5168 128.844 74.0658C129.921 75.5927 131.402 76.7888 133.121 77.5198C133.549 77.6695 133.988 77.7871 134.426 77.9047C134.766 78.0518 135.135 78.1204 135.505 78.1056C135.875 78.0908 136.237 77.9929 136.565 77.8192C136.792 77.6169 136.976 77.3703 137.104 77.0945C137.233 76.8186 137.304 76.5194 137.313 76.2152C137.303 75.5753 137.431 74.9407 137.687 74.3546C144.242 71.7668 150.701 68.8796 156.935 65.7999C157.535 68.2194 158.289 70.5982 159.192 72.9217C163.871 71.7778 168.385 70.0384 172.622 67.7461C176.359 66.3314 179.942 64.54 183.316 62.3995C182.77 42.9377 179.627 23.2193 171.136 5.89615C170.641 4.77914 169.99 3.73852 169.201 2.80579C159.881 6.21075 150.843 10.3403 142.168 15.1565C142.447 15.6241 142.609 16.1525 142.638 16.6964C133.624 17.37 124.791 14.1728 116.269 11.0075C113.621 9.86225 110.823 9.09896 107.96 8.74056C105.309 8.71357 102.659 8.89593 100.036 9.28592C96.986 7.44537 93.6874 6.05175 90.2413 5.14762C88.2078 4.47579 86.0843 4.11527 83.943 4.07829C81.984 4.1569 80.0464 4.51704 78.19 5.14762C68.0848 8.24867 58.632 13.9696 48.1418 14.9961L48.3985 12.7719C48.4848 12.3788 48.4358 11.9681 48.2595 11.6064C44.859 10.1628 41.4158 8.74056 37.9511 8.30213Z" fill="url(#paint0_linear_48_1290)"/>
<path d="M178.493 61.9183H178.386L169.136 58.2612C169.092 58.2525 169.049 58.2341 169.013 58.2072C168.976 58.1803 168.945 58.1457 168.924 58.1057C168.902 58.0657 168.889 58.0214 168.886 57.976C168.883 57.9305 168.891 57.885 168.907 57.8426C168.924 57.8002 168.95 57.7621 168.983 57.7309C169.016 57.6997 169.056 57.6762 169.099 57.662C169.143 57.6479 169.189 57.6435 169.234 57.6491C169.279 57.6547 169.322 57.6702 169.361 57.6945L178.611 61.3409C178.649 61.3562 178.683 61.3788 178.713 61.4076C178.742 61.4363 178.765 61.4706 178.781 61.5084C178.797 61.5462 178.805 61.5867 178.805 61.6277C178.805 61.6687 178.797 61.7094 178.782 61.7473C178.756 61.8013 178.715 61.8466 178.664 61.8771C178.612 61.9075 178.553 61.9219 178.493 61.9183Z" fill="black"/>
<path d="M181.626 58.2826H181.519C176.405 56.4455 171.406 54.303 166.549 51.8666C166.513 51.8495 166.48 51.8253 166.453 51.7954C166.427 51.7656 166.406 51.7307 166.393 51.6928C166.38 51.6549 166.375 51.6148 166.378 51.5749C166.381 51.5349 166.392 51.4959 166.41 51.4603C166.448 51.3883 166.513 51.3339 166.591 51.3081C166.668 51.2823 166.753 51.287 166.827 51.3212C171.67 53.7478 176.651 55.8901 181.744 57.7372C181.782 57.7493 181.818 57.7689 181.848 57.795C181.879 57.821 181.904 57.853 181.922 57.8889C181.94 57.9248 181.95 57.964 181.953 58.004C181.955 58.0441 181.95 58.0843 181.936 58.1222C181.906 58.176 181.86 58.2198 181.805 58.2483C181.75 58.2767 181.688 58.2886 181.626 58.2826Z" fill="black"/>
<path d="M182.407 52.5833H182.311C176.654 50.6371 170.997 48.4236 165.522 45.9962C165.454 45.9592 165.402 45.898 165.377 45.8247C165.352 45.7514 165.355 45.6713 165.386 45.6002C165.417 45.5291 165.473 45.4721 165.544 45.4405C165.615 45.4089 165.695 45.405 165.768 45.4295C171.232 47.8461 176.868 50.0596 182.514 51.9951C182.581 52.0213 182.636 52.0698 182.671 52.1324C182.706 52.195 182.719 52.2678 182.706 52.3384C182.693 52.4091 182.657 52.4731 182.602 52.5197C182.548 52.5663 182.479 52.5926 182.407 52.594V52.5833Z" fill="black"/>
<path d="M182.407 47.0548C182.372 47.0649 182.335 47.0649 182.3 47.0548C175.713 44.467 170.612 42.2321 163.576 39.1204C163.508 39.0834 163.456 39.0222 163.431 38.9489C163.405 38.8756 163.409 38.7955 163.439 38.7244C163.47 38.6533 163.527 38.5963 163.597 38.5647C163.668 38.5331 163.748 38.5291 163.822 38.5536C170.858 41.6653 175.959 43.9002 182.524 46.488C182.562 46.5022 182.597 46.5237 182.626 46.5515C182.655 46.5792 182.678 46.6126 182.694 46.6495C182.71 46.6864 182.718 46.7262 182.719 46.7664C182.719 46.8067 182.711 46.8465 182.696 46.8837C182.67 46.9378 182.629 46.983 182.577 47.0135C182.526 47.044 182.467 47.0584 182.407 47.0548Z" fill="black"/>
<path d="M180.739 40.8205H180.621L161.737 32.7363C161.662 32.7035 161.603 32.6423 161.573 32.5662C161.543 32.4901 161.544 32.4052 161.576 32.33C161.592 32.2919 161.614 32.2574 161.643 32.2284C161.672 32.1995 161.707 32.1768 161.745 32.1618C161.783 32.1467 161.824 32.1397 161.865 32.141C161.906 32.1424 161.946 32.1521 161.983 32.1696L180.867 40.2537C180.939 40.2866 180.996 40.3459 181.026 40.4196C181.056 40.4932 181.057 40.5754 181.028 40.6494C181 40.7018 180.958 40.7455 180.907 40.7757C180.856 40.8059 180.798 40.8214 180.739 40.8205Z" fill="black"/>
<path d="M180.161 34.9181H180.033L159.523 25.3903C159.448 25.3563 159.389 25.2938 159.36 25.2166C159.331 25.1394 159.334 25.0538 159.368 24.9786C159.402 24.9035 159.465 24.8449 159.542 24.8159C159.619 24.7868 159.705 24.7896 159.78 24.8236L180.289 34.362C180.352 34.3926 180.402 34.4432 180.432 34.5056C180.462 34.5679 180.47 34.6386 180.455 34.7063C180.441 34.7739 180.404 34.8347 180.35 34.8789C180.297 34.9231 180.23 34.9482 180.161 34.9501V34.9181Z" fill="black"/>
<path d="M178.162 27.4539C178.119 27.4643 178.075 27.4643 178.033 27.4539L157.342 17.6909C157.275 17.6526 157.225 17.5909 157.201 17.5178C157.178 17.4447 157.182 17.3654 157.213 17.2952C157.25 17.224 157.312 17.1692 157.388 17.1415C157.463 17.1138 157.546 17.1152 157.62 17.1455L178.29 26.9192C178.327 26.9353 178.36 26.9588 178.388 26.9882C178.416 27.0176 178.438 27.0524 178.452 27.0904C178.466 27.1283 178.472 27.1688 178.47 27.2092C178.468 27.2496 178.457 27.2892 178.44 27.3255C178.408 27.3692 178.366 27.4039 178.318 27.4264C178.269 27.4489 178.215 27.4584 178.162 27.4539Z" fill="black"/>
<path d="M173.51 17.6911C173.472 17.7006 173.431 17.7006 173.393 17.6911C168.26 15.6166 163.009 13.617 157.812 11.7563C157.774 11.7433 157.738 11.7225 157.708 11.6952C157.678 11.6679 157.653 11.6347 157.636 11.5977C157.619 11.5607 157.61 11.5205 157.609 11.4798C157.608 11.439 157.615 11.3985 157.631 11.3607C157.644 11.322 157.665 11.2863 157.692 11.2556C157.719 11.225 157.752 11.2 157.788 11.1821C157.825 11.1642 157.865 11.1538 157.906 11.1514C157.947 11.149 157.988 11.1547 158.026 11.1682C163.223 13.0395 168.474 15.0392 173.628 17.1244C173.665 17.1385 173.7 17.1601 173.729 17.1878C173.758 17.2156 173.781 17.2489 173.797 17.2858C173.813 17.3228 173.822 17.3626 173.822 17.4028C173.822 17.443 173.814 17.4829 173.799 17.52C173.773 17.5741 173.732 17.6193 173.681 17.6498C173.629 17.6803 173.57 17.6947 173.51 17.6911Z" fill="black"/>
<path d="M173.104 10.8794C173.061 10.8898 173.017 10.8898 172.975 10.8794L165.586 7.67137C165.549 7.65526 165.516 7.63178 165.488 7.60237C165.46 7.57295 165.438 7.5382 165.424 7.50022C165.41 7.46223 165.404 7.4218 165.406 7.38138C165.408 7.34096 165.419 7.30138 165.437 7.26503C165.469 7.19009 165.531 7.13117 165.607 7.10113C165.683 7.07108 165.768 7.07234 165.843 7.10463L173.221 10.3126C173.296 10.3455 173.355 10.4066 173.385 10.4827C173.415 10.5589 173.414 10.6438 173.382 10.719C173.355 10.7693 173.315 10.8112 173.266 10.8396C173.217 10.868 173.16 10.8818 173.104 10.8794Z" fill="black"/>
<path d="M16.522 1.06311C23.8255 3.64019 31.2039 5.97133 38.2401 8.18484C37.0852 13.2855 34.1231 17.7126 32.1342 22.5245C31.119 25.1047 30.2479 27.7393 29.525 30.4162C25.9036 42.9059 22.4318 55.4385 19.1098 68.0138C13.084 65.8555 6.87909 64.2345 0.567627 63.1697C6.99429 42.1895 12.79 22.0326 16.522 1.06311Z" fill="#ACD4F7"/>
<g opacity="0.13">
<path opacity="0.13" d="M154.38 63.1481C153.241 63.5051 152.124 63.9264 151.033 64.4099C150.785 64.3994 150.537 64.421 150.295 64.474C149.745 64.6014 149.211 64.7879 148.701 65.0301C148.124 65.2333 147.579 65.4364 147.023 65.6824C146.798 65.7679 146.124 66.0353 145.868 66.1101L145.675 66.1743C145.504 66.1743 145.344 66.2919 145.173 66.3347H144.873L144.542 66.2491C144.304 66.0147 144.083 65.7646 143.879 65.5006L144.018 65.6931C143.836 65.4364 143.644 65.1798 143.44 64.9446L143.28 64.7628C143.098 64.4847 142.927 64.196 142.745 63.9073C142.021 62.7463 141.361 61.5469 140.767 60.3144C139.484 57.7159 138.308 55.0533 136.95 52.4976C136.232 50.7256 135.411 48.9975 134.49 47.322C131.783 42.8479 128.465 38.7737 124.631 35.2172C121.941 32.3961 118.871 29.9632 115.509 27.9886C113.348 26.527 110.884 25.5729 108.302 25.1976C108.132 25.1632 107.956 25.1638 107.786 25.1993C107.616 25.2347 107.455 25.3044 107.313 25.404C107.17 25.5036 107.05 25.6311 106.958 25.7787C106.866 25.9263 106.806 26.091 106.78 26.2627C106.754 26.4345 106.763 26.6098 106.806 26.778C106.85 26.9461 106.927 27.1037 107.034 27.241C107.14 27.3784 107.273 27.4928 107.425 27.5771C107.577 27.6615 107.744 27.7142 107.917 27.7319C109.897 27.997 111.785 28.7301 113.424 29.8706C113.321 30.1253 113.294 30.4047 113.347 30.6745C113.401 30.9442 113.531 31.1926 113.724 31.389C115.542 33.0465 117.637 34.319 119.53 35.8695C119.445 35.8695 120.503 36.7464 120.717 36.9388L121.359 37.6339C121.267 37.7201 121.195 37.8248 121.147 37.9409C121.099 38.057 121.077 38.182 121.081 38.3076C121.431 39.2237 121.906 40.0873 122.492 40.874C124.567 44.1996 127.026 47.2899 128.791 50.8294C131.349 55.871 133.007 61.3211 133.688 66.9335C134.094 68.9759 134.319 72.7079 133.688 73.7665C133.637 73.8322 133.579 73.893 133.517 73.9483L133.389 74.0338L133.143 74.1194H133.025H132.49H132.298C131.592 73.9376 131.977 74.1194 130.919 73.4992C129.282 72.5368 127.871 75.0711 129.475 76.087C133.506 79.1452 136.329 78.0545 137.131 73.9483C137.449 71.4544 137.351 68.9251 136.843 66.463C136.971 66.8373 137.089 67.2115 137.206 67.5323C137.431 69.008 137.634 70.3981 137.816 71.6386C137.79 71.6763 137.761 71.712 137.73 71.7455C137.536 72.1032 137.482 72.5207 137.578 72.9162C137.675 73.3117 137.916 73.6568 138.254 73.8841C138.399 74.1182 138.616 74.299 138.873 74.3992C139.129 74.4995 139.411 74.5139 139.676 74.4402C139.869 74.3873 140.045 74.2872 140.188 74.149C140.332 74.0108 140.439 73.8389 140.5 73.6489C144.958 71.8943 149.253 69.7472 153.332 67.2329C153.873 66.81 154.461 66.4511 155.085 66.1636C155.54 66.0036 155.941 65.7181 156.24 65.3402C156.449 65.194 156.626 65.0088 156.764 64.7948C157.459 63.2764 155.609 62.4423 154.38 63.1481Z" fill="black"/>
</g>
<g opacity="0.13">
<path opacity="0.13" d="M182.567 58.3683C182.337 58.3733 182.111 58.428 181.904 58.5287C180.835 58.8495 179.958 59.5339 178.953 59.9188C177.167 60.8277 176.472 60.9881 174.088 62.1965C169.971 64.4955 163.138 66.7518 159.459 68.3665C157.043 69.1364 158.016 72.8898 160.475 72.2589C164.335 70.9436 167.96 69.0509 171.692 67.3934C173.66 66.4417 177.381 65.0302 180.482 63.4262C181.926 62.6349 183.69 61.6939 183.904 61.2875C184.112 61.0277 184.245 60.7151 184.285 60.3845C184.326 60.054 184.275 59.7185 184.136 59.4157C183.997 59.1129 183.777 58.8545 183.5 58.6696C183.223 58.4846 182.9 58.3803 182.567 58.3683Z" fill="black"/>
</g>
<g opacity="0.13">
<path opacity="0.13" d="M46.2278 16.7392C44.6666 22.6847 41.9505 27.069 39.876 33.6132C38.6574 37.4362 37.6999 41.3376 37.0102 45.2903C36.5718 47.0333 36.2296 48.8084 35.8767 50.5835C35.4724 52.1388 35.3315 53.7508 35.4597 55.3527C35.5406 55.702 35.695 56.03 35.9126 56.3149C36.1302 56.5998 36.4061 56.8351 36.7217 57.0051C37.0374 57.1751 37.3857 57.2759 37.7433 57.3007C38.101 57.3255 38.4599 57.2739 38.796 57.1492C39.6408 58.0795 40.539 58.9563 41.4372 59.8332V59.7156C41.3731 57.9619 41.3838 56.2189 41.4372 54.4652C41.1374 53.4772 40.9508 52.4584 40.8812 51.4283C41.2234 49.5035 41.6618 47.5894 41.8757 45.6325C42.853 39.3648 44.3699 33.1932 46.4096 27.1866C46.987 25.4008 47.4789 23.5509 48.1847 21.8399C48.7194 20.2787 49.5855 18.632 49.5855 17.0066C49.5248 16.6225 49.3365 16.27 49.0511 16.0058C48.7657 15.7417 48.3996 15.5813 48.012 15.5504C47.6243 15.5195 47.2375 15.62 46.9139 15.8357C46.5903 16.0513 46.3486 16.3696 46.2278 16.7392Z" fill="black"/>
</g>
<g opacity="0.13">
<path opacity="0.13" d="M47.9923 64.8913C47.9504 65.0769 47.8454 65.2423 47.6953 65.3593C47.5452 65.4763 47.3592 65.5376 47.1689 65.5329C47.312 65.6283 47.4742 65.6911 47.6442 65.7169C47.8142 65.7428 47.9878 65.7311 48.1527 65.6826C48.4249 65.5951 48.6599 65.4192 48.8207 65.1829C48.9815 64.9466 49.0588 64.6633 49.0403 64.3781L47.9923 64.8913Z" fill="black"/>
</g>
<g opacity="0.13">
<path opacity="0.13" d="M35.4597 55.3527L35.3634 54.647C35.3609 54.8857 35.3934 55.1234 35.4597 55.3527Z" fill="black"/>
</g>
<g opacity="0.13">
<path opacity="0.13" d="M58.3541 69.6924C57.6911 70.1629 56.8036 70.0239 55.0713 69.9918C53.7646 69.9878 52.4626 69.8372 51.1896 69.5427C50.3448 69.3395 49.5535 68.6551 48.6767 68.7728C48.3068 68.8311 47.9679 69.0137 47.7158 69.2905C47.4636 69.5673 47.3133 69.9217 47.2897 70.2954C47.266 70.669 47.3704 71.0396 47.5856 71.346C47.8008 71.6524 48.114 71.8763 48.4735 71.9808C49.6199 72.4615 50.8036 72.8478 52.013 73.1356C53.014 73.4743 54.0842 73.5552 55.1247 73.3709C56.4327 73.0494 57.684 72.5301 58.8353 71.8311C59.3058 71.5103 59.9046 71.2536 60.1185 70.6548C60.1514 70.4378 60.1167 70.2159 60.0191 70.0193C59.9216 69.8227 59.766 69.6609 59.5733 69.5558C59.3806 69.4507 59.1602 69.4074 58.9421 69.4319C58.724 69.4563 58.5187 69.5473 58.3541 69.6924Z" fill="black"/>
</g>
<g opacity="0.13">
<path opacity="0.13" d="M75.8376 72.0557C75.2602 72.2589 75.1426 72.5904 74.2443 73.125C72.7209 74.0181 71.0336 74.5962 69.2826 74.8253C67.7885 75.2773 66.2347 75.5008 64.6738 75.4882C63.888 75.5167 63.1013 75.4809 62.3213 75.3813C61.8207 75.2225 61.295 75.1573 60.7708 75.1888C58.707 75.4027 58.5145 78.6107 60.5141 79.1667C65.6041 80.7173 69.8066 79.1667 73.4102 76.8677C74.528 76.2094 75.5683 75.4274 76.5113 74.5365C77.0246 73.9484 77.1529 74.0553 77.2598 73.232C77.2681 73.0532 77.2346 72.8749 77.1621 72.7113C77.0897 72.5476 76.9801 72.4031 76.8422 72.289C76.7043 72.1749 76.5417 72.0945 76.3674 72.054C76.1931 72.0135 76.0117 72.0141 75.8376 72.0557Z" fill="black"/>
</g>
<g opacity="0.13">
<path opacity="0.13" d="M97.224 83.0697C96.1547 83.2301 96.4221 83.3691 95.8553 83.5509C95.1695 83.8719 94.453 84.1227 93.7167 84.2994C93.2716 84.3971 92.8219 84.472 92.3693 84.524C92.4836 84.3734 92.5639 84.1998 92.6045 84.0152C92.6452 83.8306 92.6452 83.6393 92.6045 83.4547C92.5661 83.1064 92.4032 82.7838 92.1458 82.5461C91.8884 82.3084 91.5539 82.1715 91.2037 82.1608C90.3696 82.2142 89.7387 82.9414 88.9688 83.2301C87.8728 83.7922 86.7361 84.2712 85.5684 84.663C84.3348 85.0418 83.052 85.2364 81.7616 85.2404C81.0382 85.0802 80.3243 84.8803 79.6229 84.6416C80.9612 84.0463 82.2425 83.3305 83.4511 82.503C84.8405 81.594 86.112 80.5164 87.2365 79.295C87.3782 79.1655 87.4882 79.0051 87.558 78.8262C87.6278 78.6474 87.6555 78.4549 87.639 78.2636C87.6224 78.0724 87.5621 77.8875 87.4626 77.7233C87.3632 77.5591 87.2273 77.42 87.0654 77.3167C86.8485 77.1728 86.5866 77.1129 86.3287 77.1484C86.0708 77.1838 85.8347 77.3121 85.6646 77.5092C85.7395 77.445 85.932 77.2846 85.8143 77.3702C85.2476 77.7337 84.6701 78.108 84.0927 78.4395C80.8714 80.4748 77.2757 81.8454 73.517 82.4709C72.845 82.5741 72.1636 82.6028 71.4853 82.5564H71.2928C70.7951 82.4122 70.2816 82.3296 69.7637 82.3105C69.4966 82.3614 69.2539 82.4995 69.0736 82.7031C68.8933 82.9066 68.7855 83.1642 68.7672 83.4355C68.7489 83.7068 68.821 83.9766 68.9723 84.2025C69.1236 84.4285 69.3455 84.598 69.6033 84.6844C70.6671 85.1169 71.7807 85.415 72.9182 85.5719C74.1228 85.652 75.3326 85.5873 76.5219 85.3795C77.1626 85.3228 77.7964 85.2046 78.4146 85.0266C78.2635 85.1961 78.1507 85.3962 78.0838 85.6133C78.0169 85.8303 77.9975 86.0592 78.0269 86.2844C78.0563 86.5096 78.1338 86.7259 78.2542 86.9184C78.3746 87.111 78.5351 87.2754 78.7247 87.4005C80.2104 88.1424 81.853 88.5153 83.5135 88.4874C85.1739 88.4594 86.8032 88.0316 88.2631 87.2401C88.825 86.9991 89.3683 86.7167 89.8885 86.3953C89.8799 86.6397 89.9196 86.8834 90.0052 87.1124C90.0909 87.3414 90.2209 87.5513 90.3877 87.7301C90.5546 87.9088 90.755 88.053 90.9776 88.1542C91.2002 88.2555 91.4405 88.3118 91.6849 88.3201C93.6204 88.0635 95.7056 87.9458 97.3417 86.7161C97.8229 86.3312 98.4645 85.9997 98.6784 85.3581C98.7678 85.1118 98.7996 84.8484 98.7711 84.588C98.7427 84.3275 98.6548 84.0771 98.5143 83.856C98.3738 83.6349 98.1844 83.4491 97.9607 83.3127C97.737 83.1764 97.485 83.0932 97.224 83.0697Z" fill="black"/>
</g>
<g opacity="0.13">
<path opacity="0.13" d="M112.868 75.5096C111.671 76.1511 111.959 76.2688 111.19 76.7714C109.912 77.6634 108.396 78.1514 106.837 78.1722H106.42L105.95 78.0652C104.966 77.8942 103.918 77.1242 102.945 77.7338C102.662 77.9233 102.437 78.1879 102.295 78.498C102.153 78.8081 102.101 79.1515 102.143 79.4898C102.185 79.8281 102.32 80.148 102.534 80.4138C102.747 80.6796 103.03 80.8809 103.351 80.9952C104.629 81.4768 105.985 81.7161 107.351 81.701C109.003 81.5553 110.586 80.9721 111.938 80.0114C112.594 79.5225 113.218 78.994 113.809 78.4288C114.056 78.271 114.261 78.0568 114.408 77.8039C114.555 77.551 114.639 77.2666 114.654 76.9745C114.662 76.7513 114.618 76.5293 114.526 76.3258C114.434 76.1222 114.296 75.9427 114.123 75.801C113.95 75.6593 113.747 75.5593 113.53 75.5088C113.312 75.4582 113.086 75.4585 112.868 75.5096Z" fill="black"/>
</g>
<g opacity="0.13">
<path opacity="0.13" d="M126.299 70.5801C126.31 70.2095 126.2 69.8453 125.986 69.5425C125.772 69.2397 125.465 69.0147 125.112 68.9013H125.005C125.069 67.4931 124.965 66.0824 124.695 64.6988C124.071 62.6182 123.225 60.6107 122.172 58.7106C121.352 56.6365 120.219 54.7001 118.814 52.9683C118.664 52.8521 118.485 52.781 118.296 52.7633C118.108 52.7457 117.918 52.7823 117.749 52.8688C117.581 52.9553 117.441 53.0881 117.345 53.2516C117.249 53.415 117.203 53.6024 117.21 53.7917C117.263 54.4974 117.884 55 118.194 55.6095C119.737 58.0101 120.824 60.6744 121.402 63.4691C122.353 66.177 122.661 69.0693 122.3 71.9168V72.0237C122.3 72.1734 122.246 72.3338 122.214 72.4942C122.193 72.6065 122.165 72.7173 122.129 72.8257C121.958 73.1144 121.776 73.3925 121.594 73.6705C121.412 73.9485 120.888 74.5473 120.621 74.804L120.45 74.9109C119.648 74.9573 118.846 74.803 118.119 74.4618C117.723 74.3121 117.648 74.2586 118.119 74.4618C117.449 74.104 116.752 73.8001 116.034 73.5529C114.376 73.2321 113.563 75.745 115.028 76.6005C115.542 76.8785 116.098 77.1458 116.611 77.3811C116.656 77.6677 116.763 77.9411 116.924 78.1828C117.084 78.4245 117.295 78.6289 117.541 78.7819C117.665 78.8512 117.794 78.9119 117.926 78.9637C117.942 79.3353 118.074 79.6925 118.304 79.9844C118.535 80.2763 118.852 80.4879 119.209 80.589C119.891 80.8457 120.627 80.9266 121.348 80.8243C121.633 80.7471 121.909 80.6396 122.172 80.5035C122.958 80.2349 123.61 79.6713 123.989 78.9316C124.16 78.5704 124.19 78.159 124.075 77.7767C124.345 77.4813 124.51 77.1057 124.545 76.7074C125.273 75.6889 125.792 74.537 126.075 73.3176C126.233 72.4673 126.323 71.6054 126.342 70.7405V70.655C126.341 70.6372 126.341 70.6193 126.342 70.6015L126.299 70.5801Z" fill="black"/>
</g>
<path d="M30.1667 71.4569H29.9956C24.7345 70.4517 19.3023 69.4145 13.9556 67.8746C11.9181 67.2012 9.84817 66.6302 7.75355 66.1637C5.33328 65.6373 2.94771 64.9623 0.610412 64.1427C0.379852 64.0582 0.192015 63.8861 0.0878541 63.6637C-0.0163067 63.4414 -0.028333 63.1869 0.0543723 62.9557C0.0960516 62.8416 0.159919 62.737 0.242275 62.6477C0.324631 62.5585 0.423857 62.4864 0.534213 62.4357C0.644568 62.385 0.763848 62.3566 0.885217 62.3523C1.00659 62.3479 1.12764 62.3677 1.24134 62.4104C3.50381 63.1911 5.81045 63.8374 8.1492 64.3458C10.2893 64.8163 12.4025 65.4017 14.4796 66.0995C19.4306 67.5111 24.5206 68.5055 29.4502 69.4572C31.5889 60.3359 34.5188 51.439 37.3419 42.831C39.0207 37.6982 40.7637 32.3943 42.3463 27.0263C42.3463 27.0263 42.3463 27.0263 42.3463 26.9621C42.881 25.572 43.4157 24.2033 44.0038 22.888C45.6071 19.4088 46.8158 15.761 47.6074 12.0129C47.5877 11.9767 47.558 11.947 47.5219 11.9274C47.4268 11.9486 47.3282 11.9486 47.2331 11.9274C42.5742 10.1603 37.823 8.64677 33.0004 7.3934C27.2293 5.93035 21.572 4.05054 16.0729 1.76874C15.962 1.71959 15.8618 1.64907 15.7781 1.56121C15.6944 1.47335 15.6289 1.36986 15.5852 1.25666C15.5415 1.14347 15.5205 1.02277 15.5235 0.901468C15.5264 0.780167 15.5533 0.660633 15.6024 0.549697C15.6516 0.43876 15.7221 0.338595 15.8099 0.254912C15.8978 0.171228 16.0013 0.105666 16.1145 0.0619754C16.2277 0.018285 16.3484 -0.00268034 16.4697 0.000273941C16.591 0.00322822 16.7105 0.0300484 16.8214 0.0791976C22.2582 2.29576 27.8474 4.11832 33.5458 5.53277C38.3861 6.78552 43.1551 8.29904 47.832 10.0667C48.2915 10.1433 48.7101 10.3772 49.0163 10.7283C49.3225 11.0793 49.4973 11.5259 49.5108 11.9915C49.5108 12.045 49.5108 12.0985 49.5108 12.1519C48.7003 16.0897 47.4409 19.9215 45.7575 23.5723C45.2121 24.8662 44.6882 26.2029 44.1428 27.5502C42.5495 32.8969 40.8065 38.2435 39.1277 43.3656C36.0801 52.6581 33.1715 61.4052 31.0328 70.7618C30.9824 70.9554 30.8709 71.1276 30.7148 71.2528C30.5588 71.378 30.3666 71.4496 30.1667 71.4569Z" fill="black"/>
<path d="M19.3771 68.623C19.3062 68.6334 19.2342 68.6334 19.1633 68.623C18.9336 68.5669 18.7344 68.4245 18.607 68.2254C18.4795 68.0263 18.4337 67.7857 18.4789 67.5537C23.3396 47.1587 29.6797 27.1449 37.4488 7.67129C37.541 7.44441 37.7195 7.26343 37.9451 7.16817C38.1707 7.07292 38.4249 7.07119 38.6518 7.16336C38.8787 7.25553 39.0596 7.43405 39.1549 7.65965C39.2502 7.88526 39.2519 8.13947 39.1597 8.36635C31.4435 27.7299 25.1463 47.6291 20.3182 67.9066C20.2706 68.1176 20.1502 68.3051 19.9781 68.4361C19.806 68.5672 19.5932 68.6333 19.3771 68.623Z" fill="black"/>
<path d="M159.149 74.0552C159.004 74.0552 158.862 74.0223 158.732 73.9589C158.617 73.9014 158.516 73.8201 158.435 73.7206C158.354 73.6211 158.295 73.5055 158.261 73.3815C154.872 61.1377 151.279 48.9046 147.483 35.955C145.526 29.2717 143.494 22.3531 141.473 15.3597C141.416 15.1593 141.427 14.9455 141.504 14.752C141.581 14.5584 141.721 14.3961 141.901 14.2904C150.56 9.37695 159.617 5.19903 168.976 1.80062C169.201 1.74059 169.44 1.76709 169.647 1.87488C169.853 1.98267 170.011 2.16392 170.091 2.38284C170.17 2.60176 170.164 2.84244 170.075 3.05735C169.985 3.27225 169.818 3.44577 169.607 3.54363C160.593 6.81858 151.863 10.8278 143.505 15.5308C145.461 22.289 147.418 28.9616 149.311 35.4203C153.011 48.0491 156.508 60.0149 159.823 71.9165C167.725 68.9438 175.563 65.5647 183.155 61.8434C183.374 61.7564 183.617 61.7551 183.836 61.8398C184.055 61.9245 184.234 62.0889 184.336 62.3C184.439 62.5112 184.459 62.7535 184.39 62.9782C184.322 63.2029 184.171 63.3935 183.968 63.5116C175.982 67.4046 167.805 70.895 159.47 73.9696C159.37 74.0199 159.261 74.049 159.149 74.0552Z" fill="black"/>
<path d="M169.415 69.3824C169.207 69.3833 169.006 69.314 168.843 69.1859C168.68 69.0578 168.565 68.8783 168.516 68.6766C163.533 49.0331 157.823 29.3039 151.653 10.0453C151.615 9.92952 151.6 9.80727 151.61 9.6857C151.619 9.56412 151.653 9.44566 151.709 9.33719C151.764 9.22872 151.841 9.13242 151.934 9.05389C152.028 8.97536 152.136 8.91617 152.252 8.87976C152.367 8.84173 152.489 8.8271 152.609 8.83674C152.73 8.84638 152.848 8.88009 152.956 8.93589C153.063 8.99169 153.159 9.06844 153.236 9.16164C153.314 9.25484 153.372 9.36261 153.407 9.47859C159.641 28.7265 165.319 48.5412 170.302 68.2275C170.333 68.3448 170.34 68.4669 170.323 68.5869C170.306 68.7069 170.266 68.8224 170.204 68.9267C170.143 69.031 170.061 69.1222 169.964 69.1949C169.867 69.2676 169.757 69.3204 169.639 69.3503L169.415 69.3824Z" fill="black"/>
<path d="M75.0358 42.7345C73.9534 42.773 72.8813 42.5117 71.9379 41.9796C70.9944 41.4475 70.2163 40.6652 69.6892 39.719C67.8606 35.987 71.3146 31.7846 72.4481 30.4052C77.121 24.7056 81.9651 18.8243 87.9961 14.3652C94.797 9.33938 102.24 7.0724 108.944 7.94925C112.33 8.53663 115.632 9.52746 118.782 10.9006C119.798 11.2856 120.846 11.7026 121.872 12.0662C128.394 14.4156 135.259 15.6694 142.19 15.7767C142.418 15.8013 142.629 15.9093 142.782 16.0801C142.936 16.2508 143.02 16.4722 143.02 16.7017C143.02 16.9312 142.936 17.1526 142.782 17.3233C142.629 17.4941 142.418 17.6021 142.19 17.6267C135.066 17.5092 128.01 16.2194 121.306 13.8092C120.236 13.4242 119.167 13.0179 118.162 12.6222C115.13 11.3134 111.953 10.3693 108.698 9.80988C102.464 8.9758 95.5028 11.1252 89.0761 15.8623C83.2376 20.1396 78.4684 25.9674 73.8595 31.5814C71.2825 34.7145 70.4591 37.1098 71.3467 38.9063C71.7486 39.5837 72.3382 40.1301 73.0442 40.4793C73.7502 40.8285 74.5423 40.9655 75.3246 40.8739C77.1049 40.6314 78.8139 40.0156 80.3397 39.0667L83.8685 37.2275C91.033 33.4848 97.7698 29.9453 104.186 25.1975C104.383 25.082 104.617 25.0442 104.841 25.0917C105.065 25.1392 105.263 25.2685 105.397 25.4543C105.53 25.6401 105.59 25.8691 105.564 26.0964C105.537 26.3238 105.427 26.5333 105.255 26.6839C98.7215 31.5173 91.8884 35.0888 84.6598 38.8635L81.1417 40.7028C79.3872 41.781 77.4217 42.4702 75.378 42.7238L75.0358 42.7345Z" fill="black"/>
<path d="M138.094 75.3492C137.913 75.3473 137.737 75.294 137.585 75.1955C137.434 75.097 137.314 74.9575 137.239 74.7931C137.142 74.5676 137.138 74.3129 137.228 74.0845C137.318 73.8562 137.495 73.6727 137.72 73.5741C143.858 70.9222 150.049 68.1633 156.123 65.3831C156.344 65.2812 156.597 65.2713 156.825 65.3555C157.054 65.4397 157.24 65.6111 157.342 65.8322C157.444 66.055 157.454 66.3091 157.37 66.5394C157.286 66.7697 157.115 66.9574 156.893 67.0619C150.808 69.8528 144.606 72.6117 138.458 75.2743C138.343 75.3246 138.219 75.3501 138.094 75.3492Z" fill="black"/>
<path d="M135.72 78.9421C135.549 78.9541 135.378 78.9541 135.207 78.9421C132.352 78.6213 129.539 76.6431 127.507 73.4992C126.285 71.4635 125.261 69.3149 124.449 67.0833L123.615 65.0408C121.327 59.6508 118.186 54.6645 114.312 50.2734C114.232 50.1821 114.171 50.076 114.132 49.961C114.093 49.8461 114.077 49.7245 114.085 49.6034C114.092 49.4823 114.124 49.3639 114.178 49.255C114.232 49.1461 114.306 49.0489 114.397 48.9688C114.489 48.8888 114.595 48.8275 114.71 48.7885C114.825 48.7495 114.946 48.7335 115.068 48.7414C115.189 48.7494 115.307 48.7811 115.416 48.8348C115.525 48.8885 115.622 48.9631 115.702 49.0544C119.711 53.5934 122.96 58.7497 125.326 64.3244C125.615 65.0088 125.893 65.6931 126.171 66.3882C126.943 68.4963 127.913 70.5264 129.069 72.4513C130.801 75.1246 133.121 76.8035 135.431 77.0601C135.644 77.1246 135.871 77.1246 136.083 77.0601C136.201 76.9745 136.383 76.6965 136.351 75.67C136.027 65.2351 132.862 55.0864 127.197 46.3169C121.617 37.7782 113.71 31.0142 104.41 26.823C104.198 26.7152 104.036 26.5304 103.956 26.3065C103.876 26.0826 103.885 25.8366 103.98 25.6191C104.076 25.4015 104.252 25.2289 104.471 25.1366C104.69 25.0443 104.936 25.0394 105.158 25.1228C114.783 29.4641 122.968 36.4649 128.748 45.301C134.596 54.359 137.864 64.8399 138.201 75.6165C138.282 76.1634 138.227 76.7219 138.04 77.2423C137.854 77.7628 137.542 78.2291 137.131 78.5999C136.706 78.8529 136.214 78.9721 135.72 78.9421Z" fill="black"/>
<path d="M93.1286 88.7478C91.5203 88.7799 89.9512 88.2505 88.6909 87.2507C88.5221 87.0924 88.4183 86.8768 88.3999 86.646C88.3815 86.4152 88.4498 86.1859 88.5915 86.0028C88.7332 85.8197 88.938 85.696 89.166 85.6559C89.394 85.6157 89.6287 85.6621 89.8244 85.7858C90.3919 86.2224 91.0406 86.5417 91.7327 86.7253C92.4248 86.9089 93.1465 86.953 93.8558 86.8551H93.9841C94.8585 86.8041 95.714 86.5803 96.5014 86.1967C97.2888 85.8131 97.9924 85.2773 98.5715 84.6202C98.9055 84.2587 99.16 83.8311 99.3184 83.3651C99.4768 82.899 99.5356 82.405 99.4911 81.9148C99.4863 81.8757 99.4863 81.8362 99.4911 81.7972C99.4714 80.0055 99.3141 78.2181 99.0206 76.4505C98.9889 76.2533 99.023 76.0511 99.1177 75.8752C99.2125 75.6993 99.3625 75.5595 99.5446 75.4774C99.7248 75.3985 99.9254 75.3788 100.118 75.4211C100.31 75.4634 100.483 75.5654 100.614 75.7127C101.832 77.2672 103.273 78.6329 104.891 79.7654C105.601 80.2664 106.416 80.599 107.274 80.7379C108.132 80.8769 109.01 80.8186 109.842 80.5674C111.831 79.7975 113.874 76.1511 113.414 74.1515C113.372 73.9182 113.42 73.6777 113.549 73.479C113.678 73.2802 113.879 73.1383 114.109 73.0821C114.342 73.0426 114.581 73.0921 114.779 73.2209C114.977 73.3496 115.12 73.5483 115.178 73.7772C115.83 76.6751 113.318 81.2625 110.452 82.3318C109.355 82.692 108.189 82.7934 107.047 82.6283C105.904 82.4632 104.815 82.036 103.865 81.3801C102.886 80.7458 101.986 79.9993 101.181 79.1559C101.256 80.0007 101.309 80.8882 101.309 81.7758C101.378 82.5111 101.294 83.2528 101.062 83.954C100.83 84.6552 100.455 85.3007 99.9616 85.8499C99.2191 86.704 98.3115 87.399 97.2935 87.8934C96.2754 88.3877 95.1679 88.6711 94.0376 88.7264H93.9199L93.1286 88.7478Z" fill="black"/>
<path d="M121.188 81.4549C120.476 81.4336 119.775 81.2737 119.124 80.9844C115.916 79.6691 114.162 75.9693 112.505 72.4298C111.361 69.9596 110.174 67.4146 108.559 65.9069C108.473 65.8214 108.405 65.7198 108.358 65.6078C108.312 65.4959 108.288 65.3758 108.288 65.2546C108.288 65.1333 108.312 65.0133 108.358 64.9013C108.405 64.7894 108.473 64.6878 108.559 64.6023C108.726 64.4239 108.956 64.3183 109.2 64.3083C109.444 64.2983 109.683 64.3847 109.864 64.5488C111.746 66.3025 113.007 69.0186 114.226 71.6492C115.798 75.0496 117.285 78.2576 119.862 79.3056C120.995 79.7654 122.289 80.2893 124.139 77.0707C124.606 76.0993 124.85 75.0364 124.856 73.9589C124.881 71.0939 124.47 68.2417 123.637 65.5005C123.53 65.0835 123.423 64.6558 123.326 64.228C123.298 64.1101 123.294 63.9877 123.313 63.868C123.332 63.7483 123.375 63.6335 123.438 63.5302C123.502 63.427 123.585 63.3372 123.683 63.2661C123.782 63.1951 123.893 63.144 124.011 63.1159C124.129 63.0879 124.251 63.0833 124.371 63.1025C124.491 63.1217 124.605 63.1642 124.709 63.2278C124.812 63.2913 124.902 63.3746 124.973 63.4728C125.044 63.5711 125.095 63.6823 125.123 63.8003C125.219 64.2173 125.326 64.6344 125.433 65.0621C126.322 67.9863 126.752 71.0311 126.705 74.0872C126.686 75.4399 126.361 76.7706 125.754 77.9796C124.139 80.6315 122.61 81.4549 121.188 81.4549Z" fill="black"/>
<path d="M65.7537 80.8883H65.5291C62.8023 80.8241 59.5943 79.1239 58.7282 76.0122C58.4733 75.0242 58.4188 73.9953 58.5678 72.986C56.8062 74.0859 54.6979 74.49 52.6544 74.1195C51.0558 73.8014 49.5895 73.0106 48.4455 71.8494C47.3016 70.6883 46.5327 69.2104 46.2384 67.6072C46.1308 67.1893 46.1252 66.7517 46.2219 66.3311C46.3187 65.9106 46.515 65.5194 46.7945 65.1906C46.8799 65.1046 46.9816 65.0363 47.0935 64.9897C47.2055 64.9432 47.3255 64.9192 47.4468 64.9192C47.568 64.9192 47.688 64.9432 47.8 64.9897C47.9119 65.0363 48.0136 65.1046 48.099 65.1906C48.2708 65.3664 48.367 65.6024 48.367 65.8482C48.367 66.094 48.2708 66.33 48.099 66.5058C48.099 66.57 47.96 66.8159 48.099 67.3506C48.3236 68.5739 48.9089 69.7021 49.7798 70.5901C50.6506 71.4781 51.7672 72.0853 52.9859 72.3337C54.1712 72.5545 55.3947 72.437 56.5163 71.9944C57.6378 71.5518 58.6119 70.8022 59.327 69.8315C59.4436 69.6657 59.6112 69.5426 59.8042 69.4809C59.9972 69.4191 60.2051 69.422 60.3963 69.4893C60.6361 69.3623 60.8824 69.2481 61.1342 69.1471C64.5444 67.7456 68.152 66.8834 71.8274 66.5914C75.538 66.292 77.0779 67.6607 77.7088 68.8263C78.1637 69.7465 78.3207 70.7855 78.1579 71.799C77.9852 73.284 77.3874 74.6876 76.4363 75.8411C75.5215 76.8679 74.4362 77.7289 73.2283 78.3861C71.005 79.8729 68.424 80.7369 65.7537 80.8883ZM60.7492 71.4675C60.3221 72.7718 60.241 74.1646 60.514 75.5096C60.8912 76.5461 61.5797 77.4406 62.4852 78.0704C63.3908 78.7003 64.4689 79.0346 65.5719 79.0277C68.0527 79.1025 70.4587 77.8514 72.2766 76.7607C73.2954 76.2051 74.2136 75.4821 74.9927 74.622C75.7145 73.7411 76.1707 72.673 76.3079 71.5424C76.4087 70.9044 76.3233 70.251 76.062 69.6604C75.3776 68.3879 73.4528 68.2702 71.9558 68.3879C68.4787 68.67 65.0664 69.4888 61.8399 70.8152C61.4353 70.9553 61.064 71.1774 60.7492 71.4675Z" fill="black"/>
<path d="M74.1161 86.9299C72.8143 86.9487 71.5331 86.6043 70.4162 85.9354C69.3715 85.257 68.5305 84.3081 67.9825 83.1895C67.4345 82.071 67.2002 80.8248 67.3044 79.5836C67.3257 79.3397 67.443 79.1142 67.6305 78.9568C67.818 78.7994 68.0604 78.7229 68.3043 78.7442C68.5482 78.7654 68.7736 78.8827 68.931 79.0702C69.0884 79.2577 69.1649 79.5001 69.1437 79.744C69.0759 80.6438 69.248 81.5455 69.6425 82.357C70.037 83.1686 70.6398 83.8609 71.3892 84.3635C72.203 84.8092 73.1083 85.0622 74.0352 85.103C74.9622 85.1437 75.8861 84.9712 76.7359 84.5987C78.6027 83.7834 80.3253 82.6711 81.8366 81.3052C84.157 79.3911 86.3385 77.2525 86.5416 74.5577C86.5749 74.3811 86.5749 74.1998 86.5416 74.0231C86.4346 73.8377 86.2745 73.6887 86.0818 73.5953C84.6726 72.8276 83.0206 72.6359 81.473 73.0607C79.9477 73.4895 78.4873 74.1226 77.1315 74.9427L76.8749 75.0817C76.7676 75.1546 76.6462 75.2043 76.5185 75.2275C76.3909 75.2507 76.2597 75.2469 76.1336 75.2164C76.0075 75.1859 75.8891 75.1294 75.7862 75.0504C75.6832 74.9715 75.5979 74.8719 75.5357 74.758C75.4735 74.6441 75.4358 74.5185 75.4251 74.3892C75.4143 74.2599 75.4308 74.1297 75.4733 74.0071C75.5158 73.8846 75.5835 73.7722 75.6721 73.6774C75.7606 73.5825 75.868 73.5072 75.9874 73.4563L76.244 73.3173C77.7428 72.4161 79.3583 71.7253 81.0453 71.2642C82.0496 70.9859 83.0993 70.9106 84.133 71.0428C85.1667 71.175 86.1637 71.512 87.0656 72.0341C87.5822 72.3284 87.9935 72.7772 88.2419 73.3173C88.4074 73.7534 88.4661 74.2227 88.413 74.6861C88.167 78.0865 85.6862 80.5674 83.0663 82.7381C81.3993 84.2336 79.4994 85.4472 77.4416 86.3311C76.3797 86.7346 75.2521 86.9376 74.1161 86.9299Z" fill="black"/>
<path d="M84.0606 89.4752C82.8182 89.474 81.5939 89.1771 80.489 88.6091C79.7603 88.2881 79.1374 87.7671 78.6927 87.1066C78.2479 86.4461 77.9995 85.673 77.9761 84.8771C77.9926 84.6321 78.1052 84.4036 78.2895 84.2413C78.4738 84.0791 78.7148 83.9963 78.9599 84.0109C79.0807 84.0178 79.199 84.0484 79.308 84.101C79.417 84.1536 79.5145 84.2273 79.5949 84.3177C79.6754 84.4081 79.7373 84.5135 79.7769 84.6278C79.8166 84.7422 79.8333 84.8632 79.826 84.984C79.7726 85.8395 80.6066 86.588 81.3445 86.9623C82.4832 87.5604 83.7884 87.7636 85.055 87.5397C87.0372 87.0215 88.8365 85.9627 90.252 84.4814C91.8881 83.0058 92.5831 81.776 92.4441 80.6212C92.3176 79.9914 91.9832 79.4224 91.4945 79.0055C91.0058 78.5885 90.3912 78.3479 89.7494 78.3221C88.3038 78.3534 86.9256 78.9392 85.8998 79.9582C85.7084 80.1106 85.465 80.1825 85.2215 80.1586C84.9779 80.1346 84.7533 80.0167 84.5952 79.8299C84.4401 79.6395 84.3665 79.3955 84.3906 79.1511C84.4146 78.9068 84.5343 78.6818 84.7235 78.5253C86.1098 77.211 87.9461 76.4765 89.8563 76.4722C90.9322 76.5254 91.9576 76.9446 92.7627 77.6602C93.5678 78.3759 94.1043 79.3451 94.2833 80.4073C94.5614 82.7705 92.8291 84.6846 91.4924 85.8502C89.8215 87.5626 87.7076 88.777 85.3865 89.3576C84.9493 89.4391 84.5053 89.4785 84.0606 89.4752Z" fill="black"/>
<path d="M60.1827 70.6656C59.9645 70.666 59.7533 70.5888 59.5868 70.4477C59.4202 70.3067 59.3093 70.111 59.2738 69.8957C58.9744 68.0672 57.071 66.9765 55.9696 66.4953C52.7616 65.0624 49.9493 65.1158 47.6502 66.6236C47.4486 66.7589 47.2016 66.8089 46.9632 66.7629C46.7249 66.7168 46.5144 66.5783 46.3777 66.3776C43.3894 61.8685 39.2209 58.2659 34.3263 55.9624C34.1037 55.8603 33.9308 55.6739 33.8456 55.4443C33.7603 55.2147 33.7698 54.9606 33.8719 54.738C33.974 54.5154 34.1603 54.3424 34.39 54.2572C34.6196 54.172 34.8736 54.1814 35.0963 54.2835C40.0349 56.5911 44.2796 60.1573 47.4043 64.6239C50.0883 63.191 53.2214 63.2552 56.7181 64.795C59.2096 65.8644 60.7708 67.6074 61.0916 69.5963C61.1131 69.7165 61.1104 69.8397 61.0837 69.9588C61.057 70.078 61.0068 70.1906 60.9361 70.2901C60.8655 70.3896 60.7757 70.4741 60.672 70.5386C60.5684 70.6031 60.4529 70.6463 60.3324 70.6656H60.1827Z" fill="black"/>
<path d="M47.8639 16.226C47.6406 16.2195 47.4271 16.1329 47.2623 15.982C47.0976 15.8311 46.9927 15.626 46.9667 15.4041C46.9408 15.1822 46.9956 14.9584 47.121 14.7736C47.2465 14.5888 47.4342 14.4552 47.65 14.3974C56.2599 12.2168 64.7184 9.47705 72.9717 6.19567L73.6133 5.94972C76.37 4.73584 79.2697 3.87707 82.2428 3.39403C89.1828 2.58134 95.5666 5.71447 101.202 8.46264C101.321 8.51006 101.429 8.58148 101.519 8.67243C101.609 8.76339 101.679 8.87192 101.725 8.99125C101.771 9.11059 101.792 9.23815 101.787 9.36598C101.781 9.49381 101.75 9.61914 101.694 9.73416C101.638 9.84917 101.558 9.9514 101.461 10.0344C101.364 10.1175 101.25 10.1795 101.128 10.2168C101.005 10.254 100.877 10.2656 100.75 10.2508C100.623 10.236 100.5 10.1951 100.389 10.1308C94.9785 7.48956 88.8619 4.48474 82.4567 5.22258C79.6392 5.69797 76.8915 6.52049 74.2763 7.67134L73.6347 7.91729C65.3019 11.218 56.7652 13.979 48.0778 16.1832C48.0092 16.2088 47.937 16.2232 47.8639 16.226Z" fill="black"/>
<path d="M178.493 61.9183H178.386L169.136 58.2612C169.092 58.2525 169.049 58.2341 169.013 58.2072C168.976 58.1803 168.945 58.1457 168.924 58.1057C168.902 58.0657 168.889 58.0214 168.886 57.976C168.883 57.9305 168.891 57.885 168.907 57.8426C168.924 57.8002 168.95 57.7621 168.983 57.7309C169.016 57.6997 169.056 57.6762 169.099 57.662C169.143 57.6479 169.189 57.6435 169.234 57.6491C169.279 57.6547 169.322 57.6702 169.361 57.6945L178.611 61.3409C178.649 61.3562 178.683 61.3788 178.713 61.4076C178.742 61.4363 178.765 61.4706 178.781 61.5084C178.797 61.5462 178.805 61.5867 178.805 61.6277C178.805 61.6687 178.797 61.7094 178.782 61.7473C178.756 61.8013 178.715 61.8466 178.664 61.8771C178.612 61.9075 178.553 61.9219 178.493 61.9183Z" fill="black"/>
<path d="M181.626 58.2826H181.519C176.405 56.4455 171.406 54.303 166.549 51.8666C166.513 51.8495 166.48 51.8253 166.453 51.7954C166.427 51.7656 166.406 51.7307 166.393 51.6928C166.38 51.6549 166.375 51.6148 166.378 51.5749C166.381 51.5349 166.392 51.4959 166.41 51.4603C166.448 51.3883 166.513 51.3339 166.591 51.3081C166.668 51.2823 166.753 51.287 166.827 51.3212C171.67 53.7478 176.651 55.8901 181.744 57.7372C181.782 57.7493 181.818 57.7689 181.848 57.795C181.879 57.821 181.904 57.853 181.922 57.8889C181.94 57.9248 181.95 57.964 181.953 58.004C181.955 58.0441 181.95 58.0843 181.936 58.1222C181.906 58.176 181.86 58.2198 181.805 58.2483C181.75 58.2767 181.688 58.2886 181.626 58.2826Z" fill="black"/>
<path d="M182.407 52.5833H182.311C176.654 50.6371 170.997 48.4236 165.522 45.9962C165.454 45.9592 165.402 45.898 165.377 45.8247C165.352 45.7514 165.355 45.6713 165.386 45.6002C165.417 45.5291 165.473 45.4721 165.544 45.4405C165.615 45.4089 165.695 45.405 165.768 45.4295C171.232 47.8461 176.868 50.0596 182.514 51.9951C182.581 52.0213 182.636 52.0698 182.671 52.1324C182.706 52.195 182.719 52.2678 182.706 52.3384C182.693 52.4091 182.657 52.4731 182.602 52.5197C182.548 52.5663 182.479 52.5926 182.407 52.594V52.5833Z" fill="black"/>
<path d="M182.407 47.0548C182.372 47.0649 182.335 47.0649 182.3 47.0548C175.713 44.467 170.612 42.2321 163.576 39.1204C163.508 39.0834 163.456 39.0222 163.431 38.9489C163.405 38.8756 163.409 38.7955 163.439 38.7244C163.47 38.6533 163.527 38.5963 163.597 38.5647C163.668 38.5331 163.748 38.5291 163.822 38.5536C170.858 41.6653 175.959 43.9002 182.524 46.488C182.562 46.5022 182.597 46.5237 182.626 46.5515C182.655 46.5792 182.678 46.6126 182.694 46.6495C182.71 46.6864 182.718 46.7262 182.719 46.7664C182.719 46.8067 182.711 46.8465 182.696 46.8837C182.67 46.9378 182.629 46.983 182.577 47.0135C182.526 47.044 182.467 47.0584 182.407 47.0548Z" fill="black"/>
<path d="M180.739 40.8205H180.621L161.737 32.7363C161.662 32.7035 161.603 32.6423 161.573 32.5662C161.543 32.4901 161.544 32.4052 161.576 32.33C161.592 32.2919 161.614 32.2574 161.643 32.2284C161.672 32.1995 161.707 32.1768 161.745 32.1618C161.783 32.1467 161.824 32.1397 161.865 32.141C161.906 32.1424 161.946 32.1521 161.983 32.1696L180.867 40.2537C180.939 40.2866 180.996 40.3459 181.026 40.4196C181.056 40.4932 181.057 40.5754 181.028 40.6494C181 40.7018 180.958 40.7455 180.907 40.7757C180.856 40.8059 180.798 40.8214 180.739 40.8205Z" fill="black"/>
<path d="M180.161 34.9181H180.033L159.523 25.3903C159.448 25.3563 159.389 25.2938 159.36 25.2166C159.331 25.1394 159.334 25.0538 159.368 24.9786C159.402 24.9035 159.465 24.8449 159.542 24.8159C159.619 24.7868 159.705 24.7896 159.78 24.8236L180.289 34.362C180.352 34.3926 180.402 34.4432 180.432 34.5056C180.462 34.5679 180.47 34.6386 180.455 34.7063C180.441 34.7739 180.404 34.8347 180.35 34.8789C180.297 34.9231 180.23 34.9482 180.161 34.9501V34.9181Z" fill="black"/>
<path d="M178.162 27.4539C178.119 27.4643 178.075 27.4643 178.033 27.4539L157.342 17.6909C157.275 17.6526 157.225 17.5909 157.201 17.5178C157.178 17.4447 157.182 17.3654 157.213 17.2952C157.25 17.224 157.312 17.1692 157.388 17.1415C157.463 17.1138 157.546 17.1152 157.62 17.1455L178.29 26.9192C178.327 26.9353 178.36 26.9588 178.388 26.9882C178.416 27.0176 178.438 27.0524 178.452 27.0904C178.466 27.1283 178.472 27.1688 178.47 27.2092C178.468 27.2496 178.457 27.2892 178.44 27.3255C178.408 27.3692 178.366 27.4039 178.318 27.4264C178.269 27.4489 178.215 27.4584 178.162 27.4539Z" fill="black"/>
<path d="M173.51 17.6911C173.472 17.7006 173.431 17.7006 173.393 17.6911C168.26 15.6166 163.009 13.617 157.812 11.7563C157.774 11.7433 157.738 11.7225 157.708 11.6952C157.678 11.6679 157.653 11.6347 157.636 11.5977C157.619 11.5607 157.61 11.5205 157.609 11.4798C157.608 11.439 157.615 11.3985 157.631 11.3607C157.644 11.322 157.665 11.2863 157.692 11.2556C157.719 11.225 157.752 11.2 157.788 11.1821C157.825 11.1642 157.865 11.1538 157.906 11.1514C157.947 11.149 157.988 11.1547 158.026 11.1682C163.223 13.0395 168.474 15.0392 173.628 17.1244C173.665 17.1385 173.7 17.1601 173.729 17.1878C173.758 17.2156 173.781 17.2489 173.797 17.2858C173.813 17.3228 173.822 17.3626 173.822 17.4028C173.822 17.443 173.814 17.4829 173.799 17.52C173.773 17.5741 173.732 17.6193 173.681 17.6498C173.629 17.6803 173.57 17.6947 173.51 17.6911Z" fill="black"/>
<path d="M173.104 10.8794C173.061 10.8898 173.017 10.8898 172.975 10.8794L165.586 7.67137C165.549 7.65526 165.516 7.63178 165.488 7.60237C165.46 7.57295 165.438 7.5382 165.424 7.50022C165.41 7.46223 165.404 7.4218 165.406 7.38138C165.408 7.34096 165.419 7.30138 165.437 7.26503C165.469 7.19009 165.531 7.13117 165.607 7.10113C165.683 7.07108 165.768 7.07234 165.843 7.10463L173.221 10.3126C173.296 10.3455 173.355 10.4066 173.385 10.4827C173.415 10.5589 173.414 10.6438 173.382 10.719C173.355 10.7693 173.315 10.8112 173.266 10.8396C173.217 10.868 173.16 10.8818 173.104 10.8794Z" fill="black"/>
<path d="M16.522 1.06311C23.8255 3.64019 31.2039 5.97133 38.2401 8.18484C37.0852 13.2855 34.1231 17.7126 32.1342 22.5245C31.119 25.1047 30.2479 27.7393 29.525 30.4162C25.9036 42.9059 22.4318 55.4385 19.1098 68.0138C13.084 65.8555 6.87909 64.2345 0.567627 63.1697C6.99429 42.1895 12.79 22.0326 16.522 1.06311Z" fill="#00591D"/>
<g opacity="0.13">
<path opacity="0.13" d="M46.2278 16.7392C44.6666 22.6847 41.9505 27.069 39.876 33.6132C38.6574 37.4362 37.6999 41.3376 37.0102 45.2903C36.5718 47.0333 36.2296 48.8084 35.8767 50.5835C35.4724 52.1388 35.3315 53.7508 35.4597 55.3527C35.5406 55.702 35.695 56.03 35.9126 56.3149C36.1302 56.5998 36.4061 56.8351 36.7217 57.0051C37.0374 57.1751 37.3857 57.2759 37.7433 57.3007C38.101 57.3255 38.4599 57.2739 38.796 57.1492C39.6408 58.0795 40.539 58.9563 41.4372 59.8332V59.7156C41.3731 57.9619 41.3838 56.2189 41.4372 54.4652C41.1374 53.4772 40.9508 52.4584 40.8812 51.4283C41.2234 49.5035 41.6618 47.5894 41.8757 45.6325C42.853 39.3648 44.3699 33.1932 46.4096 27.1866C46.987 25.4008 47.4789 23.5509 48.1847 21.8399C48.7194 20.2787 49.5855 18.632 49.5855 17.0066C49.5248 16.6225 49.3365 16.27 49.0511 16.0058C48.7657 15.7417 48.3996 15.5813 48.012 15.5504C47.6243 15.5195 47.2375 15.62 46.9139 15.8357C46.5903 16.0513 46.3486 16.3696 46.2278 16.7392Z" fill="black"/>
</g>
<g opacity="0.13">
<path opacity="0.13" d="M47.9923 64.8913C47.9504 65.0769 47.8454 65.2423 47.6953 65.3593C47.5452 65.4763 47.3592 65.5376 47.1689 65.5329C47.312 65.6283 47.4742 65.6911 47.6442 65.7169C47.8142 65.7428 47.9878 65.7311 48.1527 65.6826C48.4249 65.5951 48.6599 65.4192 48.8207 65.1829C48.9815 64.9466 49.0588 64.6633 49.0403 64.3781L47.9923 64.8913Z" fill="black"/>
</g>
<g opacity="0.13">
<path opacity="0.13" d="M35.4597 55.3527L35.3634 54.647C35.3609 54.8857 35.3934 55.1234 35.4597 55.3527Z" fill="black"/>
</g>
<path d="M30.1667 71.4569H29.9956C24.7345 70.4517 19.3023 69.4145 13.9556 67.8746C11.9181 67.2012 9.84817 66.6302 7.75355 66.1637C5.33328 65.6373 2.94771 64.9623 0.610412 64.1427C0.379852 64.0582 0.192015 63.8861 0.0878541 63.6637C-0.0163067 63.4414 -0.028333 63.1869 0.0543723 62.9557C0.0960516 62.8416 0.159919 62.737 0.242275 62.6477C0.324631 62.5585 0.423857 62.4864 0.534213 62.4357C0.644568 62.385 0.763848 62.3566 0.885217 62.3523C1.00659 62.3479 1.12764 62.3677 1.24134 62.4104C3.50381 63.1911 5.81045 63.8374 8.1492 64.3458C10.2893 64.8163 12.4025 65.4017 14.4796 66.0995C19.4306 67.5111 24.5206 68.5055 29.4502 69.4572C31.5889 60.3359 34.5188 51.439 37.3419 42.831C39.0207 37.6982 40.7637 32.3943 42.3463 27.0263C42.3463 27.0263 42.3463 27.0263 42.3463 26.9621C42.881 25.572 43.4157 24.2033 44.0038 22.888C45.6071 19.4088 46.8158 15.761 47.6074 12.0129C47.5877 11.9767 47.558 11.947 47.5219 11.9274C47.4268 11.9486 47.3282 11.9486 47.2331 11.9274C42.5742 10.1603 37.823 8.64677 33.0004 7.3934C27.2293 5.93035 21.572 4.05054 16.0729 1.76874C15.962 1.71959 15.8618 1.64907 15.7781 1.56121C15.6944 1.47335 15.6289 1.36986 15.5852 1.25666C15.5415 1.14347 15.5205 1.02277 15.5235 0.901468C15.5264 0.780167 15.5533 0.660633 15.6024 0.549697C15.6516 0.43876 15.7221 0.338595 15.8099 0.254912C15.8978 0.171228 16.0013 0.105666 16.1145 0.0619754C16.2277 0.018285 16.3484 -0.00268034 16.4697 0.000273941C16.591 0.00322822 16.7105 0.0300484 16.8214 0.0791976C22.2582 2.29576 27.8474 4.11832 33.5458 5.53277C38.3861 6.78552 43.1551 8.29904 47.832 10.0667C48.2915 10.1433 48.7101 10.3772 49.0163 10.7283C49.3225 11.0793 49.4973 11.5259 49.5108 11.9915C49.5108 12.045 49.5108 12.0985 49.5108 12.1519C48.7003 16.0897 47.4409 19.9215 45.7575 23.5723C45.2121 24.8662 44.6882 26.2029 44.1428 27.5502C42.5495 32.8969 40.8065 38.2435 39.1277 43.3656C36.0801 52.6581 33.1715 61.4052 31.0328 70.7618C30.9824 70.9554 30.8709 71.1276 30.7148 71.2528C30.5588 71.378 30.3666 71.4496 30.1667 71.4569Z" fill="black"/>
<path d="M19.3771 68.623C19.3062 68.6334 19.2342 68.6334 19.1633 68.623C18.9336 68.5669 18.7344 68.4245 18.607 68.2254C18.4795 68.0263 18.4337 67.7857 18.4789 67.5537C23.3396 47.1587 29.6797 27.1449 37.4488 7.67129C37.541 7.44441 37.7195 7.26343 37.9451 7.16817C38.1707 7.07292 38.4249 7.07119 38.6518 7.16336C38.8787 7.25553 39.0596 7.43405 39.1549 7.65965C39.2502 7.88526 39.2519 8.13947 39.1597 8.36635C31.4435 27.7299 25.1463 47.6291 20.3182 67.9066C20.2706 68.1176 20.1502 68.3051 19.9781 68.4361C19.806 68.5672 19.5932 68.6333 19.3771 68.623Z" fill="black"/>
<path d="M138.094 75.3492C137.913 75.3473 137.737 75.294 137.585 75.1955C137.434 75.097 137.314 74.9575 137.239 74.7931C137.142 74.5676 137.138 74.3129 137.228 74.0845C137.318 73.8562 137.495 73.6727 137.72 73.5741C143.858 70.9222 150.049 68.1633 156.123 65.3831C156.344 65.2812 156.597 65.2713 156.825 65.3555C157.054 65.4397 157.24 65.6111 157.342 65.8322C157.444 66.055 157.454 66.3091 157.37 66.5394C157.286 66.7697 157.115 66.9574 156.893 67.0619C150.808 69.8528 144.606 72.6117 138.458 75.2743C138.343 75.3246 138.219 75.3501 138.094 75.3492Z" fill="black"/>
<defs>
<linearGradient id="paint0_linear_48_1290" x1="183.316" y1="7.97814" x2="-10.731" y2="52.3644" gradientUnits="userSpaceOnUse">
<stop stop-color="#ECFFAB"/>
<stop offset="1" stop-color="#49CE53"/>
</linearGradient>
</defs>
</svg>
