<svg width="176" height="26" viewBox="0 0 176 26" fill="none" xmlns="http://www.w3.org/2000/svg">
<g opacity="0.2">
<path d="M42.6128 10.5122L42.3302 11.9711H42.281C41.9031 11.1234 40.822 9.99465 38.5153 9.99465C34.7496 9.99465 30.9363 12.9126 30.0901 17.4784C29.3377 21.479 31.3141 25.0097 35.7387 25.0097C37.3866 25.0097 39.271 24.3525 40.2108 22.9856H40.2601L39.9775 24.4922H44.1178L46.7071 10.4645H42.6128V10.5122ZM41.2952 17.4784C41.0126 18.842 39.7426 21.1028 37.1056 21.1028C34.5639 21.1028 34.0464 18.8437 34.2797 17.5704C34.5623 15.9701 36.0212 13.946 38.42 13.946C40.7743 13.946 41.5745 15.8288 41.2919 17.4784H41.2952ZM49.1091 10.5122H53.0161L52.7335 11.9711H52.7828C53.3003 11.3139 54.2417 9.99465 56.6898 9.99465L55.9373 14.2335C53.9608 14.2828 52.4871 14.6574 52.1716 16.8228L50.7127 24.5448H46.4409L49.1091 10.5122ZM59.5124 5.00496H63.7512L61.7748 15.5955H61.8684L66.7152 10.5122H71.6572L65.2086 16.6782L68.9266 24.5398H64.1718L61.4412 17.761H61.4084L60.1367 24.5398H55.9472L59.5124 5.00496ZM78.4065 9.99465C74.1677 9.99465 70.356 13.6667 69.6495 17.5737C68.897 21.7139 71.6736 25.0114 75.7219 25.0114C77.2278 25.0044 78.6997 24.5629 79.9608 23.7397C81.2784 22.9396 82.5024 21.7156 83.4931 20.163H79.2099C78.5034 20.9154 77.7033 21.4806 76.384 21.4806C74.7361 21.4806 73.5581 20.4916 73.591 18.8453H84.106C84.2473 18.5167 84.2949 18.2801 84.3886 17.761C85.1887 13.4301 82.6963 9.99465 78.4082 9.99465H78.4065ZM74.1677 15.975C74.4963 15.1273 75.6266 13.5763 77.8397 13.5763C80.0051 13.5763 80.5703 15.1289 80.5703 15.975H74.1677ZM23.8797 24.5398H28.0693V4.98853H24.4909L17.0532 16.095H17.0039V4.98853H13.4272L0.294922 24.5398H5.37826L12.7683 13.4334H12.8176V24.5398H16.442L23.7861 13.4334H23.8797V24.5398ZM95.0531 10.5122H92.4177L93.1702 6.3719H89.4982L89.2156 7.97215C88.887 9.80735 87.7566 10.3709 86.2024 10.5138H86.1531L85.4959 13.6683H87.5661L85.5419 24.5119H89.7315L91.7556 13.6683H94.4386L95.0531 10.5122Z" fill="white"/>
<path d="M160.009 19.2231C158.646 22.4236 155.35 25.013 151.584 25.013C147.345 25.013 144.664 21.6712 145.464 17.4816C146.217 13.3413 150.031 9.99787 154.267 9.99787C157.985 9.99787 160.51 12.4919 160.576 15.9126H156.337C156.055 14.9235 155.443 13.9361 153.654 13.9361C151.678 13.8424 150.03 15.4887 149.654 17.4684C149.276 19.4926 150.311 21.0452 152.337 21.0452C154.078 21.0452 155.13 20.0561 155.726 19.1623H160.009V19.2231ZM125.178 0.0168457L117.036 5.00654H119.343L111.952 16.113H111.859V5.00654H108.233L100.839 16.1146H100.79V5.00818H96.5513V24.5595H100.223L107.613 13.453H107.663V24.5595H111.287L124.373 5.00818H126.443L125.178 0.0168457ZM133.18 24.5414H129.039L129.322 23.0348H129.273C128.284 24.3985 126.447 25.059 124.8 25.059C120.328 25.059 118.399 21.5266 119.152 17.5276C120 12.9601 123.859 10.0439 127.577 10.0439C129.884 10.0439 130.967 11.1742 131.343 12.0204H131.392L131.675 10.5614H135.815L133.18 24.5414ZM126.118 21.1076C128.707 21.1076 130.025 18.8485 130.308 17.4832C130.59 15.791 129.79 13.9509 127.436 13.9509C125.037 13.9509 123.575 15.975 123.295 17.5752C123.013 18.8929 123.578 21.1076 126.121 21.1076H126.118ZM146.31 10.5171H143.675L144.427 6.37677H140.755L140.473 7.97702C140.144 9.81222 139.014 10.3758 137.46 10.5187H137.41L136.799 13.6732H138.869L136.845 24.5168H141.035L143.059 13.6732H145.742L146.31 10.5171ZM163.962 5.00983H168.152L166.88 11.976H166.929C167.823 10.6583 169.049 9.99951 170.884 9.99951C172.202 9.99951 173.71 10.517 174.416 11.5521C175.31 12.9158 175.217 14.1414 174.745 16.6831L173.286 24.4971H169.096L170.509 16.8737C170.651 16.2165 171.027 13.9081 168.817 13.9081C166.463 13.9081 166.087 16.0276 165.945 16.734L164.486 24.5003H160.346L163.962 5.00983Z" fill="white"/>
</g>
</svg>
