<svg width="131" height="127" viewBox="0 0 131 127" fill="none" xmlns="http://www.w3.org/2000/svg">
<path d="M37.6509 101.538H6.46094V125.468H37.6509V101.538Z" fill="url(#paint0_linear_48_1225)"/>
<path d="M37.6408 126.338H6.46082C6.2318 126.338 6.01199 126.248 5.84912 126.087C5.68625 125.926 5.59345 125.707 5.59082 125.478V101.538C5.59345 101.309 5.68625 101.09 5.84912 100.929C6.01199 100.768 6.2318 100.678 6.46082 100.678H37.6408C37.8698 100.678 38.0896 100.768 38.2525 100.929C38.4154 101.09 38.5082 101.309 38.5108 101.538V125.478C38.5082 125.707 38.4154 125.926 38.2525 126.087C38.0896 126.248 37.8698 126.338 37.6408 126.338ZM7.3208 124.608H36.7808V102.398H7.3208V124.608Z" fill="black"/>
<path d="M83.6609 79.2778H52.4709V125.478H83.6609V79.2778Z" fill="#00591D"/>
<path d="M83.6609 126.338H52.4709C52.2429 126.338 52.0241 126.247 51.8628 126.086C51.7015 125.925 51.6109 125.706 51.6109 125.478V79.278C51.6096 79.1647 51.6309 79.0523 51.6736 78.9474C51.7164 78.8424 51.7797 78.7471 51.8598 78.6669C51.9399 78.5868 52.0353 78.5235 52.1403 78.4808C52.2452 78.438 52.3576 78.4167 52.4709 78.418H83.6609C83.7747 78.4167 83.8876 78.438 83.9931 78.4806C84.0986 78.5232 84.1946 78.5864 84.2755 78.6663C84.3564 78.7463 84.4207 78.8416 84.4645 78.9466C84.5084 79.0516 84.531 79.1643 84.5309 79.278V125.478C84.5283 125.707 84.4355 125.926 84.2726 126.087C84.1097 126.248 83.89 126.338 83.6609 126.338ZM53.3809 124.608H82.8409V80.138H53.3809V124.608Z" fill="black"/>
<path d="M129.311 51.8679H98.1208V125.478H129.311V51.8679Z" fill="url(#paint1_linear_48_1225)"/>
<path d="M129.311 126.338H98.121C97.892 126.338 97.6721 126.248 97.5093 126.087C97.3464 125.926 97.2536 125.707 97.251 125.478V51.868C97.251 51.6373 97.3426 51.416 97.5058 51.2529C97.669 51.0897 97.8902 50.998 98.121 50.998H129.311C129.54 51.0007 129.759 51.0935 129.92 51.2564C130.081 51.4193 130.171 51.639 130.171 51.868V125.478C130.168 125.705 130.077 125.923 129.916 126.083C129.755 126.244 129.538 126.335 129.311 126.338ZM98.981 124.608H128.441V52.728H98.981V124.608Z" fill="black"/>
<path d="M0.860836 85.0978C0.670867 85.0993 0.485889 85.037 0.335446 84.921C0.185002 84.805 0.0778098 84.6419 0.0308802 84.4578C0.000674101 84.3482 -0.00747955 84.2336 0.00689339 84.1208C0.0212663 84.0079 0.0578263 83.8991 0.114559 83.8005C0.171292 83.7019 0.247064 83.6156 0.337399 83.5464C0.427733 83.4773 0.530876 83.4268 0.640866 83.3978C25.8309 76.6878 39.1309 70.2378 63.9609 55.4578C88.2514 40.9744 109.779 22.2947 127.541 0.287823C127.689 0.123285 127.894 0.0214371 128.115 0.00301773C128.336 -0.0154017 128.555 0.0509919 128.728 0.188687C128.902 0.326381 129.016 0.525006 129.048 0.744091C129.08 0.963177 129.028 1.18624 128.901 1.36782C111.021 23.5324 89.3522 42.3504 64.9009 56.9478C41.0209 71.1578 26.9009 78.2078 1.13086 85.0678C1.04311 85.0926 0.951873 85.1027 0.860836 85.0978Z" fill="#00290E"/>
<path d="M14.3809 122.988C14.3251 123.002 14.2667 123.002 14.2109 122.988C12.382 121.655 10.723 120.104 9.27091 118.368C9.24662 118.338 9.22834 118.304 9.2172 118.268C9.20606 118.231 9.20225 118.193 9.20597 118.155C9.20968 118.117 9.22087 118.08 9.23887 118.046C9.25687 118.012 9.28134 117.982 9.31089 117.958C9.34044 117.934 9.37451 117.915 9.41111 117.904C9.4477 117.893 9.48613 117.889 9.52421 117.893C9.56228 117.897 9.59922 117.908 9.63297 117.926C9.66672 117.944 9.69663 117.968 9.72092 117.998C11.1361 119.7 12.7587 121.219 14.5509 122.518C14.5817 122.54 14.6079 122.568 14.6277 122.6C14.6476 122.632 14.6607 122.668 14.6663 122.705C14.6719 122.742 14.6699 122.781 14.6604 122.817C14.6509 122.854 14.634 122.888 14.6109 122.918C14.5806 122.947 14.544 122.968 14.5041 122.98C14.4642 122.992 14.422 122.995 14.3809 122.988Z" fill="black"/>
<path d="M21.0209 122.958C20.9529 122.958 20.8865 122.937 20.8309 122.898C16.7098 119.41 12.7933 115.687 9.10083 111.748C9.07422 111.722 9.05313 111.691 9.0387 111.657C9.02427 111.622 9.01685 111.585 9.01685 111.548C9.01685 111.511 9.02427 111.474 9.0387 111.44C9.05313 111.405 9.07422 111.374 9.10083 111.348C9.15521 111.294 9.22896 111.263 9.30585 111.263C9.38273 111.263 9.45648 111.294 9.51086 111.348C13.1901 115.271 17.0933 118.977 21.2009 122.448C21.248 122.485 21.282 122.536 21.298 122.593C21.3141 122.651 21.3113 122.712 21.2901 122.768C21.2689 122.824 21.2303 122.872 21.1801 122.904C21.1298 122.936 21.0705 122.952 21.0109 122.948L21.0209 122.958Z" fill="black"/>
<path d="M27.2509 123.018C27.2146 123.02 27.1781 123.015 27.1438 123.003C27.1094 122.991 27.0778 122.972 27.0509 122.948C21.5809 117.728 16.1309 112.358 10.8609 106.948C10.8273 106.923 10.7995 106.891 10.7794 106.854C10.7594 106.817 10.7476 106.776 10.7448 106.735C10.742 106.693 10.7483 106.651 10.7633 106.612C10.7783 106.572 10.8016 106.537 10.8316 106.508C10.8617 106.478 10.8976 106.456 10.9372 106.442C10.9767 106.428 11.0188 106.423 11.0606 106.426C11.1023 106.43 11.1427 106.443 11.179 106.464C11.2154 106.485 11.2468 106.514 11.271 106.548C16.541 111.938 21.9809 117.308 27.4409 122.548C27.4953 122.602 27.5258 122.676 27.5258 122.753C27.5258 122.83 27.4953 122.904 27.4409 122.958C27.3863 122.999 27.3193 123.02 27.2509 123.018Z" fill="black"/>
<path d="M33.4309 122.608C33.357 122.605 33.2863 122.577 33.2309 122.528L15.2309 105.238C15.1752 105.185 15.1428 105.112 15.141 105.035C15.1391 104.958 15.1679 104.884 15.2209 104.828C15.274 104.772 15.3469 104.74 15.4238 104.738C15.5007 104.736 15.5752 104.765 15.6309 104.818L33.6309 122.118C33.6575 122.144 33.6786 122.175 33.6931 122.21C33.7075 122.244 33.7149 122.281 33.7149 122.318C33.7149 122.355 33.7075 122.392 33.6931 122.427C33.6786 122.461 33.6575 122.492 33.6309 122.518C33.5786 122.573 33.5068 122.605 33.4309 122.608Z" fill="black"/>
<path d="M34.611 117.398C34.5318 117.397 34.4564 117.364 34.401 117.308C30.311 113.058 26.001 108.918 21.581 105.008C21.5266 104.954 21.4961 104.88 21.4961 104.803C21.4961 104.726 21.5266 104.652 21.581 104.598C21.6071 104.571 21.6381 104.55 21.6725 104.536C21.7068 104.521 21.7438 104.514 21.781 104.514C21.8183 104.514 21.8551 104.521 21.8895 104.536C21.9238 104.55 21.9549 104.571 21.981 104.598C26.411 108.528 30.741 112.678 34.841 116.938C34.8954 116.992 34.9258 117.066 34.9258 117.143C34.9258 117.22 34.8954 117.294 34.841 117.348C34.808 117.371 34.7706 117.388 34.7311 117.396C34.6916 117.405 34.6507 117.406 34.611 117.398Z" fill="black"/>
<path d="M34.231 110.458C34.1902 110.458 34.1498 110.45 34.112 110.435C34.0742 110.419 34.0399 110.397 34.011 110.368C32.221 108.368 30.311 106.518 28.351 104.728C28.2989 104.672 28.27 104.599 28.27 104.523C28.27 104.447 28.2989 104.374 28.351 104.318C28.377 104.291 28.4082 104.27 28.4425 104.256C28.4768 104.241 28.5137 104.234 28.551 104.234C28.5882 104.234 28.6251 104.241 28.6594 104.256C28.6938 104.27 28.7249 104.291 28.751 104.318C30.751 106.108 32.641 108.018 34.451 109.988C34.487 110.029 34.5104 110.08 34.5187 110.134C34.5269 110.189 34.5197 110.244 34.4977 110.294C34.4757 110.345 34.4399 110.388 34.3945 110.418C34.349 110.449 34.2958 110.466 34.241 110.468L34.231 110.458Z" fill="black"/>
<g opacity="0.13">
<path opacity="0.13" d="M129.491 122.638C129.391 121.268 129.421 119.888 129.411 118.518C129.411 115.118 129.591 111.718 129.411 108.318C129.523 105.558 129.489 102.794 129.311 100.038C129.008 96.7137 128.885 93.3756 128.941 90.038C128.711 85.658 128.491 81.268 128.391 76.888C128.291 73.148 128.531 69.408 128.611 65.678C128.751 61.678 128.611 57.678 128.911 53.678C129 53.4574 129.04 53.2199 129.028 52.9823C129.015 52.7446 128.951 52.5126 128.839 52.3024C128.728 52.0922 128.572 51.909 128.382 51.7657C128.192 51.6223 127.973 51.5223 127.74 51.4726C127.507 51.423 127.266 51.4249 127.034 51.4782C126.803 51.5316 126.585 51.635 126.397 51.7813C126.21 51.9277 126.056 52.1133 125.948 52.3252C125.84 52.5371 125.779 52.7702 125.771 53.008C125.371 56.308 125.371 59.648 125.231 63.008C125.101 66.718 124.891 70.428 124.841 74.138C124.841 80.558 125.191 86.958 125.131 93.378C125.131 97.098 125.781 100.788 125.681 104.508C125.681 107.028 125.681 109.508 125.871 112.058C125.871 115.058 125.761 118.058 125.871 121.108C125.871 122.108 125.871 123.038 125.871 124.008C125.795 124.398 125.836 124.802 125.991 125.168C126.16 125.579 126.475 125.914 126.875 126.11C127.274 126.305 127.732 126.347 128.161 126.228C129.781 125.748 129.621 123.938 129.491 122.638Z" fill="black"/>
</g>
<g opacity="0.13">
<path opacity="0.13" d="M83.5308 122.688C82.9687 117.505 82.7749 112.288 82.9507 107.078C82.6407 102.818 83.0908 98.558 83.0208 94.298C82.9108 90.838 82.8907 87.378 82.8607 83.918C82.9348 82.5314 82.8679 81.141 82.6608 79.768C82.5018 79.4592 82.246 79.2109 81.9326 79.0612C81.6192 78.9114 81.2654 78.8684 80.9253 78.9387C80.5851 79.009 80.2774 79.1887 80.049 79.4504C79.8207 79.7122 79.6843 80.0414 79.6608 80.388C79.6608 88.088 79.7707 95.808 79.4907 103.508C79.4907 105.038 79.6808 106.508 79.6508 108.078C79.6508 110.368 79.4407 112.668 79.5807 114.958C79.5871 117.272 79.7743 119.583 80.1407 121.868C80.184 122.71 80.1472 123.553 80.0308 124.388V124.458C80.0391 124.811 80.1499 125.154 80.3498 125.445C80.5497 125.736 80.8299 125.963 81.1564 126.098C81.4829 126.232 81.8415 126.269 82.1885 126.203C82.5355 126.138 82.856 125.973 83.1107 125.728C83.8507 124.908 83.5308 123.708 83.5308 122.688Z" fill="black"/>
</g>
<g opacity="0.13">
<path opacity="0.13" d="M36.8809 123.398C36.8809 122.088 36.8809 120.788 36.8809 119.478C36.8809 113.778 36.5909 108.088 36.5009 102.388C36.468 101.958 36.2741 101.557 35.9579 101.264C35.6418 100.971 35.2268 100.809 34.7959 100.809C34.365 100.809 33.95 100.971 33.6339 101.264C33.3178 101.557 33.1239 101.958 33.0909 102.388C32.9909 108.448 33.3509 114.498 33.4109 120.558C33.4109 121.558 33.4109 122.628 33.4109 123.668C33.3645 124.224 33.4256 124.785 33.5909 125.318C33.7192 125.617 33.9272 125.875 34.1924 126.063C34.4575 126.251 34.7694 126.363 35.0938 126.386C35.4182 126.408 35.7426 126.341 36.0314 126.192C36.3202 126.042 36.5622 125.816 36.7309 125.538C37.1109 124.918 36.8509 124.138 36.8809 123.398Z" fill="black"/>
</g>
<defs>
<linearGradient id="paint0_linear_48_1225" x1="37.6509" y1="102.985" x2="-0.42008" y2="108.931" gradientUnits="userSpaceOnUse">
<stop stop-color="#ECFFAB"/>
<stop offset="1" stop-color="#49CE53"/>
</linearGradient>
<linearGradient id="paint1_linear_48_1225" x1="129.311" y1="56.3179" x2="90.4113" y2="58.2932" gradientUnits="userSpaceOnUse">
<stop stop-color="#ECFFAB"/>
<stop offset="1" stop-color="#49CE53"/>
</linearGradient>
</defs>
</svg>
