<svg width="188" height="67" viewBox="0 0 188 67" fill="none" xmlns="http://www.w3.org/2000/svg">
<g opacity="0.29">
<path d="M105.375 33.1116C105.375 35.3337 105.03 37.4305 104.311 39.3709C103.591 41.3426 102.589 43.0326 101.244 44.5035C99.8979 45.9744 98.2705 47.1324 96.2988 48.0087C94.3272 48.885 92.1051 49.2918 89.6014 49.2918C87.0977 49.2918 84.8757 48.8537 82.904 48.0087C80.9323 47.1324 79.3049 45.9744 77.9592 44.5035C76.6135 43.0326 75.5807 41.3113 74.8922 39.3709C74.2036 37.3992 73.8594 35.3337 73.8594 33.1116C73.8594 30.9209 74.2036 28.824 74.8922 26.8524C75.5807 24.8807 76.6135 23.1594 77.9592 21.6885C79.3049 20.2176 80.9636 19.0596 82.904 18.1833C84.8757 17.307 87.0977 16.9001 89.6014 16.9001C92.1051 16.9001 94.3272 17.3383 96.2988 18.1833C98.2705 19.0596 99.8979 20.2176 101.244 21.6885C102.589 23.1594 103.591 24.8807 104.311 26.8524C105.03 28.824 105.375 30.9209 105.375 33.1116ZM89.6327 44.1592C91.1662 44.1592 92.512 43.8776 93.6386 43.3142C94.7966 42.7509 95.7355 41.9685 96.5179 40.9983C97.3003 39.9968 97.8636 38.8389 98.2392 37.4931C98.6148 36.1474 98.8025 34.6765 98.8025 33.1116C98.8025 31.5468 98.6148 30.0759 98.2392 28.7302C97.8636 27.3844 97.3003 26.2264 96.5179 25.225C95.7355 24.2235 94.7966 23.4724 93.6386 22.909C92.4807 22.3457 91.1662 22.064 89.6327 22.064C88.0992 22.064 86.7535 22.3457 85.6268 22.909C84.4688 23.4724 83.5299 24.2548 82.7475 25.225C81.9651 26.2264 81.4018 27.3844 81.0262 28.7302C80.6507 30.0759 80.4629 31.5468 80.4629 33.1116C80.4629 34.6765 80.6507 36.1474 81.0262 37.4931C81.4018 38.8389 81.9651 39.9968 82.7475 40.9983C83.5299 41.9998 84.4688 42.7509 85.6268 43.3142C86.7535 43.8776 88.0992 44.1592 89.6327 44.1592ZM109.506 48.7598V17.4635H116.078V32.4857L126.938 17.4635H134.543L123.026 32.9239L135.325 48.7598H127.188L116.047 33.3933V48.7598H109.506ZM137.954 17.4635H156.763V22.69H144.558V30.2637H156.2V35.4589H144.558V43.5333H156.92V48.7598H137.986V17.4635H137.954ZM180.204 17.4635H187.34L177.043 33.0177L187.528 48.7598H180.329L173.569 38.0877L166.809 48.7598H159.611L170.096 33.0177L159.799 17.4635H166.935L173.569 28.0416L180.204 17.4635Z" fill="white"/>
<path d="M33.1741 30.0445C41.4706 30.0445 48.1963 23.3188 48.1963 15.0222C48.1963 6.72568 41.4706 0 33.1741 0C24.8775 0 18.1519 6.72568 18.1519 15.0222C18.1519 23.3188 24.8775 30.0445 33.1741 30.0445Z" fill="white"/>
<path d="M33.1741 66.3482C41.4706 66.3482 48.1963 59.6225 48.1963 51.3259C48.1963 43.0294 41.4706 36.3037 33.1741 36.3037C24.8775 36.3037 18.1519 43.0294 18.1519 51.3259C18.1519 59.6225 24.8775 66.3482 33.1741 66.3482Z" fill="white"/>
<path d="M51.3259 48.1963C59.6225 48.1963 66.3482 41.4706 66.3482 33.1741C66.3482 24.8775 59.6225 18.1519 51.3259 18.1519C43.0294 18.1519 36.3037 24.8775 36.3037 33.1741C36.3037 41.4706 43.0294 48.1963 51.3259 48.1963Z" fill="white"/>
<path d="M15.0222 48.1963C23.3188 48.1963 30.0445 41.4706 30.0445 33.1741C30.0445 24.8775 23.3188 18.1519 15.0222 18.1519C6.72568 18.1519 0 24.8775 0 33.1741C0 41.4706 6.72568 48.1963 15.0222 48.1963Z" fill="white"/>
<path fill-rule="evenodd" clip-rule="evenodd" d="M29.622 29.622C24.1786 28.3023 19.8939 24.0176 18.5742 18.5742C24.0176 19.8939 28.3023 24.1786 29.622 29.622Z" fill="#CBCBCB"/>
<path fill-rule="evenodd" clip-rule="evenodd" d="M18.5742 47.7739C19.8939 42.3305 24.1786 38.0458 29.622 36.7261C28.3023 42.1695 24.0176 46.4542 18.5742 47.7739Z" fill="#CBCBCB"/>
<path fill-rule="evenodd" clip-rule="evenodd" d="M36.7261 36.7261C42.1695 38.0458 46.4542 42.3305 47.7739 47.7739C42.3305 46.4542 38.0458 42.1695 36.7261 36.7261Z" fill="#CBCBCB"/>
<path fill-rule="evenodd" clip-rule="evenodd" d="M47.7739 18.5742C46.4542 24.0176 42.1695 28.3023 36.7261 29.622C38.0458 24.1786 42.3305 19.8939 47.7739 18.5742Z" fill="#CBCBCB"/>
</g>
</svg>
