<svg width="119" height="45" viewBox="0 0 119 45" fill="none" xmlns="http://www.w3.org/2000/svg">
<path opacity="0.2" fill-rule="evenodd" clip-rule="evenodd" d="M42.683 13.7458V26.9619H49.1395V21.8788C49.1395 18.5443 49.1395 16.7042 49.1899 16.4602C49.2525 15.9685 49.4213 15.4966 49.6842 15.0776C49.9024 14.7708 50.2011 14.5313 50.5467 14.3858C50.8924 14.2404 51.2714 14.1948 51.6413 14.2541C52.7712 14.3151 53.4269 14.9861 53.659 16.2874C53.659 16.4805 53.659 18.4833 53.659 21.8178V26.9619H60.1154V20.8622C60.1154 15.7791 60.1154 14.6709 60.0448 14.1626C59.9311 12.5558 59.2721 11.0373 58.1784 9.86231C57.2682 8.94864 56.0762 8.3749 54.7989 8.23571C54.0152 8.17195 53.2269 8.19582 52.4484 8.30688C51.3406 8.53462 50.3254 9.09037 49.5329 9.90298L49.0789 10.3605V0.519531H42.683V13.7458ZM111.283 0.722857C111.111 1.11934 104.554 17.1108 104.554 17.1413H112.19L115.6 8.86602C117.467 4.31154 119 0.570363 119 0.550031C119 0.529698 117.285 0.550031 115.187 0.550031H111.373L111.283 0.722857ZM28.5394 8.23571C27.2562 8.39359 26.0268 8.84947 24.948 9.56749C23.8463 10.3407 22.9178 11.3383 22.2227 12.4959C21.5276 13.6534 21.0813 14.9451 20.9128 16.2874C20.7255 17.6915 20.7973 19.1184 21.1246 20.4962C21.4488 21.9771 22.1396 23.3512 23.1327 24.4907C24.1258 25.6301 25.3888 26.4977 26.8043 27.0128C27.6412 27.3293 28.5349 27.4645 29.4272 27.4093C29.9297 27.4381 30.4338 27.4108 30.9303 27.3279C32.0747 27.1187 33.1296 26.5659 33.9568 25.742L34.3704 25.3252V26.9619H40.5948V8.66269H34.3603V10.3503L34.0677 10.0351C33.2403 9.19992 32.1881 8.62736 31.0413 8.38821C30.5719 8.27895 30.09 8.23449 29.6088 8.25604C29.0943 8.21538 28.61 8.22555 28.5394 8.23571ZM69.7496 8.28655C67.9778 8.51531 66.299 9.2173 64.8871 10.3198C63.5957 11.397 62.6069 12.7963 62.0193 14.3785C61.4316 15.9606 61.2656 17.6703 61.5378 19.3373C61.7996 21.2032 62.6135 22.9463 63.8732 24.3391C65.1329 25.7319 66.78 26.7097 68.5995 27.1449C69.4535 27.3611 70.3319 27.4636 71.2123 27.4499C72.7992 27.5007 74.3735 27.1512 75.7924 26.4333C77.147 25.7539 78.3155 24.7497 79.1949 23.5089C80.0744 22.2681 80.6381 20.8286 80.8365 19.3169C80.9424 18.3609 80.9424 17.3959 80.8365 16.4399C80.6197 14.9019 80.0422 13.4381 79.1517 12.1701C78.64 11.5087 78.0619 10.9023 77.4267 10.3605C76.0227 9.2574 74.3502 8.55513 72.5843 8.32721C71.6432 8.21711 70.6934 8.20349 69.7496 8.28655ZM90.2891 8.28655C88.5469 8.52289 86.8993 9.22494 85.5174 10.3198C84.8796 10.8589 84.3013 11.4656 83.7923 12.1294C82.899 13.3969 82.318 14.8605 82.0975 16.3992C81.9865 17.355 81.9865 18.3205 82.0975 19.2763C82.4519 21.5805 83.6257 23.6761 85.4002 25.1725C87.1747 26.6689 89.4286 27.4639 91.7418 27.4093C93.364 27.4417 94.9689 27.0679 96.4126 26.3215C98.2634 25.3453 99.7431 23.7812 100.622 21.8715C101.501 19.9618 101.731 17.8132 101.275 15.7587C100.886 13.7921 99.8831 12.0023 98.4131 10.6507C96.943 9.29909 95.0826 8.45648 93.1037 8.24588C92.1665 8.1628 91.2234 8.17642 90.2891 8.28655ZM0 8.65253C0 8.65253 1.74525 12.8207 3.87386 17.8733C6.00246 22.9259 7.73762 27.1043 7.73762 27.1246C7.73762 27.1449 7.11216 28.6597 6.34546 30.4693L4.96338 33.7835C4.96338 33.7835 6.50687 33.7835 8.38326 33.7835H11.8132L16.9683 21.2688C19.8232 14.3761 22.194 8.72369 22.194 8.68303C21.065 8.61789 19.9333 8.61789 18.8043 8.68303H15.3542L13.2659 14.0203C12.1058 16.9177 11.1676 19.3373 11.1575 19.3373C11.1474 19.3373 10.2092 16.9279 9.06926 14L7.05163 8.69319H3.52077C1.59393 8.6322 0 8.64236 0 8.65253ZM31.6768 14.1931C32.3207 14.3501 32.9099 14.6811 33.3809 15.1504C33.852 15.6198 34.1871 16.2097 34.3502 16.8567C34.4813 17.4938 34.4813 18.1512 34.3502 18.7883C34.1848 19.4308 33.8514 20.0169 33.3847 20.4854C32.9181 20.9538 32.3352 21.2876 31.697 21.4518C31.0659 21.5942 30.4114 21.5942 29.7803 21.4518C29.2246 21.3063 28.7094 21.0346 28.274 20.6575C27.8386 20.2805 27.4946 19.808 27.2683 19.2763C27.041 18.6983 26.9535 18.0742 27.0131 17.4554C27.0728 16.8366 27.2778 16.2411 27.6113 15.7181C28.0512 15.0682 28.6808 14.5723 29.4129 14.2991C30.1449 14.0259 30.9432 13.9888 31.697 14.1931H31.6768ZM71.858 14.1931C72.5473 14.316 73.1848 14.6425 73.6895 15.1312C74.1943 15.62 74.5435 16.2489 74.6928 16.938C74.8137 17.5419 74.8137 18.1641 74.6928 18.7679C74.5388 19.3896 74.223 19.9586 73.7778 20.4161C73.3327 20.8737 72.7744 21.2031 72.1606 21.3705C71.527 21.4873 70.8775 21.4873 70.2439 21.3705C69.7431 21.2356 69.2777 20.9919 68.8803 20.6565C68.483 20.321 68.1633 19.902 67.9438 19.4288C67.6946 18.9246 67.5765 18.3649 67.6008 17.8022C67.5808 17.2964 67.6739 16.7926 67.8732 16.328C68.1488 15.6744 68.6037 15.1137 69.1846 14.7116C69.996 14.2301 70.9551 14.0672 71.8782 14.2541L71.858 14.1931ZM92.3975 14.1931C92.982 14.2927 93.5316 14.5411 93.9942 14.9147C94.4567 15.2883 94.8169 15.7748 95.0406 16.328C95.2399 16.7926 95.333 17.2964 95.313 17.8022C95.3372 18.3649 95.2192 18.9246 94.97 19.4288C94.7548 19.8995 94.4402 20.3171 94.0481 20.6525C93.656 20.9879 93.196 21.233 92.7001 21.3705C92.0697 21.485 91.424 21.485 90.7935 21.3705C90.1824 21.2034 89.6265 20.8751 89.1832 20.4194C88.7399 19.9637 88.4251 19.3972 88.2714 18.7781C88.1302 18.1421 88.1302 17.4825 88.2714 16.8465C88.4621 16.0691 88.9074 15.3793 89.5353 14.8886C90.1633 14.3979 90.9371 14.1349 91.7317 14.1423C91.963 14.1603 92.1925 14.1977 92.4177 14.2541L92.3975 14.1931ZM106.077 18.7273C105.175 18.8333 104.329 19.2205 103.656 19.8347C102.983 20.4489 102.518 21.2595 102.324 22.1533C102.203 22.7914 102.203 23.4468 102.324 24.0849C102.507 24.8583 102.904 25.563 103.471 26.116C104.038 26.669 104.749 27.0471 105.522 27.2059C105.812 27.2536 106.106 27.2774 106.4 27.2771C107.328 27.2879 108.235 26.9949 108.983 26.442C109.732 25.8892 110.283 25.1064 110.552 24.2114C110.822 23.3163 110.796 22.3572 110.478 21.4783C110.16 20.5994 109.568 19.8481 108.791 19.3373C107.979 18.8556 107.035 18.649 106.097 18.7476L106.077 18.7273ZM52.9225 28.7004C52.626 28.7959 52.3542 28.9568 52.127 29.1713C51.8998 29.3858 51.7228 29.6485 51.6088 29.9405C51.4948 30.2325 51.4468 30.5464 51.4681 30.8594C51.4894 31.1724 51.5796 31.4767 51.7321 31.7502C51.982 32.1249 52.3316 32.4208 52.7409 32.6042C53.0104 32.7464 53.3174 32.7997 53.6186 32.7567C53.9198 32.7984 54.2263 32.7451 54.4963 32.6042C54.9274 32.3767 55.2793 32.022 55.5051 31.5876C55.6293 31.3395 55.7017 31.0684 55.7178 30.791C55.734 30.5136 55.6936 30.2358 55.599 29.9747C55.5045 29.7137 55.3579 29.475 55.1682 29.2733C54.9785 29.0716 54.7498 28.9112 54.4963 28.802C54.2494 28.6656 53.9706 28.5989 53.6892 28.6089C53.4302 28.5893 53.1699 28.6204 52.9225 28.7004ZM47.5253 28.802C46.7168 28.9366 45.9681 29.3161 45.3789 29.8899C44.7896 30.4638 44.3876 31.2049 44.2265 32.0146C44.1562 32.3663 44.1157 32.7234 44.1055 33.082V33.753H42.683V35.2983V36.8435H44.0651V44.1531H47.8078V36.8639H50.35V35.2983V33.753H47.828V33.4175C47.818 33.1088 47.9124 32.8059 48.0957 32.5584C48.279 32.3108 48.5403 32.1334 48.8368 32.0552C49.3027 31.935 49.793 31.9527 50.2491 32.1061L50.5417 32.1976C50.5417 32.1976 50.5417 31.4859 50.5417 30.6218V29.046L50.2794 28.9444C49.7511 28.7614 49.1929 28.682 48.635 28.7105C48.2634 28.7134 47.8925 28.744 47.5253 28.802ZM62.8493 33.57C62.1186 33.702 61.4616 34.1 61.0031 34.6883L60.7913 34.9729V33.753H56.9981V44.1734H60.7913V41.337C60.7913 39.7002 60.7913 38.3685 60.7913 38.2058C60.8418 37.8217 61.0154 37.4648 61.2856 37.1892C61.5498 36.9889 61.8801 36.8983 62.2085 36.9362C62.537 36.974 62.8385 37.1373 63.051 37.3925C63.3335 37.8093 63.3335 37.7483 63.3537 41.093V44.1429H67.1367V40.7575C67.1367 37.1282 67.1367 36.691 66.9249 36.0302C66.7713 35.431 66.4572 34.8859 66.017 34.4545C65.6591 34.0407 65.1948 33.7346 64.6752 33.57C64.0716 33.4581 63.4529 33.4581 62.8493 33.57ZM72.4128 33.57C71.6934 33.692 71.0066 33.9619 70.3952 34.363C69.2643 35.2214 68.5026 36.4838 68.2666 37.8907C68.1607 38.6562 68.1607 39.4328 68.2666 40.1984C68.4074 41.0898 68.7528 41.9357 69.2754 42.6688C69.9458 43.5736 70.9221 44.1993 72.0194 44.4276C72.715 44.5541 73.4289 44.5368 74.1177 44.3767C74.7002 44.2176 75.2319 43.9094 75.6612 43.4821L76.0446 43.1263V44.1429H79.7873V33.753H76.0446V34.8306L75.7924 34.5866C75.2469 34.0364 74.5388 33.6796 73.7747 33.57C73.3246 33.4974 72.8676 33.4769 72.4128 33.509V33.57ZM87.1012 33.57C86.3859 33.7394 85.7449 34.1391 85.2753 34.7086L85.1138 34.9221V33.753H81.3005V44.1734H85.134V41.215C85.134 38.0838 85.134 38.0228 85.356 37.5958C85.4539 37.4103 85.5988 37.2543 85.776 37.1436C85.9532 37.0329 86.1564 36.9714 86.3648 36.9655C86.5263 36.9443 86.6904 36.9629 86.8433 37.0195C86.9961 37.0762 87.1331 37.1693 87.2425 37.2909C87.646 37.6975 87.6359 37.545 87.646 41.0727V44.1734H91.429V40.3916C91.429 36.6504 91.429 36.5995 91.308 36.2031C91.2142 35.9005 91.0996 35.605 90.965 35.3186C90.8272 34.9986 90.6244 34.7112 90.3698 34.4748C90.0508 34.1264 89.6527 33.8613 89.2096 33.7022C88.5294 33.4781 87.8037 33.4326 87.1012 33.57ZM97.0986 33.57C96.0336 33.7027 95.0357 34.1651 94.2424 34.8934C93.4492 35.6218 92.8998 36.5802 92.6699 37.6365C92.549 38.0866 92.5046 38.5541 92.5387 39.0191C92.495 39.6768 92.5807 40.3367 92.7909 40.9609C93.0789 41.8389 93.5946 42.6233 94.2846 43.2328C94.9746 43.8424 95.8138 44.2549 96.7152 44.4276C97.1418 44.4991 97.5745 44.5264 98.0065 44.5089C98.7283 44.5587 99.4513 44.4332 100.115 44.1429L100.488 43.9904V40.4119L100.175 40.5949C99.7464 40.8571 99.2549 40.9976 98.753 41.0015C98.2906 41.0556 97.8227 40.967 97.4113 40.7474C97.0049 40.5502 96.6801 40.2156 96.4933 39.8019C96.3687 39.5504 96.3196 39.2678 96.3521 38.9886C96.3287 38.7292 96.3667 38.4679 96.463 38.2261C96.6309 37.8302 96.9131 37.4944 97.273 37.2623C97.6328 37.0303 98.0536 36.9127 98.4807 36.9249C99.195 36.8773 99.9048 37.0705 100.498 37.4738C100.498 37.4738 100.498 36.7012 100.498 35.7456V33.997L100.196 33.875C99.2046 33.515 98.14 33.4102 97.0986 33.57ZM105.704 33.57C104.326 33.7984 103.089 34.5539 102.251 35.679C101.413 36.8041 101.038 38.2119 101.204 39.6088C101.268 40.551 101.57 41.4611 102.082 42.252C102.459 42.8025 102.94 43.2726 103.497 43.6354C104.055 43.9983 104.678 44.2468 105.331 44.3666C106.291 44.5037 107.266 44.5037 108.226 44.3666C109.217 44.1625 110.13 43.6796 110.859 42.9738C111.168 42.6772 111.43 42.3343 111.636 41.9572C111.636 41.9572 110.899 41.6522 110.032 41.3167L108.438 40.6864L108.206 40.9304C107.97 41.1937 107.66 41.3781 107.318 41.459C107.074 41.5395 106.817 41.5689 106.562 41.5453C106.306 41.5217 106.059 41.4456 105.834 41.3218C105.609 41.1979 105.411 41.0289 105.254 40.8252C105.096 40.6215 104.981 40.3874 104.917 40.1374V39.9341H108.478H112.039V39.0699C112.056 38.6447 112.029 38.2188 111.958 37.7992C111.765 36.735 111.259 35.7539 110.506 34.9831C109.793 34.2506 108.874 33.7572 107.873 33.57C107.153 33.4682 106.423 33.4682 105.704 33.57ZM51.6716 38.9683V44.1734H55.4849V33.753H51.6716V38.9683ZM107.227 36.4471C107.478 36.5095 107.706 36.6436 107.883 36.8334C108.101 37.0248 108.253 37.2811 108.317 37.5653V37.7585H106.632C104.685 37.7585 104.836 37.7585 105.008 37.3518C105.206 36.9554 105.54 36.6451 105.948 36.4787C106.357 36.3122 106.811 36.301 107.227 36.4471ZM74.6524 36.9655C74.9306 37.0498 75.1891 37.1895 75.4126 37.3764C75.6362 37.5632 75.8202 37.7934 75.9538 38.0533C76.0899 38.3158 76.1674 38.6051 76.181 38.9009C76.1946 39.1967 76.1439 39.492 76.0324 39.766C75.921 40.04 75.7514 40.2862 75.5357 40.4873C75.32 40.6884 75.0633 40.8396 74.7836 40.9304C74.3343 41.0525 73.8609 41.0525 73.4116 40.9304C73.0943 40.8242 72.8059 40.6448 72.5695 40.4065C72.3331 40.1683 72.1551 39.8777 72.0497 39.5579C71.9772 39.3178 71.9532 39.0654 71.9791 38.8158C71.9678 38.5482 72.0344 38.2832 72.1707 38.0533C72.3935 37.6088 72.7636 37.2567 73.2168 37.058C73.67 36.8594 74.1778 36.8267 74.6524 36.9655Z" fill="white"/>
</svg>
