<svg width="248" height="100" viewBox="0 0 248 100" fill="none" xmlns="http://www.w3.org/2000/svg">
<g filter="url(#filter0_i_152_235)">
<rect x="11" y="6" width="226" height="68" rx="22" fill="black" fill-opacity="0.24"/>
</g>
<g filter="url(#filter1_f_152_235)">
<rect x="16" y="40" width="216" height="44" rx="20" fill="black" fill-opacity="0.4"/>
</g>
<rect x="13" y="6" width="222" height="65" rx="20" fill="#197A34"/>
<g filter="url(#filter2_i_152_235)">
<path d="M12 20C12 8.9543 20.9543 0 32 0H217C228.046 0 237 8.95431 237 20V45C237 56.0457 228.046 65 217 65H32C20.9543 65 12 56.0457 12 45V20Z" fill="url(#paint0_linear_152_235)"/>
</g>
<g filter="url(#filter3_if_152_235)">
<path d="M55.7603 38V24.418H58.5898C59.5856 24.418 60.3185 24.4705 60.7886 24.5757C61.2648 24.6746 61.673 24.8478 62.0132 25.0952C62.4461 25.4168 62.7801 25.8312 63.0151 26.3384C63.2563 26.8394 63.377 27.3898 63.377 27.9897C63.377 28.7072 63.2038 29.3071 62.8574 29.7896C62.5173 30.272 62.0194 30.609 61.3638 30.8008C62.1678 30.9245 62.8018 31.2863 63.2656 31.8862C63.7357 32.48 63.9707 33.2314 63.9707 34.1406C63.9707 34.6849 63.8717 35.2044 63.6738 35.6992C63.4759 36.194 63.2007 36.6177 62.8481 36.9702C62.4647 37.3475 61.9915 37.6134 61.4287 37.7681C60.8659 37.9227 59.9196 38 58.5898 38H55.7603ZM57.3374 31.6357V36.5898H58.5898C59.4495 36.5898 60.068 36.5558 60.4453 36.4878C60.8288 36.4198 61.1349 36.3022 61.3638 36.1353C61.6421 35.9373 61.8617 35.6621 62.0225 35.3096C62.1833 34.957 62.2637 34.5674 62.2637 34.1406C62.2637 33.6458 62.1678 33.216 61.9761 32.8511C61.7843 32.4862 61.506 32.2017 61.1411 31.9976C60.9246 31.8677 60.6742 31.7749 60.3896 31.7192C60.1051 31.6636 59.6629 31.6357 59.063 31.6357H58.5898H57.3374ZM57.3374 25.8188V30.3647H58.5898C59.7402 30.3647 60.5505 30.1978 61.0205 29.8638C61.4906 29.5298 61.7256 28.967 61.7256 28.1753C61.7256 27.3032 61.506 26.694 61.0669 26.3477C60.634 25.9951 59.8083 25.8188 58.5898 25.8188H57.3374ZM66.3921 24.418H68.0249V32.8696C68.0249 34.2427 68.3156 35.2508 68.897 35.894C69.4845 36.5373 70.403 36.8589 71.6523 36.8589C72.9017 36.8589 73.8171 36.5373 74.3984 35.894C74.986 35.2508 75.2798 34.2427 75.2798 32.8696V24.418H76.9219V32.8696C76.9219 34.7065 76.4827 36.0827 75.6045 36.998C74.7324 37.9072 73.415 38.3618 71.6523 38.3618C69.8958 38.3618 68.5785 37.9072 67.7002 36.998C66.8281 36.0827 66.3921 34.7065 66.3921 32.8696V24.418ZM83.1284 38V31.7842L78.5269 24.418H80.3916L83.9448 30.3091L87.4795 24.418H89.335L84.7427 31.7842V38H83.1284ZM100.913 27.4517L98.7515 32.4521H103.075L100.913 27.4517ZM100.913 23.8799L107.092 38H105.338L103.576 33.8345H98.269L96.5063 38H94.7529L100.913 23.8799ZM112.037 38.5288L106.294 24.418H108.047L112.037 34.8086L116.007 24.418H117.751L112.037 38.5288ZM119.18 38V23.8799L129.116 34.7344V24.418H130.656V38.5288L120.72 27.7949V38H119.18ZM141.891 38V25.958H138.05V24.418H147.346V25.958H143.524V38H141.891ZM154.74 36.8403C155.482 36.8403 156.188 36.7012 156.855 36.4229C157.53 36.1383 158.136 35.7271 158.674 35.189C159.206 34.6571 159.611 34.054 159.889 33.3799C160.167 32.7057 160.307 31.9914 160.307 31.2368C160.307 30.4761 160.164 29.7524 159.88 29.0659C159.602 28.3794 159.2 27.7733 158.674 27.2476C158.142 26.7157 157.539 26.3105 156.865 26.0322C156.197 25.7539 155.489 25.6147 154.74 25.6147C153.986 25.6147 153.271 25.7539 152.597 26.0322C151.923 26.3105 151.326 26.7157 150.807 27.2476C150.275 27.7856 149.87 28.3949 149.591 29.0752C149.313 29.7555 149.174 30.4761 149.174 31.2368C149.174 31.9914 149.31 32.7026 149.582 33.3706C149.86 34.0386 150.269 34.6447 150.807 35.189C151.351 35.7332 151.954 36.1445 152.616 36.4229C153.284 36.7012 153.992 36.8403 154.74 36.8403ZM161.995 31.2368C161.995 32.2078 161.816 33.1232 161.457 33.9829C161.098 34.8426 160.576 35.6064 159.889 36.2744C159.203 36.9424 158.411 37.4588 157.514 37.8237C156.624 38.1825 155.699 38.3618 154.74 38.3618C153.782 38.3618 152.857 38.1825 151.966 37.8237C151.082 37.4588 150.296 36.9424 149.61 36.2744C148.917 35.6003 148.388 34.8333 148.023 33.9736C147.665 33.1139 147.485 32.2017 147.485 31.2368C147.485 30.2658 147.665 29.3504 148.023 28.4907C148.388 27.6248 148.917 26.8548 149.61 26.1807C150.29 25.5189 151.076 25.0086 151.966 24.6499C152.857 24.2912 153.782 24.1118 154.74 24.1118C155.705 24.1118 156.633 24.2912 157.523 24.6499C158.42 25.0086 159.209 25.5189 159.889 26.1807C160.576 26.8486 161.098 27.6156 161.457 28.4814C161.816 29.3411 161.995 30.2596 161.995 31.2368ZM164.639 38V24.418H166.235V30.4575L171.94 24.418H173.87L168.044 30.5317L174.445 38H172.358L166.235 30.6895V38H164.639ZM175.865 38V24.418H183.027V25.8931H177.479V29.7896H183.027V31.2925H177.479V36.4971H183.027V38H175.865ZM185.773 38V23.8799L195.709 34.7344V24.418H197.249V38.5288L187.313 27.7949V38H185.773Z" fill="#1C8E42"/>
</g>
<defs>
<filter id="filter0_i_152_235" x="11" y="6" width="226" height="68" filterUnits="userSpaceOnUse" color-interpolation-filters="sRGB">
<feFlood flood-opacity="0" result="BackgroundImageFix"/>
<feBlend mode="normal" in="SourceGraphic" in2="BackgroundImageFix" result="shape"/>
<feColorMatrix in="SourceAlpha" type="matrix" values="0 0 0 0 0 0 0 0 0 0 0 0 0 0 0 0 0 0 127 0" result="hardAlpha"/>
<feMorphology radius="2" operator="erode" in="SourceAlpha" result="effect1_innerShadow_152_235"/>
<feOffset/>
<feGaussianBlur stdDeviation="1"/>
<feComposite in2="hardAlpha" operator="arithmetic" k2="-1" k3="1"/>
<feColorMatrix type="matrix" values="0 0 0 0 0 0 0 0 0 0 0 0 0 0 0 0 0 0 0.24 0"/>
<feBlend mode="normal" in2="shape" result="effect1_innerShadow_152_235"/>
</filter>
<filter id="filter1_f_152_235" x="0" y="24" width="248" height="76" filterUnits="userSpaceOnUse" color-interpolation-filters="sRGB">
<feFlood flood-opacity="0" result="BackgroundImageFix"/>
<feBlend mode="normal" in="SourceGraphic" in2="BackgroundImageFix" result="shape"/>
<feGaussianBlur stdDeviation="8" result="effect1_foregroundBlur_152_235"/>
</filter>
<filter id="filter2_i_152_235" x="12" y="-2" width="225" height="67" filterUnits="userSpaceOnUse" color-interpolation-filters="sRGB">
<feFlood flood-opacity="0" result="BackgroundImageFix"/>
<feBlend mode="normal" in="SourceGraphic" in2="BackgroundImageFix" result="shape"/>
<feColorMatrix in="SourceAlpha" type="matrix" values="0 0 0 0 0 0 0 0 0 0 0 0 0 0 0 0 0 0 127 0" result="hardAlpha"/>
<feMorphology radius="1" operator="erode" in="SourceAlpha" result="effect1_innerShadow_152_235"/>
<feOffset dy="-2"/>
<feGaussianBlur stdDeviation="1"/>
<feComposite in2="hardAlpha" operator="arithmetic" k2="-1" k3="1"/>
<feColorMatrix type="matrix" values="0 0 0 0 0.0867708 0 0 0 0 0.425 0 0 0 0 0.195487 0 0 0 1 0"/>
<feBlend mode="normal" in2="shape" result="effect1_innerShadow_152_235"/>
</filter>
<filter id="filter3_if_152_235" x="54.7598" y="22.8799" width="143.489" height="16.6489" filterUnits="userSpaceOnUse" color-interpolation-filters="sRGB">
<feFlood flood-opacity="0" result="BackgroundImageFix"/>
<feBlend mode="normal" in="SourceGraphic" in2="BackgroundImageFix" result="shape"/>
<feColorMatrix in="SourceAlpha" type="matrix" values="0 0 0 0 0 0 0 0 0 0 0 0 0 0 0 0 0 0 127 0" result="hardAlpha"/>
<feOffset dy="1"/>
<feGaussianBlur stdDeviation="2"/>
<feComposite in2="hardAlpha" operator="arithmetic" k2="-1" k3="1"/>
<feColorMatrix type="matrix" values="0 0 0 0 0 0 0 0 0 0 0 0 0 0 0 0 0 0 0.25 0"/>
<feBlend mode="normal" in2="shape" result="effect1_innerShadow_152_235"/>
<feGaussianBlur stdDeviation="0.5" result="effect2_foregroundBlur_152_235"/>
</filter>
<linearGradient id="paint0_linear_152_235" x1="124.5" y1="0" x2="124.5" y2="65" gradientUnits="userSpaceOnUse">
<stop stop-color="#CDFFAA"/>
<stop offset="1" stop-color="#5BF243"/>
</linearGradient>
</defs>
</svg>
