<svg width="237" height="100" viewBox="0 0 237 100" fill="none" xmlns="http://www.w3.org/2000/svg">
<g filter="url(#filter0_i_152_551)">
<rect x="11" y="6" width="215" height="68" rx="22" fill="black" fill-opacity="0.24"/>
</g>
<g filter="url(#filter1_f_152_551)">
<rect x="16" y="40" width="205" height="44" rx="20" fill="black" fill-opacity="0.4"/>
</g>
<rect x="13" y="6" width="211" height="65" rx="20" fill="#197A34"/>
<g filter="url(#filter2_i_152_551)">
<path d="M11 20C11 8.9543 19.9543 0 31 0H206C217.046 0 226 8.95431 226 20V45C226 56.0457 217.046 65 206 65H31C19.9543 65 11 56.0457 11 45V20Z" fill="url(#paint0_linear_152_551)"/>
</g>
<g filter="url(#filter3_i_152_551)">
<path d="M73.9937 27.665C73.3442 26.96 72.6515 26.4404 71.9155 26.1064C71.1795 25.7663 70.3662 25.5962 69.4756 25.5962C68.7581 25.5962 68.0562 25.7415 67.3696 26.0322C66.6893 26.3229 66.0986 26.728 65.5977 27.2476C65.0781 27.7856 64.6885 28.3887 64.4287 29.0566C64.1689 29.7184 64.0391 30.4513 64.0391 31.2554C64.0391 31.8862 64.1164 32.4676 64.271 32.9995C64.4256 33.5314 64.6576 34.02 64.9668 34.4653C65.5111 35.2384 66.179 35.8353 66.9707 36.2559C67.7686 36.6702 68.6283 36.8774 69.5498 36.8774C70.4157 36.8774 71.2197 36.6981 71.9619 36.3394C72.7041 35.9806 73.3813 35.4456 73.9937 34.7344V36.8774C73.3195 37.366 72.5928 37.7371 71.8135 37.9907C71.0404 38.2381 70.2394 38.3618 69.4106 38.3618C68.6932 38.3618 67.9943 38.2536 67.314 38.0371C66.6336 37.8268 65.9966 37.5176 65.4028 37.1094C64.4132 36.4229 63.6556 35.5786 63.1299 34.5767C62.6104 33.5747 62.3506 32.4738 62.3506 31.2739C62.3506 30.2287 62.5238 29.2793 62.8701 28.4258C63.2227 27.5661 63.7576 26.7868 64.4751 26.0879C65.1678 25.4199 65.9347 24.922 66.7759 24.5942C67.617 24.2603 68.5355 24.0933 69.5312 24.0933C70.3167 24.0933 71.0775 24.2139 71.8135 24.4551C72.5495 24.6901 73.2762 25.0581 73.9937 25.5591V27.665ZM83.3916 36.8403C84.1338 36.8403 84.8389 36.7012 85.5068 36.4229C86.181 36.1383 86.7871 35.7271 87.3252 35.189C87.8571 34.6571 88.2622 34.054 88.5405 33.3799C88.8188 32.7057 88.958 31.9914 88.958 31.2368C88.958 30.4761 88.8158 29.7524 88.5312 29.0659C88.2529 28.3794 87.8509 27.7733 87.3252 27.2476C86.7933 26.7157 86.1903 26.3105 85.5161 26.0322C84.8481 25.7539 84.14 25.6147 83.3916 25.6147C82.637 25.6147 81.9227 25.7539 81.2485 26.0322C80.5744 26.3105 79.9775 26.7157 79.458 27.2476C78.9261 27.7856 78.521 28.3949 78.2427 29.0752C77.9644 29.7555 77.8252 30.4761 77.8252 31.2368C77.8252 31.9914 77.9613 32.7026 78.2334 33.3706C78.5117 34.0386 78.9199 34.6447 79.458 35.189C80.0023 35.7332 80.6053 36.1445 81.2671 36.4229C81.9351 36.7012 82.6432 36.8403 83.3916 36.8403ZM90.6465 31.2368C90.6465 32.2078 90.4671 33.1232 90.1084 33.9829C89.7497 34.8426 89.2271 35.6064 88.5405 36.2744C87.854 36.9424 87.0623 37.4588 86.1655 37.8237C85.2749 38.1825 84.3503 38.3618 83.3916 38.3618C82.4329 38.3618 81.5083 38.1825 80.6177 37.8237C79.7332 37.4588 78.9478 36.9424 78.2612 36.2744C77.5685 35.6003 77.0397 34.8333 76.6748 33.9736C76.3161 33.1139 76.1367 32.2017 76.1367 31.2368C76.1367 30.2658 76.3161 29.3504 76.6748 28.4907C77.0397 27.6248 77.5685 26.8548 78.2612 26.1807C78.9416 25.5189 79.7271 25.0086 80.6177 24.6499C81.5083 24.2912 82.4329 24.1118 83.3916 24.1118C84.3564 24.1118 85.2842 24.2912 86.1748 24.6499C87.0716 25.0086 87.8602 25.5189 88.5405 26.1807C89.2271 26.8486 89.7497 27.6156 90.1084 28.4814C90.4671 29.3411 90.6465 30.2596 90.6465 31.2368ZM93.2905 38V23.8799L103.227 34.7344V24.418H104.767V38.5288L94.8306 27.7949V38H93.2905ZM110.398 38V25.958H106.557V24.418H115.853V25.958H112.031V38H110.398ZM120.557 27.4517L118.395 32.4521H122.718L120.557 27.4517ZM120.557 23.8799L126.735 38H124.982L123.219 33.8345H117.913L116.15 38H114.396L120.557 23.8799ZM138.824 27.665C138.174 26.96 137.482 26.4404 136.746 26.1064C136.01 25.7663 135.196 25.5962 134.306 25.5962C133.588 25.5962 132.886 25.7415 132.2 26.0322C131.519 26.3229 130.929 26.728 130.428 27.2476C129.908 27.7856 129.519 28.3887 129.259 29.0566C128.999 29.7184 128.869 30.4513 128.869 31.2554C128.869 31.8862 128.946 32.4676 129.101 32.9995C129.256 33.5314 129.488 34.02 129.797 34.4653C130.341 35.2384 131.009 35.8353 131.801 36.2559C132.599 36.6702 133.458 36.8774 134.38 36.8774C135.246 36.8774 136.05 36.6981 136.792 36.3394C137.534 35.9806 138.211 35.4456 138.824 34.7344V36.8774C138.15 37.366 137.423 37.7371 136.644 37.9907C135.87 38.2381 135.069 38.3618 134.241 38.3618C133.523 38.3618 132.824 38.2536 132.144 38.0371C131.464 37.8268 130.827 37.5176 130.233 37.1094C129.243 36.4229 128.486 35.5786 127.96 34.5767C127.44 33.5747 127.181 32.4738 127.181 31.2739C127.181 30.2287 127.354 29.2793 127.7 28.4258C128.053 27.5661 128.588 26.7868 129.305 26.0879C129.998 25.4199 130.765 24.922 131.606 24.5942C132.447 24.2603 133.366 24.0933 134.361 24.0933C135.147 24.0933 135.908 24.2139 136.644 24.4551C137.38 24.6901 138.106 25.0581 138.824 25.5591V27.665ZM143.963 38V25.958H140.123V24.418H149.418V25.958H145.596V38H143.963ZM156.766 24.418H158.399V32.8696C158.399 34.2427 158.69 35.2508 159.271 35.894C159.859 36.5373 160.777 36.8589 162.026 36.8589C163.276 36.8589 164.191 36.5373 164.772 35.894C165.36 35.2508 165.654 34.2427 165.654 32.8696V24.418H167.296V32.8696C167.296 34.7065 166.857 36.0827 165.979 36.998C165.106 37.9072 163.789 38.3618 162.026 38.3618C160.27 38.3618 158.952 37.9072 158.074 36.998C157.202 36.0827 156.766 34.7065 156.766 32.8696V24.418ZM175.46 30.4575C176.344 30.8348 177.009 31.3358 177.455 31.9604C177.906 32.5851 178.132 33.3242 178.132 34.1777C178.132 35.4271 177.733 36.4352 176.935 37.2021C176.143 37.9629 175.092 38.3433 173.781 38.3433C172.711 38.3433 171.814 38.0711 171.09 37.5269C170.367 36.9764 169.878 36.1971 169.625 35.189L171.09 34.4653C171.288 35.2879 171.613 35.9126 172.064 36.3394C172.522 36.7599 173.094 36.9702 173.781 36.9702C174.591 36.9702 175.247 36.7383 175.748 36.2744C176.249 35.8044 176.499 35.1951 176.499 34.4468C176.499 33.8407 176.323 33.3149 175.97 32.8696C175.624 32.4181 175.098 32.0378 174.393 31.7285L172.742 31.0234C171.839 30.6462 171.165 30.1606 170.719 29.5669C170.28 28.9731 170.061 28.2619 170.061 27.4331C170.061 26.4683 170.419 25.6704 171.137 25.0396C171.854 24.4087 172.77 24.0933 173.883 24.0933C174.699 24.0933 175.404 24.2664 175.998 24.6128C176.598 24.9591 177.065 25.4694 177.399 26.1436L176.063 26.9971C175.76 26.4714 175.42 26.0817 175.042 25.8281C174.665 25.5684 174.238 25.4385 173.762 25.4385C173.156 25.4385 172.658 25.624 172.269 25.9951C171.885 26.3662 171.693 26.8394 171.693 27.4146C171.693 27.897 171.842 28.3145 172.139 28.667C172.436 29.0195 172.896 29.3319 173.521 29.604L175.46 30.4575Z" fill="#1C8E42"/>
</g>
<defs>
<filter id="filter0_i_152_551" x="11" y="6" width="215" height="68" filterUnits="userSpaceOnUse" color-interpolation-filters="sRGB">
<feFlood flood-opacity="0" result="BackgroundImageFix"/>
<feBlend mode="normal" in="SourceGraphic" in2="BackgroundImageFix" result="shape"/>
<feColorMatrix in="SourceAlpha" type="matrix" values="0 0 0 0 0 0 0 0 0 0 0 0 0 0 0 0 0 0 127 0" result="hardAlpha"/>
<feMorphology radius="2" operator="erode" in="SourceAlpha" result="effect1_innerShadow_152_551"/>
<feOffset/>
<feGaussianBlur stdDeviation="1"/>
<feComposite in2="hardAlpha" operator="arithmetic" k2="-1" k3="1"/>
<feColorMatrix type="matrix" values="0 0 0 0 0 0 0 0 0 0 0 0 0 0 0 0 0 0 0.24 0"/>
<feBlend mode="normal" in2="shape" result="effect1_innerShadow_152_551"/>
</filter>
<filter id="filter1_f_152_551" x="0" y="24" width="237" height="76" filterUnits="userSpaceOnUse" color-interpolation-filters="sRGB">
<feFlood flood-opacity="0" result="BackgroundImageFix"/>
<feBlend mode="normal" in="SourceGraphic" in2="BackgroundImageFix" result="shape"/>
<feGaussianBlur stdDeviation="8" result="effect1_foregroundBlur_152_551"/>
</filter>
<filter id="filter2_i_152_551" x="11" y="-2" width="215" height="67" filterUnits="userSpaceOnUse" color-interpolation-filters="sRGB">
<feFlood flood-opacity="0" result="BackgroundImageFix"/>
<feBlend mode="normal" in="SourceGraphic" in2="BackgroundImageFix" result="shape"/>
<feColorMatrix in="SourceAlpha" type="matrix" values="0 0 0 0 0 0 0 0 0 0 0 0 0 0 0 0 0 0 127 0" result="hardAlpha"/>
<feMorphology radius="1" operator="erode" in="SourceAlpha" result="effect1_innerShadow_152_551"/>
<feOffset dy="-2"/>
<feGaussianBlur stdDeviation="1"/>
<feComposite in2="hardAlpha" operator="arithmetic" k2="-1" k3="1"/>
<feColorMatrix type="matrix" values="0 0 0 0 0.0867708 0 0 0 0 0.425 0 0 0 0 0.195487 0 0 0 1 0"/>
<feBlend mode="normal" in2="shape" result="effect1_innerShadow_152_551"/>
</filter>
<filter id="filter3_i_152_551" x="62.3506" y="23.8799" width="115.781" height="15.6489" filterUnits="userSpaceOnUse" color-interpolation-filters="sRGB">
<feFlood flood-opacity="0" result="BackgroundImageFix"/>
<feBlend mode="normal" in="SourceGraphic" in2="BackgroundImageFix" result="shape"/>
<feColorMatrix in="SourceAlpha" type="matrix" values="0 0 0 0 0 0 0 0 0 0 0 0 0 0 0 0 0 0 127 0" result="hardAlpha"/>
<feOffset dy="1"/>
<feGaussianBlur stdDeviation="2"/>
<feComposite in2="hardAlpha" operator="arithmetic" k2="-1" k3="1"/>
<feColorMatrix type="matrix" values="0 0 0 0 0 0 0 0 0 0 0 0 0 0 0 0 0 0 0.25 0"/>
<feBlend mode="normal" in2="shape" result="effect1_innerShadow_152_551"/>
</filter>
<linearGradient id="paint0_linear_152_551" x1="118.5" y1="0" x2="118.5" y2="65" gradientUnits="userSpaceOnUse">
<stop stop-color="#BCF84D"/>
<stop offset="1" stop-color="#5BF243"/>
</linearGradient>
</defs>
</svg>
