<svg width="193" height="71" viewBox="0 0 193 71" fill="none" xmlns="http://www.w3.org/2000/svg">
<g filter="url(#filter0_b_152_231)">
<rect width="193" height="71" rx="20" fill="white" fill-opacity="0.15"/>
</g>
<path d="M69.3408 39.4785H70.3706C72.0405 39.4785 73.1971 39.4074 73.8403 39.2651C74.4836 39.1167 75.0186 38.8662 75.4453 38.5137C76.002 38.0498 76.4256 37.453 76.7163 36.7231C77.007 35.9871 77.1523 35.146 77.1523 34.1997C77.1523 33.2472 77.007 32.4123 76.7163 31.6948C76.4318 30.9712 76.0081 30.3743 75.4453 29.9043C75.0186 29.5456 74.4743 29.292 73.8125 29.1436C73.1569 28.9889 72.0096 28.9116 70.3706 28.9116H69.3408V39.4785ZM67.708 41V27.418H70.3149C72.2446 27.418 73.6022 27.5169 74.3877 27.7148C75.1794 27.9066 75.8721 28.2313 76.4658 28.689C77.2451 29.2889 77.8358 30.0558 78.2378 30.9897C78.6398 31.9237 78.8408 32.9998 78.8408 34.2183C78.8408 35.4305 78.6398 36.5036 78.2378 37.4375C77.842 38.3652 77.2513 39.1291 76.4658 39.729C75.8721 40.1867 75.1948 40.5145 74.4341 40.7124C73.6795 40.9041 72.5013 41 70.8994 41H70.3149H67.708ZM81.4941 41V27.418H88.6562V28.8931H83.1084V32.7896H88.6562V34.2925H83.1084V39.4971H88.6562V41H81.4941ZM89.6582 41L93.833 33.7822L89.9365 27.418H91.8755L94.7886 32.5854L97.5996 27.418H99.4365L95.5864 33.9307L99.9189 41H98.0171L94.668 35.146L91.4951 41H89.6582ZM103.834 41V28.958H99.9932V27.418H109.289V28.958H105.467V41H103.834ZM116.683 39.8403C117.425 39.8403 118.13 39.7012 118.798 39.4229C119.472 39.1383 120.079 38.7271 120.617 38.189C121.149 37.6571 121.554 37.054 121.832 36.3799C122.11 35.7057 122.25 34.9914 122.25 34.2368C122.25 33.4761 122.107 32.7524 121.823 32.0659C121.544 31.3794 121.142 30.7733 120.617 30.2476C120.085 29.7157 119.482 29.3105 118.808 29.0322C118.14 28.7539 117.431 28.6147 116.683 28.6147C115.929 28.6147 115.214 28.7539 114.54 29.0322C113.866 29.3105 113.269 29.7157 112.75 30.2476C112.218 30.7856 111.812 31.3949 111.534 32.0752C111.256 32.7555 111.117 33.4761 111.117 34.2368C111.117 34.9914 111.253 35.7026 111.525 36.3706C111.803 37.0386 112.211 37.6447 112.75 38.189C113.294 38.7332 113.897 39.1445 114.559 39.4229C115.227 39.7012 115.935 39.8403 116.683 39.8403ZM123.938 34.2368C123.938 35.2078 123.759 36.1232 123.4 36.9829C123.041 37.8426 122.519 38.6064 121.832 39.2744C121.146 39.9424 120.354 40.4588 119.457 40.8237C118.566 41.1825 117.642 41.3618 116.683 41.3618C115.724 41.3618 114.8 41.1825 113.909 40.8237C113.025 40.4588 112.239 39.9424 111.553 39.2744C110.86 38.6003 110.331 37.8333 109.966 36.9736C109.608 36.1139 109.428 35.2017 109.428 34.2368C109.428 33.2658 109.608 32.3504 109.966 31.4907C110.331 30.6248 110.86 29.8548 111.553 29.1807C112.233 28.5189 113.019 28.0086 113.909 27.6499C114.8 27.2912 115.724 27.1118 116.683 27.1118C117.648 27.1118 118.576 27.2912 119.466 27.6499C120.363 28.0086 121.152 28.5189 121.832 29.1807C122.519 29.8486 123.041 30.6156 123.4 31.4814C123.759 32.3411 123.938 33.2596 123.938 34.2368ZM133.215 39.8403C133.958 39.8403 134.663 39.7012 135.331 39.4229C136.005 39.1383 136.611 38.7271 137.149 38.189C137.681 37.6571 138.086 37.054 138.364 36.3799C138.643 35.7057 138.782 34.9914 138.782 34.2368C138.782 33.4761 138.639 32.7524 138.355 32.0659C138.077 31.3794 137.675 30.7733 137.149 30.2476C136.617 29.7157 136.014 29.3105 135.34 29.0322C134.672 28.7539 133.964 28.6147 133.215 28.6147C132.461 28.6147 131.746 28.7539 131.072 29.0322C130.398 29.3105 129.801 29.7157 129.282 30.2476C128.75 30.7856 128.345 31.3949 128.066 32.0752C127.788 32.7555 127.649 33.4761 127.649 34.2368C127.649 34.9914 127.785 35.7026 128.057 36.3706C128.335 37.0386 128.744 37.6447 129.282 38.189C129.826 38.7332 130.429 39.1445 131.091 39.4229C131.759 39.7012 132.467 39.8403 133.215 39.8403ZM140.47 34.2368C140.47 35.2078 140.291 36.1232 139.932 36.9829C139.573 37.8426 139.051 38.6064 138.364 39.2744C137.678 39.9424 136.886 40.4588 135.989 40.8237C135.099 41.1825 134.174 41.3618 133.215 41.3618C132.257 41.3618 131.332 41.1825 130.441 40.8237C129.557 40.4588 128.771 39.9424 128.085 39.2744C127.392 38.6003 126.863 37.8333 126.499 36.9736C126.14 36.1139 125.96 35.2017 125.96 34.2368C125.96 33.2658 126.14 32.3504 126.499 31.4907C126.863 30.6248 127.392 29.8548 128.085 29.1807C128.765 28.5189 129.551 28.0086 130.441 27.6499C131.332 27.2912 132.257 27.1118 133.215 27.1118C134.18 27.1118 135.108 27.2912 135.999 27.6499C136.895 28.0086 137.684 28.5189 138.364 29.1807C139.051 29.8486 139.573 30.6156 139.932 31.4814C140.291 32.3411 140.47 33.2596 140.47 34.2368ZM143.114 41V27.418H144.729V39.46H149.859V41H143.114ZM156.724 33.4575C157.609 33.8348 158.273 34.3358 158.719 34.9604C159.17 35.5851 159.396 36.3242 159.396 37.1777C159.396 38.4271 158.997 39.4352 158.199 40.2021C157.408 40.9629 156.356 41.3433 155.045 41.3433C153.975 41.3433 153.078 41.0711 152.354 40.5269C151.631 39.9764 151.142 39.1971 150.889 38.189L152.354 37.4653C152.552 38.2879 152.877 38.9126 153.329 39.3394C153.786 39.7599 154.358 39.9702 155.045 39.9702C155.855 39.9702 156.511 39.7383 157.012 39.2744C157.513 38.8044 157.763 38.1951 157.763 37.4468C157.763 36.8407 157.587 36.3149 157.234 35.8696C156.888 35.4181 156.362 35.0378 155.657 34.7285L154.006 34.0234C153.103 33.6462 152.429 33.1606 151.983 32.5669C151.544 31.9731 151.325 31.2619 151.325 30.4331C151.325 29.4683 151.683 28.6704 152.401 28.0396C153.118 27.4087 154.034 27.0933 155.147 27.0933C155.963 27.0933 156.668 27.2664 157.262 27.6128C157.862 27.9591 158.329 28.4694 158.663 29.1436L157.327 29.9971C157.024 29.4714 156.684 29.0817 156.307 28.8281C155.929 28.5684 155.503 28.4385 155.026 28.4385C154.42 28.4385 153.922 28.624 153.533 28.9951C153.149 29.3662 152.958 29.8394 152.958 30.4146C152.958 30.897 153.106 31.3145 153.403 31.667C153.7 32.0195 154.16 32.3319 154.785 32.604L156.724 33.4575Z" fill="white"/>
<path d="M50.5 30.9019C52.5 32.0566 52.5 34.9434 50.5 36.0981L39.25 42.5933C37.25 43.748 34.75 42.3046 34.75 39.9952L34.75 27.0048C34.75 24.6954 37.25 23.252 39.25 24.4067L50.5 30.9019Z" fill="url(#paint0_linear_152_231)"/>
<defs>
<filter id="filter0_b_152_231" x="-10" y="-10" width="213" height="91" filterUnits="userSpaceOnUse" color-interpolation-filters="sRGB">
<feFlood flood-opacity="0" result="BackgroundImageFix"/>
<feGaussianBlur in="BackgroundImage" stdDeviation="5"/>
<feComposite in2="SourceAlpha" operator="in" result="effect1_backgroundBlur_152_231"/>
<feBlend mode="normal" in="SourceGraphic" in2="effect1_backgroundBlur_152_231" result="shape"/>
</filter>
<linearGradient id="paint0_linear_152_231" x1="53.3678" y1="47" x2="49.3792" y2="13.7173" gradientUnits="userSpaceOnUse">
<stop stop-color="#ECFFAB"/>
<stop offset="1" stop-color="#49CE53"/>
</linearGradient>
</defs>
</svg>
